<?xml version="1.0" standalone="no"?>
<!DOCTYPE svg PUBLIC "-//W3C//DTD SVG 20010904//EN"
 "http://www.w3.org/TR/2001/REC-SVG-20010904/DTD/svg10.dtd">
<svg version="1.0" xmlns="http://www.w3.org/2000/svg"
 width="805.000000pt" height="596.000000pt" viewBox="0 0 805.000000 596.000000"
 preserveAspectRatio="xMidYMid meet">

<g transform="translate(0.000000,596.000000) scale(0.100000,-0.100000)"
fill="#000000" stroke="none">
<path d="M10 2980 l0 -2970 4020 0 4020 0 0 2970 0 2970 -4020 0 -4020 0 0
-2970z m7930 401 l0 -2458 -62 -7 c-85 -10 -214 -55 -300 -106 -94 -56 -222
-184 -278 -278 -58 -99 -100 -227 -107 -329 l-6 -83 -553 0 -554 0 0 250 0
250 -2595 0 -2595 0 0 -250 0 -250 -385 0 -385 0 0 2294 0 2294 57 7 c116 14
281 83 358 150 17 15 4 9 -30 -13 -33 -22 -74 -47 -92 -56 -64 -32 -190 -67
-265 -73 l-78 -6 0 392 0 391 391 0 392 0 -6 -77 c-6 -76 -41 -202 -73 -266
-9 -18 -34 -59 -56 -92 -22 -34 -28 -47 -13 -30 76 88 142 259 152 393 l6 82
-372 0 -371 0 0 165 0 164 3910 0 3910 0 0 -2458z m50 1964 c0 -488 0 -495
-20 -495 -20 0 -20 7 -20 495 0 488 0 495 20 495 20 0 20 -7 20 -495z m50 0
c0 -488 0 -495 -20 -495 -20 0 -20 7 -20 495 0 488 0 495 20 495 20 0 20 -7
20 -495z m-7982 -237 c-3 -365 -4 -393 -21 -396 -16 -3 -17 21 -17 392 0 390
0 396 20 396 20 0 20 -5 18 -392z m2 -2733 c0 -488 0 -495 -20 -495 -20 0 -20
7 -20 495 0 488 0 495 20 495 20 0 20 -7 20 -495z m50 0 c0 -488 0 -495 -20
-495 -20 0 -20 7 -20 495 0 488 0 495 20 495 20 0 20 -7 20 -495z m7878 -1857
l-3 -393 -394 -3 -394 -2 6 82 c20 290 236 567 517 664 90 32 139 42 213 43
l57 1 -2 -392z m50 0 c-3 -365 -4 -393 -20 -396 -17 -3 -18 21 -18 392 0 390
0 396 20 396 20 0 20 -5 18 -392z m-1968 -153 l0 -245 -2585 0 -2585 0 0 245
0 245 2585 0 2585 0 0 -245z"/>
<path d="M2455 5809 c-20 -12 -48 -19 -82 -19 -52 0 -53 0 -53 -30 l0 -30 355
0 355 0 0 30 c0 30 -1 30 -55 30 -37 0 -65 6 -87 20 -18 11 -37 20 -43 20 -5
-1 6 -9 25 -20 l35 -19 -82 -1 c-69 0 -82 3 -86 18 -4 16 -5 16 -6 0 0 -10 -5
-18 -10 -18 -5 0 -12 8 -14 18 -4 16 -5 16 -6 0 0 -10 -5 -18 -10 -18 -5 0
-12 8 -14 18 -4 16 -5 16 -6 0 0 -10 -5 -18 -10 -18 -5 0 -12 8 -14 18 -4 16
-5 16 -6 0 0 -10 -5 -18 -10 -18 -5 0 -12 8 -14 18 -4 16 -5 16 -6 0 -1 -16
-12 -18 -83 -18 l-83 0 30 20 c17 11 26 20 20 19 -5 0 -23 -9 -40 -20z m565
-49 c0 -20 -7 -20 -345 -20 -338 0 -345 0 -345 20 0 20 7 20 345 20 338 0 345
0 345 -20z"/>
<path d="M5135 5809 c-20 -12 -48 -19 -82 -19 -52 0 -53 0 -53 -30 l0 -30 355
0 355 0 0 30 c0 30 -1 30 -55 30 -37 0 -65 6 -87 20 -18 11 -37 20 -43 20 -5
-1 6 -9 25 -20 l35 -19 -82 -1 c-69 0 -82 3 -86 18 -4 16 -5 16 -6 0 0 -10 -5
-18 -10 -18 -5 0 -12 8 -14 18 -4 16 -5 16 -6 0 0 -10 -5 -18 -10 -18 -5 0
-12 8 -14 18 -4 16 -5 16 -6 0 0 -10 -5 -18 -10 -18 -5 0 -12 8 -14 18 -4 16
-5 16 -6 0 0 -10 -5 -18 -10 -18 -5 0 -12 8 -14 18 -4 16 -5 16 -6 0 -1 -16
-12 -18 -83 -18 l-83 0 30 20 c17 11 26 20 20 19 -5 0 -23 -9 -40 -20z m565
-49 c0 -20 -7 -20 -345 -20 -338 0 -345 0 -345 20 0 20 7 20 345 20 338 0 345
0 345 -20z"/>
<path d="M620 4943 l-55 -58 58 55 c53 50 62 60 54 60 -1 0 -27 -26 -57 -57z"/>
<path d="M1608 4883 c23 -2 59 -2 80 0 20 2 1 4 -43 4 -44 0 -61 -2 -37 -4z"/>
<path d="M2047 4880 c-44 -8 -52 -15 -52 -43 -1 -31 -16 -159 -21 -179 -4 -15
-17 -18 -69 -18 -73 0 -66 -10 -84 118 -5 41 -7 80 -4 88 6 15 -35 35 -70 33
-12 -1 -3 -5 21 -11 47 -10 56 -27 15 -29 -24 -2 -25 -2 -6 -6 13 -3 25 -14
28 -26 10 -45 21 -157 17 -162 -3 -3 -84 -5 -180 -5 l-174 0 7 68 c9 96 15
113 39 122 21 9 21 9 -1 9 -46 2 -17 31 29 31 12 0 19 3 15 6 -3 4 -22 3 -41
0 -30 -6 -35 -11 -35 -34 1 -15 -5 -65 -12 -112 l-14 -85 -194 -3 -194 -2 4
-403 4 -402 -90 -13 c-49 -6 -105 -13 -123 -15 -50 -4 -57 -25 -57 -162 0
-158 4 -172 52 -173 21 -1 79 -7 128 -14 l90 -13 0 -65 0 -65 -110 -16 c-60
-9 -115 -14 -122 -12 -26 10 -38 -41 -38 -162 0 -158 4 -172 52 -173 21 -1 79
-7 128 -14 l90 -13 3 -62 3 -62 -33 -5 c-84 -14 -191 -26 -197 -22 -4 3 -5 -9
-3 -27 5 -29 6 -30 13 -9 5 12 10 22 11 23 23 6 195 25 201 22 9 -6 9 -350 -1
-357 -9 -5 -199 18 -207 25 -2 3 -9 30 -14 60 l-10 54 5 -59 c2 -33 6 -62 9
-64 3 -3 191 -31 218 -32 4 0 7 -31 7 -70 l0 -69 -32 -5 c-85 -14 -191 -26
-197 -22 -4 3 -5 -9 -3 -27 5 -29 6 -30 13 -9 5 12 10 22 11 23 23 6 195 25
201 22 9 -6 9 -350 -1 -357 -9 -5 -199 18 -207 25 -2 3 -9 30 -14 60 l-10 54
5 -59 c2 -33 6 -62 9 -64 3 -3 191 -31 218 -32 4 0 7 -76 7 -170 l0 -170 29 0
c28 0 30 -2 36 -57 4 -32 11 -75 15 -96 4 -21 7 -45 5 -55 -1 -9 0 -11 2 -4 3
8 18 10 46 7 39 -4 40 -4 9 4 -19 5 -38 13 -42 17 -7 7 -30 142 -30 175 0 5
76 9 180 9 104 0 180 -4 180 -9 0 -33 -23 -168 -30 -175 -4 -4 -23 -12 -42
-17 -30 -8 -29 -8 10 -4 31 4 42 2 42 -9 0 -15 -42 -26 -101 -26 -21 0 -40 -4
-43 -8 -5 -9 128 3 145 14 6 3 9 15 6 25 -3 10 -1 35 3 56 4 21 11 64 15 95 6
55 7 57 38 60 l32 3 3 177 2 176 68 7 c37 4 84 11 106 15 21 5 44 6 51 3 28
-10 40 39 40 162 0 151 -6 175 -43 173 -15 0 -71 5 -124 12 l-98 13 0 68 0 67
68 7 c37 4 84 11 106 15 21 5 44 6 51 3 28 -10 40 39 40 162 0 151 -6 175 -43
173 -15 0 -71 5 -124 12 l-98 13 0 63 c0 51 3 64 18 68 20 5 154 20 197 20 27
1 31 5 43 51 24 93 4 310 -28 290 -7 -4 -108 6 -197 21 l-33 5 0 69 c0 57 3
70 18 74 20 5 154 20 197 20 27 1 31 5 43 51 24 93 4 310 -28 290 -7 -4 -108
6 -197 21 l-33 5 0 139 0 140 1080 0 1081 0 -3 -152 -3 -153 -95 -12 c-52 -7
-102 -14 -110 -15 -9 -1 -17 -16 -20 -37 -6 -49 -6 -219 0 -255 5 -29 -14 -50
-23 -24 -2 8 -3 8 -3 -2 1 -8 10 -14 19 -14 10 1 61 -4 115 -12 53 -7 103 -14
110 -14 8 0 12 -20 12 -68 l0 -68 -102 -13 c-57 -7 -114 -13 -127 -14 -30 -2
-38 -29 -46 -137 l-4 -75 14 95 c8 52 14 98 14 103 1 4 8 7 17 7 11 0 14 -5 9
-17 -12 -33 -17 -188 -7 -241 6 -32 6 -55 0 -58 -14 -9 -17 -3 -27 57 -6 40
-9 45 -9 19 0 -63 11 -85 43 -86 17 0 74 -6 128 -13 l97 -13 0 -63 0 -63 -32
-5 c-18 -3 -60 -9 -93 -12 -93 -10 -93 -10 -106 -73 -11 -57 -8 -210 6 -244 5
-13 2 -18 -8 -18 -9 0 -18 7 -20 15 -4 11 -4 10 -3 -2 1 -11 11 -19 26 -20 35
-3 181 -23 208 -29 20 -4 22 -10 22 -73 l0 -69 -32 -5 c-18 -3 -60 -9 -93 -12
-93 -10 -93 -10 -106 -73 -11 -57 -8 -210 6 -244 5 -13 2 -18 -8 -18 -9 0 -18
7 -20 15 -4 11 -4 10 -3 -2 1 -11 11 -19 26 -20 35 -3 181 -23 208 -29 22 -4
22 -6 22 -169 l0 -164 38 -3 37 -3 11 -85 c6 -47 12 -69 12 -50 0 19 -3 59 -7
88 l-7 52 181 0 181 0 -7 -52 c-4 -29 -7 -69 -7 -88 0 -19 6 3 12 50 11 82 12
85 39 88 l27 3 0 175 c0 159 2 174 18 175 9 0 58 6 107 13 50 7 94 11 98 9 12
-7 37 17 36 36 0 11 -3 9 -9 -6 -16 -38 -32 -28 -23 15 10 46 10 206 1 250 -6
24 -4 32 7 32 7 0 16 -7 18 -15 4 -11 4 -10 3 2 -1 12 -11 19 -31 20 -17 2
-73 9 -125 16 l-95 12 -3 68 c-3 59 -1 67 15 68 10 0 59 6 108 13 50 7 94 11
98 9 12 -7 37 17 36 36 0 11 -3 9 -9 -6 -16 -38 -32 -28 -23 15 10 46 10 206
1 250 -6 24 -4 32 7 32 7 0 16 -7 18 -15 4 -11 4 -10 3 2 -1 12 -11 19 -31 20
-17 2 -73 9 -125 16 l-95 12 0 65 0 65 95 12 c52 7 102 14 110 15 9 1 16 9 17
17 12 146 14 205 5 249 -6 32 -6 55 0 58 14 9 17 3 27 -57 6 -40 9 -45 9 -19
0 53 -12 85 -32 84 -9 -1 -60 4 -114 12 -53 7 -103 14 -110 14 -10 0 -12 18
-10 72 l3 73 95 12 c52 7 102 14 110 15 9 1 16 9 17 17 12 146 14 205 5 249
-6 32 -6 55 0 58 14 9 17 3 27 -57 6 -40 9 -45 9 -19 0 53 -12 85 -32 84 -9
-1 -60 4 -114 12 -53 7 -103 14 -109 14 -10 0 -13 36 -13 145 l0 145 1085 0
1085 0 0 -159 0 -160 -47 -6 c-27 -4 -73 -10 -103 -15 -30 -4 -59 -6 -63 -3
-12 7 -37 -17 -36 -36 0 -11 3 -9 9 7 16 37 32 27 23 -15 -10 -47 -10 -207 -1
-250 6 -25 4 -33 -7 -33 -7 0 -16 8 -19 18 -4 13 -4 13 -3 -3 2 -14 11 -21 32
-22 17 -2 71 -8 120 -15 l90 -13 3 -66 c3 -62 1 -67 -20 -72 -24 -6 -148 -20
-185 -21 -33 -1 -43 -17 -48 -77 l-4 -54 10 55 c9 52 23 80 34 69 3 -3 0 -32
-6 -65 -11 -58 -7 -202 6 -236 5 -13 2 -18 -8 -18 -11 0 -18 14 -22 48 -9 63
-13 75 -13 32 0 -59 11 -85 38 -87 14 -1 68 -8 120 -15 l95 -13 0 -65 0 -65
-85 -13 c-47 -6 -101 -13 -120 -15 -30 -2 -35 -6 -42 -37 -11 -45 -11 -215 0
-260 7 -31 11 -35 42 -36 60 -3 194 -24 203 -33 4 -4 7 -37 5 -72 l-3 -64 -85
-13 c-47 -6 -101 -13 -120 -15 -30 -2 -35 -6 -42 -37 -11 -45 -11 -215 0 -260
7 -31 11 -35 42 -36 48 -2 190 -23 201 -30 5 -3 9 -75 9 -160 l0 -154 29 0
c28 0 30 -2 36 -58 4 -31 11 -74 15 -95 4 -21 7 -45 5 -55 -1 -9 0 -11 2 -4 3
8 18 10 46 7 39 -4 40 -4 9 4 -19 5 -38 13 -42 17 -7 7 -30 142 -30 175 0 5
76 9 180 9 104 0 180 -4 180 -9 0 -33 -23 -168 -30 -175 -4 -4 -23 -12 -42
-17 -30 -8 -29 -8 10 -4 31 4 42 2 42 -9 0 -15 -42 -26 -101 -26 -21 0 -40 -4
-43 -8 -5 -9 128 3 145 14 6 3 9 15 6 25 -3 10 -1 35 3 56 4 21 11 64 15 95 6
55 7 57 38 60 l32 3 3 162 c2 159 3 163 25 167 21 5 180 27 202 29 12 0 12 0
21 132 3 56 1 119 -4 143 -6 27 -6 44 0 48 16 10 20 -2 31 -89 8 -67 7 -100
-4 -160 -8 -41 -12 -74 -8 -71 15 9 31 149 24 216 -9 100 -15 112 -56 114 -19
1 -78 7 -131 14 l-98 12 0 64 c0 58 2 64 23 68 20 5 179 27 202 29 12 0 12 0
21 132 3 56 1 119 -4 143 -6 27 -6 44 0 48 16 10 20 -2 31 -89 8 -67 7 -100
-4 -160 -8 -41 -12 -74 -8 -71 15 9 31 149 24 216 -9 100 -15 112 -56 114 -19
1 -78 7 -131 14 l-98 12 0 63 0 63 104 12 c57 7 110 16 116 20 26 16 40 201
21 283 -7 28 -6 37 4 37 40 0 42 -295 2 -323 -9 -6 -8 -7 2 -5 24 7 33 56 34
173 0 125 -11 165 -45 164 -23 -1 -172 17 -215 27 -21 4 -23 10 -23 73 l0 69
104 12 c57 7 110 16 116 20 26 16 40 201 21 283 -7 28 -6 37 4 37 40 0 42
-295 2 -323 -9 -6 -8 -7 2 -5 24 7 33 56 34 173 0 125 -11 165 -45 164 -23 -1
-172 17 -215 27 l-23 4 0 405 0 405 -189 0 c-105 0 -192 3 -195 8 -4 6 -27
147 -29 177 -1 16 -38 20 -189 20 -134 0 -167 6 -110 22 45 13 254 9 282 -5
23 -12 23 -12 7 2 -25 19 -132 30 -220 22 -82 -8 -102 -17 -102 -48 -1 -32
-16 -159 -21 -180 -4 -15 -17 -18 -69 -18 -73 0 -66 -10 -84 118 -5 41 -7 80
-4 88 6 15 -35 35 -70 33 -12 -1 -3 -5 21 -11 47 -10 56 -27 15 -29 -24 -2
-25 -2 -6 -6 13 -3 25 -14 28 -26 10 -45 21 -157 17 -162 -3 -3 -84 -5 -180
-5 l-174 0 7 68 c9 96 15 113 39 122 21 9 21 9 -1 9 -46 2 -17 31 29 31 12 0
19 3 15 6 -3 4 -22 3 -41 0 -30 -6 -35 -11 -35 -34 1 -15 -5 -65 -12 -112
l-14 -85 -67 -3 c-77 -3 -69 -14 -87 116 -5 41 -7 80 -4 88 6 15 -35 35 -70
33 -12 -1 -3 -5 21 -11 47 -10 56 -27 15 -29 -24 -2 -25 -2 -6 -6 13 -3 25
-14 28 -26 10 -45 21 -157 17 -162 -3 -3 -84 -5 -180 -5 l-174 0 7 68 c9 96
15 113 39 122 21 9 21 9 -1 9 -46 2 -17 31 29 31 12 0 19 3 15 6 -3 4 -22 3
-41 0 -30 -6 -35 -11 -35 -34 1 -15 -5 -65 -12 -112 l-14 -85 -59 -3 c-32 -2
-62 1 -67 5 -6 6 -29 133 -32 178 -1 16 -38 20 -189 20 -134 0 -167 6 -110 22
45 13 254 9 282 -5 23 -12 23 -12 7 2 -25 19 -132 30 -220 22 -82 -8 -102 -17
-102 -48 -1 -32 -16 -159 -21 -180 -5 -15 -18 -18 -94 -18 -102 0 -91 -12
-109 118 -5 41 -7 80 -4 88 6 15 -35 35 -70 33 -12 -1 -3 -5 21 -11 47 -10 56
-27 15 -29 -24 -2 -25 -2 -6 -6 13 -3 25 -14 28 -26 10 -45 21 -157 17 -162
-3 -3 -84 -5 -180 -5 l-174 0 7 68 c9 96 15 113 39 122 21 9 21 9 -1 9 -46 2
-17 31 29 31 12 0 19 3 15 6 -3 4 -22 3 -41 0 -30 -6 -35 -11 -35 -34 1 -15
-5 -65 -12 -112 l-14 -85 -67 -3 c-77 -3 -69 -14 -87 116 -5 41 -7 80 -4 88 6
15 -35 35 -70 33 -12 -1 -3 -5 21 -11 47 -10 56 -27 15 -29 -24 -2 -25 -2 -6
-6 13 -3 25 -14 28 -26 10 -45 21 -157 17 -162 -3 -3 -84 -5 -180 -5 l-174 0
7 68 c9 96 15 113 39 122 21 9 21 9 -1 9 -46 2 -17 31 29 31 12 0 19 3 15 6
-3 4 -22 3 -41 0 -30 -6 -35 -11 -35 -34 1 -15 -5 -65 -12 -112 l-14 -85 -59
-3 c-32 -2 -62 1 -67 5 -6 6 -29 133 -32 178 -1 16 -38 20 -189 20 -134 0
-167 6 -110 22 45 13 254 9 282 -5 23 -12 23 -12 7 2 -25 19 -132 30 -220 22
-82 -8 -102 -17 -102 -48 -1 -32 -16 -159 -21 -180 -5 -15 -17 -18 -74 -18
-38 0 -71 3 -74 8 -4 6 -27 147 -29 177 -1 16 -38 20 -189 20 -134 0 -167 6
-110 22 45 13 254 9 282 -5 23 -12 23 -12 7 2 -25 19 -132 30 -220 22 -82 -8
-102 -17 -102 -48 -1 -32 -16 -159 -21 -180 -4 -15 -17 -18 -69 -18 -35 0 -66
3 -69 8 -4 6 -27 147 -29 177 -1 16 -38 20 -189 20 -134 0 -167 6 -110 22 47
13 254 9 282 -6 18 -10 22 -10 13 -1 -24 26 -185 38 -276 20z m242 -49 c28 -8
35 -27 45 -124 l8 -67 -175 0 c-95 0 -176 2 -179 5 -5 5 7 123 17 162 3 12 15
23 28 26 36 7 230 6 256 -2z m520 0 c28 -8 35 -27 45 -124 l8 -67 -175 0 c-95
0 -176 2 -179 5 -5 5 7 123 17 162 3 12 15 23 28 26 36 7 230 6 256 -2z m530
0 c28 -8 35 -27 45 -124 l8 -67 -175 0 c-95 0 -176 2 -179 5 -5 5 7 123 17
162 3 12 15 23 28 26 36 7 230 6 256 -2z m1600 0 c28 -8 35 -27 45 -124 l8
-67 -175 0 c-95 0 -176 2 -179 5 -5 5 7 123 17 162 3 12 15 23 28 26 36 7 230
6 256 -2z m1550 0 c28 -8 35 -27 45 -124 l8 -67 -175 0 c-95 0 -176 2 -179 5
-5 5 7 123 17 162 3 12 15 23 28 26 36 7 230 6 256 -2z m441 -440 l0 -238
-442 -7 c-575 -8 -4391 -8 -4965 0 l-443 7 0 238 0 239 2925 0 2925 0 0 -239z
m-5352 -1548 l-3 -1288 -242 -3 -243 -2 0 1290 0 1290 245 0 245 0 -2 -1287z
m2672 -3 l0 -1290 -245 0 -245 0 0 1290 0 1290 245 0 245 0 0 -1290z m2678 3
l-3 -1288 -242 -3 -243 -2 0 1290 0 1290 245 0 245 0 -2 -1287z m-5222 981
c40 -3 77 -9 83 -13 6 -4 15 -31 20 -61 l10 -55 -4 57 c-5 56 6 84 20 50 14
-33 17 -197 6 -254 -13 -61 -30 -77 -32 -30 -1 21 -2 22 -6 7 -7 -28 -17 -32
-102 -40 -42 -3 -84 -9 -93 -11 -17 -5 -18 8 -18 181 l0 187 23 -5 c12 -3 54
-9 93 -13z m2691 -10 c35 -3 67 -12 73 -19 23 -28 24 -256 1 -293 -4 -7 -53
-18 -109 -25 l-102 -13 0 184 0 185 38 -6 c20 -3 65 -9 99 -13z m-3317 -174
l0 -180 -24 0 c-45 0 -181 21 -190 30 -4 4 -14 48 -22 97 -12 82 -13 83 -8 20
2 -37 7 -82 11 -99 9 -47 -19 -31 -30 18 -9 43 -4 229 8 257 15 36 25 15 20
-45 l-4 -63 8 54 c5 29 13 57 18 62 9 9 115 26 176 28 l37 1 0 -180z m2667
-187 c-9 -8 -193 20 -205 32 -26 24 -28 253 -3 293 4 7 50 18 107 25 l99 12 3
-179 c1 -98 1 -181 -1 -183z m3328 347 c44 -6 84 -15 90 -21 6 -6 10 -66 10
-144 0 -106 -3 -137 -15 -148 -12 -12 -156 -37 -208 -37 -9 0 -12 49 -12 185
l0 185 28 -5 c15 -3 63 -9 107 -15z m-647 -184 l2 -179 -67 7 c-120 12 -132
16 -141 45 -11 42 -8 244 5 266 9 15 29 23 90 31 43 7 85 11 93 10 13 -1 15
-30 18 -180z m-4722 -322 c40 -3 77 -9 83 -13 6 -4 15 -31 20 -61 l10 -55 -4
57 c-5 56 6 84 20 50 14 -33 17 -197 6 -254 -13 -61 -30 -77 -32 -30 -1 21 -2
22 -6 7 -7 -28 -17 -32 -102 -40 -42 -3 -84 -9 -93 -11 -17 -5 -18 8 -18 181
l0 187 23 -5 c12 -3 54 -9 93 -13z m-626 -175 l0 -182 -67 7 c-125 13 -144 18
-153 40 -9 20 -9 20 -9 -2 -1 -39 -25 -19 -34 29 -9 49 -4 224 8 252 15 37 26
15 21 -45 l-5 -63 10 55 c5 30 13 58 17 61 7 8 124 26 180 28 l32 1 0 -181z
m3317 165 c35 -3 67 -12 73 -19 23 -28 24 -256 1 -293 -4 -7 -53 -18 -109 -25
l-102 -13 0 184 0 185 38 -6 c20 -3 65 -9 99 -13z m-647 -174 c0 -132 -3 -180
-12 -180 -47 0 -190 25 -198 35 -23 27 -24 256 -2 292 8 12 104 29 175 32 l37
1 0 -180z m3325 160 c44 -6 84 -15 90 -21 6 -6 10 -66 10 -144 0 -106 -3 -137
-15 -148 -12 -12 -156 -37 -208 -37 -9 0 -12 49 -12 185 l0 185 28 -5 c15 -3
63 -9 107 -15z m-647 -175 l2 -178 -77 7 c-109 10 -122 14 -131 45 -11 41 -8
244 5 266 9 16 29 22 95 31 46 6 88 10 93 9 6 -1 11 -71 13 -180z m-4675 -322
c27 -4 41 -12 47 -27 9 -20 9 -20 9 2 1 39 25 19 34 -29 9 -49 4 -224 -8 -251
-15 -38 -26 -16 -21 45 l5 62 -10 -55 c-5 -30 -13 -58 -17 -62 -6 -6 -154 -28
-189 -28 -10 0 -13 41 -13 181 l0 182 63 -7 c34 -4 79 -10 100 -13z m2718 -25
c23 -37 23 -243 0 -286 -8 -15 -25 -21 -73 -26 -35 -4 -80 -10 -100 -13 l-38
-6 0 185 0 184 102 -13 c57 -7 105 -18 109 -25z m-721 -153 l0 -184 -27 4
c-16 3 -61 9 -102 14 -41 6 -78 16 -82 23 -23 37 -23 244 -1 285 9 16 91 34
195 42 16 1 17 -14 17 -184z m3304 164 c50 -6 97 -17 104 -24 26 -24 28 -253
4 -292 -5 -7 -44 -17 -87 -23 -44 -6 -92 -12 -107 -15 l-28 -4 0 184 c0 136 3
185 12 185 6 0 52 -5 102 -11z m-624 -179 c0 -99 -4 -180 -8 -180 -33 0 -179
24 -186 30 -4 5 -12 23 -17 42 l-8 33 2 -35 c3 -45 -14 -54 -25 -15 -21 77 -8
285 18 285 11 0 13 -10 9 -42 l-5 -43 11 42 10 42 57 6 c31 4 62 8 67 10 6 2
25 4 43 4 l32 1 0 -180z m-4677 -327 c27 -4 41 -12 47 -27 9 -20 9 -20 9 2 1
39 25 19 34 -29 9 -49 4 -224 -8 -251 -15 -38 -26 -16 -21 45 l5 62 -10 -55
c-5 -30 -13 -58 -17 -62 -6 -6 -154 -28 -189 -28 -10 0 -13 41 -13 181 l0 182
63 -7 c34 -4 79 -10 100 -13z m2718 -25 c23 -37 23 -243 0 -286 -8 -15 -25
-21 -73 -26 -35 -4 -80 -10 -100 -13 l-38 -6 0 185 0 184 102 -13 c57 -7 105
-18 109 -25z m-721 -163 l0 -184 -27 4 c-16 3 -61 9 -102 14 -41 6 -78 16 -82
23 -23 37 -23 244 -1 285 9 16 91 34 195 42 16 1 17 -14 17 -184z m3304 174
c50 -6 97 -17 104 -24 26 -24 28 -253 4 -292 -5 -7 -44 -17 -87 -23 -44 -6
-92 -12 -107 -15 l-28 -4 0 184 c0 136 3 185 12 185 6 0 52 -5 102 -11z m-624
-189 c0 -99 -4 -180 -8 -180 -33 0 -179 24 -186 30 -4 5 -12 23 -17 42 l-8 33
2 -35 c3 -45 -14 -54 -25 -15 -21 77 -8 285 18 285 11 0 13 -10 9 -42 l-5 -43
11 42 10 42 57 6 c31 4 62 8 67 10 6 2 25 4 43 4 l32 1 0 -180z"/>
<path d="M1813 3617 l-1 -72 9 65 c4 36 5 68 1 72 -4 4 -8 -26 -9 -65z"/>
<path d="M1813 3087 l-1 -72 9 65 c4 36 5 68 1 72 -4 4 -8 -26 -9 -65z"/>
<path d="M835 3139 c-4 -6 -5 -12 -2 -15 2 -3 7 2 10 11 7 17 1 20 -8 4z"/>
<path d="M837 3064 c3 -27 7 -51 9 -53 8 -9 3 75 -5 88 -5 8 -7 -5 -4 -35z"/>
<path d="M1811 2678 c0 -26 3 -49 7 -52 4 -2 6 12 4 32 -6 62 -10 69 -11 20z"/>
<path d="M1816 2593 c-6 -14 -5 -15 5 -6 7 7 10 15 7 18 -3 3 -9 -2 -12 -12z"/>
<path d="M6203 2580 c0 -41 2 -58 4 -37 2 20 2 54 0 75 -2 20 -4 3 -4 -38z"/>
<path d="M1811 2158 c0 -26 3 -49 7 -52 4 -2 6 12 4 32 -6 62 -10 69 -11 20z"/>
<path d="M1816 2073 c-6 -14 -5 -15 5 -6 7 7 10 15 7 18 -3 3 -9 -2 -12 -12z"/>
<path d="M6203 2050 c0 -41 2 -58 4 -37 2 20 2 54 0 75 -2 20 -4 3 -4 -38z"/>
<path d="M3688 4883 c23 -2 59 -2 80 0 20 2 1 4 -43 4 -44 0 -61 -2 -37 -4z"/>
<path d="M4208 4883 c23 -2 59 -2 80 0 20 2 1 4 -43 4 -44 0 -61 -2 -37 -4z"/>
<path d="M5288 4883 c23 -2 59 -2 80 0 20 2 1 4 -43 4 -44 0 -61 -2 -37 -4z"/>
<path d="M5808 4883 c23 -2 59 -2 80 0 20 2 1 4 -43 4 -44 0 -61 -2 -37 -4z"/>
<path d="M1563 4843 c15 -2 39 -2 55 0 15 2 2 4 -28 4 -30 0 -43 -2 -27 -4z"/>
<path d="M1673 4843 c15 -2 39 -2 55 0 15 2 2 4 -28 4 -30 0 -43 -2 -27 -4z"/>
<path d="M3643 4843 c15 -2 39 -2 55 0 15 2 2 4 -28 4 -30 0 -43 -2 -27 -4z"/>
<path d="M3753 4843 c15 -2 39 -2 55 0 15 2 2 4 -28 4 -30 0 -43 -2 -27 -4z"/>
<path d="M4163 4843 c15 -2 39 -2 55 0 15 2 2 4 -28 4 -30 0 -43 -2 -27 -4z"/>
<path d="M4273 4843 c15 -2 39 -2 55 0 15 2 2 4 -28 4 -30 0 -43 -2 -27 -4z"/>
<path d="M5243 4843 c15 -2 39 -2 55 0 15 2 2 4 -28 4 -30 0 -43 -2 -27 -4z"/>
<path d="M5353 4843 c15 -2 39 -2 55 0 15 2 2 4 -28 4 -30 0 -43 -2 -27 -4z"/>
<path d="M5763 4843 c15 -2 39 -2 55 0 15 2 2 4 -28 4 -30 0 -43 -2 -27 -4z"/>
<path d="M5873 4843 c15 -2 39 -2 55 0 15 2 2 4 -28 4 -30 0 -43 -2 -27 -4z"/>
<path d="M3495 3790 c-16 -26 -28 -168 -18 -225 l11 -60 -5 80 c-3 50 1 106 9
148 14 66 15 76 3 57z"/>
<path d="M6173 3695 c0 -22 2 -30 4 -17 2 12 2 30 0 40 -3 9 -5 -1 -4 -23z"/>
<path d="M4526 3617 c-4 -43 -12 -93 -17 -110 -6 -20 -5 -27 1 -21 12 12 34
164 28 191 -2 10 -8 -17 -12 -60z"/>
<path d="M6163 3615 c0 -22 2 -30 4 -17 2 12 2 30 0 40 -3 9 -5 -1 -4 -23z"/>
<path d="M6173 3535 c0 -22 2 -30 4 -17 2 12 2 30 0 40 -3 9 -5 -1 -4 -23z"/>
<path d="M2601 3466 c-15 -18 -30 -108 -20 -127 39 -77 54 -119 45 -123 -6 -3
-2 -4 8 -3 36 4 27 -23 -26 -75 -29 -29 -45 -47 -36 -40 22 17 38 7 38 -23 0
-36 20 -74 43 -81 23 -7 57 26 57 55 -1 9 -7 1 -15 -16 -8 -18 -21 -33 -29
-33 -21 0 -42 36 -49 82 -4 30 0 44 25 77 16 23 33 41 37 41 14 0 31 -50 32
-93 0 -35 2 -38 9 -19 9 22 37 29 56 14 5 -4 -10 12 -33 36 -47 48 -52 62 -25
62 9 0 36 9 58 19 39 18 43 18 60 2 17 -15 17 -15 4 2 -12 17 -12 20 5 30 11
6 37 27 58 47 36 37 46 63 28 74 -5 4 -7 -2 -4 -12 2 -11 -6 -32 -22 -50 -30
-35 -155 -102 -192 -102 -24 0 -24 1 11 42 20 23 36 47 36 55 0 17 39 42 92
58 24 8 35 14 25 14 -10 1 -34 -6 -54 -14 -44 -19 -43 -19 -44 3 0 9 -8 -4
-17 -31 -30 -84 -92 -143 -108 -102 -4 8 -10 13 -14 10 -15 -9 -45 89 -45 147
0 94 37 101 76 14 17 -38 17 -41 -2 -77 -10 -21 -19 -46 -19 -56 1 -10 7 -1
14 20 8 20 19 44 26 52 6 8 9 19 5 25 -4 6 -3 9 2 8 4 -1 18 3 31 10 12 7 28
10 35 6 9 -5 9 -4 1 5 -8 9 -17 9 -39 -1 -25 -11 -29 -10 -39 6 -18 31 -57 76
-66 76 -4 0 -13 -6 -19 -14z m134 -335 c3 -5 1 -12 -5 -16 -5 -3 -10 1 -10 9
0 18 6 21 15 7z"/>
<path d="M5281 3466 c-15 -18 -30 -108 -20 -127 39 -77 54 -119 45 -123 -6 -3
-2 -4 8 -3 36 4 27 -23 -26 -75 -29 -29 -45 -47 -36 -40 22 17 38 7 38 -23 0
-36 20 -74 43 -81 23 -7 57 26 57 55 -1 9 -7 1 -15 -16 -8 -18 -21 -33 -29
-33 -21 0 -42 36 -49 82 -4 30 0 44 25 77 16 23 33 41 37 41 14 0 31 -50 32
-93 0 -35 2 -38 9 -19 9 22 37 29 56 14 5 -4 -10 12 -33 36 -47 48 -52 62 -25
62 9 0 36 9 58 19 39 18 43 18 60 2 17 -15 17 -15 4 2 -12 17 -12 20 5 30 11
6 37 27 58 47 36 37 46 63 28 74 -5 4 -7 -2 -4 -12 2 -11 -6 -32 -22 -50 -30
-35 -155 -102 -192 -102 -24 0 -24 1 11 42 20 23 36 47 36 55 0 17 39 42 92
58 24 8 35 14 25 14 -10 1 -34 -6 -54 -14 -44 -19 -43 -19 -44 3 0 9 -8 -4
-17 -31 -30 -84 -92 -143 -108 -102 -4 8 -10 13 -14 10 -15 -9 -45 89 -45 147
0 94 37 101 76 14 17 -38 17 -41 -2 -77 -10 -21 -19 -46 -19 -56 1 -10 7 -1
14 20 8 20 19 44 26 52 6 8 9 19 5 25 -4 6 -3 9 2 8 4 -1 18 3 31 10 12 7 28
10 35 6 9 -5 9 -4 1 5 -8 9 -17 9 -39 -1 -25 -11 -29 -10 -39 6 -18 31 -57 76
-66 76 -4 0 -13 -6 -19 -14z m134 -335 c3 -5 1 -12 -5 -16 -5 -3 -10 1 -10 9
0 18 6 21 15 7z"/>
<path d="M2403 3389 c-18 -18 -16 -37 7 -66 11 -14 20 -21 20 -16 0 6 -7 16
-15 23 -20 17 -19 49 2 57 15 6 83 -5 128 -21 11 -4 7 0 -8 9 -38 22 -118 30
-134 14z"/>
<path d="M5083 3389 c-18 -18 -16 -37 7 -66 11 -14 20 -21 20 -16 0 6 -7 16
-15 23 -20 17 -19 49 2 57 15 6 83 -5 128 -21 11 -4 7 0 -8 9 -38 22 -118 30
-134 14z"/>
<path d="M2440 3294 c0 -2 18 -15 40 -29 49 -31 51 -53 10 -103 -16 -20 -31
-48 -32 -61 -4 -32 23 -48 54 -33 21 10 21 10 -8 5 -18 -3 -34 0 -38 6 -20 32
75 140 125 142 17 0 11 4 -18 13 -23 8 -62 25 -87 39 -25 14 -46 24 -46 21z
m114 -75 c-8 -14 -24 -10 -24 6 0 9 6 12 15 9 8 -4 12 -10 9 -15z"/>
<path d="M5120 3294 c0 -2 18 -15 40 -29 49 -31 51 -53 10 -103 -16 -20 -31
-48 -32 -61 -4 -32 23 -48 54 -33 21 10 21 10 -8 5 -18 -3 -34 0 -38 6 -20 32
75 140 125 142 17 0 11 4 -18 13 -23 8 -62 25 -87 39 -25 14 -46 24 -46 21z
m114 -75 c-8 -14 -24 -10 -24 6 0 9 6 12 15 9 8 -4 12 -10 9 -15z"/>
<path d="M2875 3176 c10 -14 19 -26 22 -26 7 0 -17 39 -28 46 -6 3 -3 -5 6
-20z"/>
<path d="M5555 3176 c10 -14 19 -26 22 -26 7 0 -17 39 -28 46 -6 3 -3 -5 6
-20z"/>
<path d="M4526 3087 c-4 -43 -12 -93 -17 -110 -6 -20 -5 -27 1 -21 12 12 34
164 28 191 -2 10 -8 -17 -12 -60z"/>
<path d="M2901 3124 c0 -11 3 -14 6 -6 3 7 2 16 -1 19 -3 4 -6 -2 -5 -13z"/>
<path d="M5581 3124 c0 -11 3 -14 6 -6 3 7 2 16 -1 19 -3 4 -6 -2 -5 -13z"/>
<path d="M6166 3113 c-6 -14 -5 -15 5 -6 7 7 10 15 7 18 -3 3 -9 -2 -12 -12z"/>
<path d="M2896 3084 c-5 -13 -14 -15 -44 -11 -25 5 -32 3 -22 -3 23 -14 56
-12 70 5 7 9 11 18 8 21 -3 3 -8 -3 -12 -12z"/>
<path d="M5576 3084 c-5 -13 -14 -15 -44 -11 -25 5 -32 3 -22 -3 23 -14 56
-12 70 5 7 9 11 18 8 21 -3 3 -8 -3 -12 -12z"/>
<path d="M6160 3081 c0 -6 4 -13 10 -16 6 -3 7 1 4 9 -7 18 -14 21 -14 7z"/>
<path d="M811 2720 c-21 -97 -10 -256 19 -284 9 -8 9 -4 0 14 -18 34 -25 195
-11 259 6 30 10 56 7 58 -2 2 -9 -19 -15 -47z"/>
<path d="M3500 2755 c-6 -8 -10 -19 -8 -24 1 -6 8 1 15 14 13 28 11 31 -7 10z"/>
<path d="M4523 2685 c0 -22 2 -30 4 -17 2 12 2 30 0 40 -3 9 -5 -1 -4 -23z"/>
<path d="M837 2648 c-3 -35 -3 -66 1 -70 4 -4 8 24 10 63 4 86 -3 91 -11 7z"/>
<path d="M3483 2675 c0 -22 2 -30 4 -17 2 12 2 30 0 40 -3 9 -5 -1 -4 -23z"/>
<path d="M2601 2656 c-15 -18 -30 -108 -20 -127 39 -77 54 -119 45 -123 -6 -3
-2 -4 8 -3 36 4 27 -23 -26 -75 -29 -29 -45 -47 -36 -40 22 17 38 7 38 -23 0
-36 20 -74 43 -81 23 -7 57 26 57 55 -1 9 -7 1 -15 -16 -8 -18 -21 -33 -29
-33 -21 0 -42 36 -49 82 -4 30 0 44 25 77 16 23 33 41 37 41 14 0 31 -50 32
-93 0 -35 2 -38 9 -19 9 22 37 29 56 14 5 -4 -10 12 -33 36 -47 48 -52 62 -25
62 9 0 36 9 58 19 39 18 43 18 60 2 17 -15 17 -15 4 2 -12 17 -12 20 5 30 11
6 37 27 58 47 36 37 46 63 28 74 -5 4 -7 -2 -4 -12 2 -11 -6 -32 -22 -50 -30
-35 -155 -102 -192 -102 -24 0 -24 1 11 42 20 23 36 47 36 55 0 17 39 42 92
58 24 8 35 14 25 14 -10 1 -34 -6 -54 -14 -44 -19 -43 -19 -44 3 0 9 -8 -4
-17 -31 -30 -84 -92 -143 -108 -102 -4 8 -10 13 -14 10 -15 -9 -45 89 -45 147
0 94 37 101 76 14 17 -38 17 -41 -2 -77 -10 -21 -19 -46 -19 -56 1 -10 7 -1
14 20 8 20 19 44 26 52 6 8 9 19 5 25 -4 6 -3 9 2 8 4 -1 18 3 31 10 12 7 28
10 35 6 9 -5 9 -4 1 5 -8 9 -17 9 -39 -1 -25 -11 -29 -10 -39 6 -18 31 -57 76
-66 76 -4 0 -13 -6 -19 -14z m134 -335 c3 -5 1 -12 -5 -16 -5 -3 -10 1 -10 9
0 18 6 21 15 7z"/>
<path d="M5281 2656 c-15 -18 -30 -108 -20 -127 39 -77 54 -119 45 -123 -6 -3
-2 -4 8 -3 36 4 27 -23 -26 -75 -29 -29 -45 -47 -36 -40 22 17 38 7 38 -23 0
-36 20 -74 43 -81 23 -7 57 26 57 55 -1 9 -7 1 -15 -16 -8 -18 -21 -33 -29
-33 -21 0 -42 36 -49 82 -4 30 0 44 25 77 16 23 33 41 37 41 14 0 31 -50 32
-93 0 -35 2 -38 9 -19 9 22 37 29 56 14 5 -4 -10 12 -33 36 -47 48 -52 62 -25
62 9 0 36 9 58 19 39 18 43 18 60 2 17 -15 17 -15 4 2 -12 17 -12 20 5 30 11
6 37 27 58 47 36 37 46 63 28 74 -5 4 -7 -2 -4 -12 2 -11 -6 -32 -22 -50 -30
-35 -155 -102 -192 -102 -24 0 -24 1 11 42 20 23 36 47 36 55 0 17 39 42 92
58 24 8 35 14 25 14 -10 1 -34 -6 -54 -14 -44 -19 -43 -19 -44 3 0 9 -8 -4
-17 -31 -30 -84 -92 -143 -108 -102 -4 8 -10 13 -14 10 -15 -9 -45 89 -45 147
0 94 37 101 76 14 17 -38 17 -41 -2 -77 -10 -21 -19 -46 -19 -56 1 -10 7 -1
14 20 8 20 19 44 26 52 6 8 9 19 5 25 -4 6 -3 9 2 8 4 -1 18 3 31 10 12 7 28
10 35 6 9 -5 9 -4 1 5 -8 9 -17 9 -39 -1 -25 -11 -29 -10 -39 6 -18 31 -57 76
-66 76 -4 0 -13 -6 -19 -14z m134 -335 c3 -5 1 -12 -5 -16 -5 -3 -10 1 -10 9
0 18 6 21 15 7z"/>
<path d="M4533 2605 c0 -22 2 -30 4 -17 2 12 2 30 0 40 -3 9 -5 -1 -4 -23z"/>
<path d="M3473 2595 c0 -22 2 -30 4 -17 2 12 2 30 0 40 -3 9 -5 -1 -4 -23z"/>
<path d="M2403 2579 c-18 -18 -16 -37 7 -66 11 -14 20 -21 20 -16 0 6 -7 16
-15 23 -20 17 -19 49 2 57 15 6 83 -5 128 -21 11 -4 7 0 -8 9 -38 22 -118 30
-134 14z"/>
<path d="M5083 2579 c-18 -18 -16 -37 7 -66 11 -14 20 -21 20 -16 0 6 -7 16
-15 23 -20 17 -19 49 2 57 15 6 83 -5 128 -21 11 -4 7 0 -8 9 -38 22 -118 30
-134 14z"/>
<path d="M4523 2525 c0 -22 2 -30 4 -17 2 12 2 30 0 40 -3 9 -5 -1 -4 -23z"/>
<path d="M3483 2515 c0 -22 2 -30 4 -17 2 12 2 30 0 40 -3 9 -5 -1 -4 -23z"/>
<path d="M2440 2484 c0 -2 18 -15 40 -29 49 -31 51 -53 10 -103 -16 -20 -31
-48 -32 -61 -4 -32 23 -48 54 -33 21 10 21 10 -8 5 -18 -3 -34 0 -38 6 -20 32
75 140 125 142 17 0 11 4 -18 13 -23 8 -62 25 -87 39 -25 14 -46 24 -46 21z
m114 -75 c-8 -14 -24 -10 -24 6 0 9 6 12 15 9 8 -4 12 -10 9 -15z"/>
<path d="M5120 2484 c0 -2 18 -15 40 -29 49 -31 51 -53 10 -103 -16 -20 -31
-48 -32 -61 -4 -32 23 -48 54 -33 21 10 21 10 -8 5 -18 -3 -34 0 -38 6 -20 32
75 140 125 142 17 0 11 4 -18 13 -23 8 -62 25 -87 39 -25 14 -46 24 -46 21z
m114 -75 c-8 -14 -24 -10 -24 6 0 9 6 12 15 9 8 -4 12 -10 9 -15z"/>
<path d="M2875 2366 c10 -14 19 -26 22 -26 7 0 -17 39 -28 46 -6 3 -3 -5 6
-20z"/>
<path d="M5555 2366 c10 -14 19 -26 22 -26 7 0 -17 39 -28 46 -6 3 -3 -5 6
-20z"/>
<path d="M2901 2314 c0 -11 3 -14 6 -6 3 7 2 16 -1 19 -3 4 -6 -2 -5 -13z"/>
<path d="M5581 2314 c0 -11 3 -14 6 -6 3 7 2 16 -1 19 -3 4 -6 -2 -5 -13z"/>
<path d="M2896 2274 c-5 -13 -14 -15 -44 -11 -25 5 -32 3 -22 -3 23 -14 56
-12 70 5 7 9 11 18 8 21 -3 3 -8 -3 -12 -12z"/>
<path d="M5576 2274 c-5 -13 -14 -15 -44 -11 -25 5 -32 3 -22 -3 23 -14 56
-12 70 5 7 9 11 18 8 21 -3 3 -8 -3 -12 -12z"/>
<path d="M811 2190 c-21 -97 -10 -256 19 -284 9 -8 9 -4 0 14 -18 34 -25 195
-11 259 6 30 10 56 7 58 -2 2 -9 -19 -15 -47z"/>
<path d="M3500 2225 c-6 -8 -10 -19 -8 -24 1 -6 8 1 15 14 13 28 11 31 -7 10z"/>
<path d="M4523 2165 c0 -22 2 -30 4 -17 2 12 2 30 0 40 -3 9 -5 -1 -4 -23z"/>
<path d="M837 2118 c-3 -35 -3 -66 1 -70 4 -4 8 24 10 63 4 86 -3 91 -11 7z"/>
<path d="M3483 2145 c0 -22 2 -30 4 -17 2 12 2 30 0 40 -3 9 -5 -1 -4 -23z"/>
<path d="M4533 2085 c0 -22 2 -30 4 -17 2 12 2 30 0 40 -3 9 -5 -1 -4 -23z"/>
<path d="M3473 2065 c0 -22 2 -30 4 -17 2 12 2 30 0 40 -3 9 -5 -1 -4 -23z"/>
<path d="M4523 2005 c0 -22 2 -30 4 -17 2 12 2 30 0 40 -3 9 -5 -1 -4 -23z"/>
<path d="M3483 1985 c0 -22 2 -30 4 -17 2 12 2 30 0 40 -3 9 -5 -1 -4 -23z"/>
<path d="M3850 1349 c0 -8 79 -24 85 -17 2 2 -16 8 -40 14 -25 6 -45 7 -45 3z"/>
<path d="M4167 1354 c-3 -4 -21 -10 -39 -15 l-33 -8 35 2 c19 1 36 -2 38 -8 4
-13 -32 -23 -90 -24 -26 -1 -49 -5 -52 -9 -7 -12 134 5 150 19 10 8 11 15 4
24 -5 6 -7 15 -3 18 3 4 4 7 1 7 -2 0 -7 -3 -11 -6z"/>
<path d="M1293 1323 c20 -2 54 -2 75 0 20 2 3 4 -38 4 -41 0 -58 -2 -37 -4z"/>
<path d="M3850 1317 c14 -15 164 -42 155 -27 -3 4 -34 10 -71 13 -36 4 -74 12
-83 19 -14 11 -14 10 -1 -5z"/>
<path d="M3983 1323 c20 -2 54 -2 75 0 20 2 3 4 -38 4 -41 0 -58 -2 -37 -4z"/>
<path d="M6643 1323 c20 -2 54 -2 75 0 20 2 3 4 -38 4 -41 0 -58 -2 -37 -4z"/>
<path d="M1182 1304 c3 -3 38 -8 77 -13 39 -4 68 -4 64 0 -9 8 -148 21 -141
13z"/>
<path d="M6532 1304 c3 -3 38 -8 77 -13 39 -4 68 -4 64 0 -9 8 -148 21 -141
13z"/>
<path d="M442 658 c-5 -7 -12 -29 -15 -48 -6 -34 -6 -34 7 5 18 57 44 54 75
-9 23 -46 23 -49 8 -76 -9 -15 -20 -45 -25 -66 -10 -48 -35 -54 -113 -25 -30
11 -46 14 -37 7 10 -7 19 -25 20 -39 2 -25 4 -26 25 -12 12 8 43 15 69 15 43
0 46 -2 41 -22 -6 -21 -5 -22 8 -5 12 17 14 17 29 -5 33 -47 9 -194 -31 -186
-41 8 -58 113 -25 152 9 11 -1 5 -22 -13 -47 -40 -125 -77 -136 -64 -4 4 -10
17 -13 28 -4 16 -5 14 -6 -6 -2 -39 25 -44 84 -14 29 14 54 25 57 25 3 0 8
-19 11 -41 7 -52 39 -89 65 -73 9 6 24 32 33 58 21 63 34 70 78 40 20 -13 42
-24 51 -24 8 0 -4 10 -28 21 -23 12 -58 40 -78 63 l-35 41 39 12 c22 6 50 16
62 23 19 10 26 8 54 -16 l31 -29 -27 29 -26 29 21 18 c12 10 -3 6 -33 -10 -30
-16 -73 -33 -95 -36 l-40 -8 30 34 30 34 -31 -27 c-40 -37 -54 -35 -54 4 0 41
36 115 66 134 43 29 57 -5 29 -74 -13 -33 -13 -35 0 -18 8 11 15 23 15 28 0
12 71 45 113 53 33 6 38 4 46 -16 10 -24 10 -24 10 -2 1 40 -45 39 -141 -2
-14 -5 -18 -2 -18 13 0 31 -24 46 -51 31 -24 -12 -24 -13 -72 56 -20 27 -39
32 -55 13z m-50 -243 c0 -5 -5 -11 -11 -13 -6 -2 -11 4 -11 13 0 9 5 15 11 13
6 -2 11 -8 11 -13z m187 -89 c9 -10 8 -15 -4 -20 -10 -4 -15 1 -15 14 0 24 4
25 19 6z"/>
<path d="M6386 648 c-9 -12 -16 -37 -16 -55 0 -38 -2 -38 -60 -18 -75 27 -130
16 -130 -25 0 -17 45 -63 98 -99 39 -27 42 -58 8 -90 -34 -32 -52 -79 -37 -94
10 -9 11 -8 6 5 -9 23 17 69 60 107 28 24 45 31 79 31 53 0 60 -7 40 -39 -13
-23 -12 -23 9 3 l25 29 16 -31 c26 -50 15 -144 -20 -173 -14 -11 -19 -10 -34
8 -23 28 -34 101 -19 119 19 23 -6 16 -27 -7 -10 -12 -37 -30 -59 -40 -22 -10
-33 -19 -25 -19 8 0 30 9 49 21 37 22 51 15 51 -28 0 -12 11 -34 24 -50 24
-27 24 -28 45 -9 12 11 26 36 31 56 15 55 33 67 65 42 69 -54 136 -49 134 11
l-1 32 -7 -29 c-9 -45 -30 -52 -82 -28 -24 12 -55 29 -69 39 -13 10 -21 13
-17 6 4 -6 2 -15 -4 -18 -7 -5 -10 1 -7 17 1 14 -3 33 -11 42 -17 20 -19 18
51 43 42 15 60 17 68 9 8 -8 10 -7 5 4 -4 11 9 27 39 49 55 41 74 74 56 96 -7
8 -22 15 -34 14 -19 -1 -18 -2 4 -8 14 -4 26 -14 28 -22 7 -37 -124 -129 -207
-145 l-33 -7 35 46 c20 26 38 55 42 66 3 12 25 26 55 37 27 10 48 20 45 22 -2
3 -21 -2 -42 -10 -21 -9 -44 -13 -50 -11 -7 3 -13 -3 -13 -13 0 -26 -47 -102
-71 -115 -49 -26 -47 47 3 121 31 45 56 60 68 40 7 -10 10 -11 10 -2 0 18 -28
26 -44 13 -17 -14 -44 -5 -51 19 -3 10 -12 23 -19 29 -7 6 -3 -9 10 -34 l23
-46 -23 -52 c-13 -29 -26 -60 -30 -71 -19 -55 -243 58 -234 118 3 18 10 21 53
21 73 -1 125 -30 142 -80 7 -22 17 -43 22 -48 5 -5 0 16 -10 45 -25 72 -25
132 1 158 11 11 16 20 11 20 -6 0 -17 -10 -25 -22z m-36 -233 c0 -2 -7 -5 -15
-9 -9 -3 -15 0 -15 9 0 9 6 12 15 9 8 -4 15 -7 15 -9z"/>
<path d="M243 579 c-7 -7 -13 -19 -13 -25 0 -17 47 -72 73 -86 11 -6 1 8 -22
30 -58 55 -53 77 15 77 76 -1 129 -28 142 -74 6 -20 18 -45 27 -56 10 -13 8
-5 -5 25 -11 25 -20 58 -20 75 0 22 -3 26 -11 18 -9 -9 -19 -8 -42 3 -41 22
-129 29 -144 13z"/>
<path d="M739 493 l-24 -28 28 24 c25 23 32 31 24 31 -2 0 -14 -12 -28 -27z"/>
<path d="M6650 386 c0 -2 8 -10 18 -17 15 -13 16 -12 3 4 -13 16 -21 21 -21
13z"/>
<path d="M325 344 c-9 -15 -12 -23 -6 -20 11 7 35 46 28 46 -3 0 -12 -12 -22
-26z"/>
<path d="M731 350 c14 -31 19 -36 19 -24 0 6 -7 19 -16 30 -14 18 -14 18 -3
-6z"/>
<path d="M720 265 c-14 -8 -20 -14 -14 -15 5 0 19 7 30 15 24 18 16 19 -16 0z"/>
</g>
</svg>
