<?xml version="1.0" standalone="no"?>
<!DOCTYPE svg PUBLIC "-//W3C//DTD SVG 20010904//EN"
 "http://www.w3.org/TR/2001/REC-SVG-20010904/DTD/svg10.dtd">
<svg version="1.0" xmlns="http://www.w3.org/2000/svg"
 width="859.000000pt" height="549.000000pt" viewBox="0 0 859.000000 549.000000"
 preserveAspectRatio="xMidYMid meet">

<g transform="translate(0.000000,549.000000) scale(0.100000,-0.100000)"
fill="#000000" stroke="none">
<path d="M11 2745 l3 -2735 3788 0 3788 0 0 590 0 590 500 0 500 0 0 1005 0
1005 -500 0 -500 0 0 1140 0 1140 -3791 0 -3791 0 3 -2735z m909 2511 c0 -101
2 -117 23 -146 12 -18 33 -40 47 -48 22 -12 21 -11 -3 8 -48 38 -57 69 -57
190 l0 110 195 0 195 0 0 -110 c0 -121 -9 -152 -57 -190 -24 -19 -25 -20 -3
-8 14 8 35 30 48 48 20 29 22 45 22 146 l0 114 105 0 106 0 -3 -97 c-3 -93 -4
-98 -25 -101 -21 -3 -23 -9 -23 -58 0 -51 1 -54 25 -54 l25 0 -2 -192 c-3
-192 -3 -193 -25 -196 -21 -3 -23 -9 -23 -58 0 -51 1 -54 25 -54 l25 0 -3
-182 c-2 -181 -2 -183 -24 -186 -21 -3 -23 -9 -23 -58 0 -51 1 -54 25 -54 l25
0 -2 -192 c-3 -192 -3 -193 -25 -196 -21 -3 -23 -9 -23 -58 0 -51 1 -54 25
-54 l25 0 0 -100 0 -100 295 0 295 0 0 -325 0 -325 -25 0 c-24 0 -25 -3 -25
-55 l0 -55 80 0 80 0 0 1375 0 1375 390 0 390 0 0 -633 0 -632 -41 -50 c-22
-27 -49 -63 -61 -79 l-20 -31 22 25 c12 14 39 47 61 74 l39 49 0 -116 0 -117
-49 -92 c-107 -199 -146 -357 -146 -578 1 -157 17 -258 62 -390 142 -415 503
-722 937 -796 120 -20 350 -15 466 11 107 24 277 94 377 157 99 61 251 201
323 297 61 80 139 229 173 331 45 133 61 233 62 390 0 220 -39 376 -146 579
l-49 94 0 115 0 115 39 -49 c22 -27 49 -60 61 -74 l22 -25 -20 31 c-12 16 -39
52 -61 79 l-41 50 0 632 0 633 470 0 470 0 0 -200 0 -200 303 0 303 0 69 -70
69 -69 -32 -40 c-18 -22 -32 -43 -32 -48 0 -4 12 -21 26 -38 l26 -30 -21 32
c-12 17 -21 36 -21 42 0 23 19 9 59 -44 23 -31 71 -78 106 -106 60 -47 78 -69
57 -69 -13 0 -91 57 -142 104 l-45 41 40 -43 c22 -24 64 -59 93 -79 l53 -37
22 22 c19 20 20 22 3 22 -28 0 -131 85 -180 148 -42 55 -43 59 -30 85 8 15 18
27 22 27 4 0 59 -51 121 -114 105 -105 113 -116 100 -133 -13 -17 -13 -17 4
-4 16 13 23 9 73 -40 l54 -53 0 -303 0 -303 205 0 205 0 0 -390 c0 -340 2
-390 15 -390 23 0 23 -428 0 -436 -9 -4 -15 -19 -15 -35 0 -28 1 -29 55 -29
54 0 55 0 55 30 0 17 -4 30 -10 30 -6 0 -10 80 -10 220 l0 220 455 0 455 0 0
-895 0 -895 -449 0 c-247 0 -463 3 -480 6 l-31 7 0 219 c0 204 1 219 18 216
15 -3 18 -24 22 -223 l6 -220 2 223 c1 149 5 222 13 222 6 0 9 12 7 28 -3 25
-6 27 -53 27 -45 0 -50 -2 -53 -24 -2 -15 3 -28 12 -33 14 -8 16 -38 16 -228
0 -189 -2 -220 -15 -220 -13 0 -15 -72 -15 -590 l0 -590 -3680 2 -3680 3 0
181 0 181 60 7 c119 14 286 83 365 151 17 15 4 9 -30 -13 -33 -22 -74 -47 -92
-56 -64 -32 -190 -67 -265 -73 l-78 -6 0 392 0 391 391 0 392 0 -6 -77 c-6
-76 -41 -202 -73 -266 -9 -18 -34 -59 -56 -92 -22 -34 -28 -47 -13 -30 76 88
142 259 152 393 l6 82 -377 0 -376 0 0 165 0 165 298 2 297 3 3 97 c3 91 4 97
25 100 19 3 22 9 22 53 0 44 -3 50 -22 53 -23 3 -23 4 -23 197 0 193 0 194 23
197 19 3 22 9 22 53 0 44 -3 50 -22 53 -22 3 -23 8 -23 98 l0 94 180 0 c113 0
180 4 180 10 0 6 93 10 260 10 167 0 260 -4 260 -10 0 -5 14 -10 30 -10 30 0
30 1 30 55 0 54 0 55 -30 55 -16 0 -30 -4 -30 -10 0 -6 -93 -10 -260 -10 -167
0 -260 4 -260 10 0 7 -167 10 -480 10 l-480 0 0 88 0 88 63 -4 c73 -5 97 10
97 59 0 29 1 29 56 29 30 0 78 -7 105 -16 114 -38 252 -1 316 83 24 31 28 46
28 103 0 57 -4 72 -28 103 -46 60 -107 90 -196 95 -56 3 -88 0 -121 -13 -25
-10 -71 -20 -102 -22 l-58 -5 0 30 c0 58 -6 62 -86 62 l-74 0 0 75 0 75 300 0
300 0 0 905 0 905 100 0 100 0 0 -114z m4100 -56 l0 -170 -995 0 -995 0 0 170
0 170 995 0 995 0 0 -170z m2450 -575 l0 -745 -195 0 -195 0 0 297 0 298 -252
252 -253 253 -297 0 -298 0 0 195 0 195 745 0 745 0 0 -745z m-7194 718 c13
-17 14 -17 8 0 -6 16 5 17 131 17 126 0 137 -1 131 -17 -6 -17 -5 -17 8 0 10
13 28 17 85 17 l71 0 0 -895 0 -895 -295 0 -295 0 0 895 0 895 71 0 c57 0 75
-4 85 -17z m1312 -225 c-3 -222 -4 -243 -20 -246 -17 -3 -18 14 -18 242 0 240
0 246 20 246 20 0 20 -5 18 -242z m542 -243 l0 -485 -265 0 -265 0 0 485 0
485 265 0 265 0 0 -485z m-592 243 c-2 -31 -8 -44 -20 -46 -15 -3 -18 4 -18
42 0 40 3 46 21 46 18 0 20 -5 17 -42z m3482 -268 l0 -170 -45 0 -45 0 0 125
c0 112 -2 127 -20 145 -19 19 -33 20 -385 20 -352 0 -366 -1 -385 -20 -18 -18
-20 -33 -20 -145 l0 -125 -95 0 -95 0 0 125 c0 112 -2 127 -20 145 -19 19 -33
20 -385 20 -352 0 -366 -1 -385 -20 -18 -18 -20 -33 -20 -145 l0 -125 -45 0
-45 0 0 170 0 170 995 0 995 0 0 -170z m-1116 94 c13 -12 16 -40 16 -140 l0
-124 -395 0 -395 0 0 124 c0 100 3 128 16 140 13 14 62 16 379 16 317 0 366
-2 379 -16z m1000 0 c13 -12 16 -40 16 -140 l0 -124 -395 0 -395 0 0 124 c0
100 3 128 16 140 13 14 62 16 379 16 317 0 366 -2 379 -16z m-3316 -316 c-3
-212 -5 -233 -20 -236 -17 -3 -18 13 -18 232 0 230 1 236 20 236 20 0 20 -5
18 -232z m3432 -98 l0 -140 -995 0 -995 0 0 140 0 140 995 0 995 0 0 -140z
m-3482 88 c-2 -31 -8 -44 -20 -46 -15 -3 -18 4 -18 42 0 40 3 46 21 46 18 0
20 -5 17 -42z m50 -480 c-3 -222 -4 -243 -20 -246 -17 -3 -18 14 -18 242 0
240 0 246 20 246 20 0 20 -5 18 -242z m550 -250 l-3 -493 -267 -3 -268 -2 0
495 0 495 270 0 270 0 -2 -492z m2882 -223 l0 -715 -995 0 -995 0 0 715 0 715
995 0 995 0 0 -715z m-3482 473 c-2 -31 -8 -44 -20 -46 -15 -3 -18 4 -18 42 0
40 3 46 21 46 18 0 20 -5 17 -42z m50 -500 c-3 -222 -4 -243 -20 -246 -17 -3
-18 14 -18 242 0 240 0 246 20 246 20 0 20 -5 18 -242z m2437 -698 l1005 0 0
428 0 427 36 -65 c75 -138 134 -367 134 -525 0 -323 -122 -621 -345 -841 -232
-229 -509 -344 -831 -344 -449 0 -852 249 -1048 647 -165 335 -166 706 -2
1043 l41 85 3 -427 2 -428 1005 0z m-2487 698 c-2 -31 -8 -44 -20 -46 -15 -3
-18 4 -18 42 0 40 3 46 21 46 18 0 20 -5 17 -42z m-1275 -476 c0 -144 -4 -237
-10 -243 -6 -6 -34 -9 -64 -7 l-54 3 -3 243 -2 243 66 -3 67 -3 0 -233z m420
155 c70 -41 92 -79 92 -157 0 -78 -22 -116 -93 -157 -42 -25 -56 -28 -142 -28
-86 0 -100 3 -142 28 -63 37 -91 78 -96 142 -11 129 90 209 254 202 66 -3 89
-8 127 -30z m-353 -46 c-56 -69 -53 -160 6 -229 l36 -42 -46 0 -46 0 0 155 0
155 40 0 41 0 -31 -39z m7228 -398 c-3 -198 -5 -218 -20 -221 -17 -3 -18 12
-18 217 0 215 1 221 20 221 20 0 20 -5 18 -217z m972 -678 c0 -888 0 -895 -20
-895 -20 0 -20 7 -20 895 0 888 0 895 20 895 20 0 20 -7 20 -895z m50 0 c0
-888 0 -895 -20 -895 -20 0 -20 7 -20 895 0 888 0 895 20 895 20 0 20 -7 20
-895z m-6930 480 c0 -38 -3 -45 -20 -45 -17 0 -20 7 -20 45 0 38 3 45 20 45
17 0 20 -7 20 -45z m480 0 c0 -38 -3 -45 -20 -45 -17 0 -20 7 -20 45 0 38 3
45 20 45 17 0 20 -7 20 -45z m-530 -5 c0 -19 -7 -20 -260 -20 -253 0 -260 1
-260 20 0 19 7 20 260 20 253 0 260 -1 260 -20z m5980 -50 c0 -17 -7 -20 -45
-20 -38 0 -45 3 -45 20 0 17 7 20 45 20 38 0 45 -3 45 -20z m-6922 -492 l-3
-493 -267 -3 -268 -2 0 495 0 495 270 0 270 0 -2 -492z m49 250 c-2 -223 -3
-243 -19 -246 -17 -3 -18 14 -18 242 0 235 1 246 19 246 18 0 19 -10 18 -242z
m51 0 c-2 -31 -8 -44 -20 -46 -15 -3 -18 4 -18 42 0 40 3 46 21 46 18 0 20 -5
17 -42z m-51 -500 c-2 -223 -3 -243 -19 -246 -17 -3 -18 14 -18 242 0 235 1
246 19 246 18 0 19 -10 18 -242z m51 0 c-2 -31 -8 -44 -20 -46 -15 -3 -18 4
-18 42 0 40 3 46 21 46 18 0 20 -5 17 -42z m6822 -98 c0 -17 -7 -20 -45 -20
-38 0 -45 3 -45 20 0 17 7 20 45 20 38 0 45 -3 45 -20z m-7512 -892 c-3 -365
-4 -393 -21 -396 -16 -3 -17 21 -17 392 0 390 0 396 20 396 20 0 20 -5 18
-392z"/>
<path d="M1112 5338 c-7 -7 -12 -21 -12 -32 0 -15 -14 -28 -53 -46 -60 -29
-86 -68 -68 -104 l11 -21 -5 21 c-12 47 22 87 92 108 18 6 22 2 29 -26 4 -18
9 -27 11 -20 3 6 11 12 18 12 7 0 16 -6 18 -12 3 -7 6 -1 6 15 1 33 22 35 71
7 l35 -21 -24 21 c-14 12 -37 24 -53 27 -22 4 -28 11 -28 32 0 25 -15 51 -30
51 -3 0 -11 -5 -18 -12z m28 -48 c0 -27 -4 -50 -10 -50 -5 0 -10 23 -10 50 0
28 5 50 10 50 6 0 10 -22 10 -50z"/>
<path d="M2633 5263 c15 -2 37 -2 50 0 12 2 0 4 -28 4 -27 0 -38 -2 -22 -4z"/>
<path d="M5433 5263 c15 -2 37 -2 50 0 12 2 0 4 -28 4 -27 0 -38 -2 -22 -4z"/>
<path d="M2545 5243 c-62 -32 -136 -123 -135 -165 0 -7 10 7 21 32 27 60 64
98 124 126 28 13 43 24 35 24 -8 -1 -28 -8 -45 -17z"/>
<path d="M2755 5236 c60 -28 97 -66 124 -126 11 -25 21 -39 21 -32 1 58 -124
182 -182 182 -7 0 10 -11 37 -24z"/>
<path d="M5345 5243 c-62 -32 -136 -123 -135 -165 0 -7 10 7 21 32 27 60 64
98 124 126 28 13 43 24 35 24 -8 -1 -28 -8 -45 -17z"/>
<path d="M5555 5236 c60 -28 97 -66 124 -126 11 -25 21 -39 21 -32 1 58 -124
182 -182 182 -7 0 10 -11 37 -24z"/>
<path d="M1264 5174 c0 -30 2 -33 9 -16 5 12 5 26 0 36 -7 12 -9 7 -9 -20z"/>
<path d="M1120 5186 c7 -7 13 -7 20 0 6 6 3 10 -10 10 -13 0 -16 -4 -10 -10z"/>
<path d="M2595 5166 c-17 -7 -45 -29 -62 -49 -57 -65 -56 -142 4 -208 65 -71
153 -76 224 -12 70 63 76 151 16 220 -52 59 -118 77 -182 49z m55 -9 c0 -8
-18 -21 -39 -29 -51 -21 -77 -60 -73 -115 4 -73 7 -91 14 -87 4 3 24 -5 45
-16 21 -11 47 -20 58 -20 11 0 37 9 58 20 21 11 43 18 50 14 9 -5 9 -4 1 5 -9
10 -8 20 3 43 28 56 -9 137 -72 158 -32 10 -50 40 -25 40 26 0 78 -30 103 -59
53 -63 45 -154 -18 -210 -139 -122 -337 68 -218 210 39 46 113 76 113 46z m0
-53 c0 -16 -10 -34 -26 -46 -19 -15 -24 -28 -22 -50 2 -23 -3 -34 -19 -45 -21
-14 -23 -14 -33 12 -13 35 -13 49 5 91 9 22 26 40 47 49 45 19 48 19 48 -11z
m54 12 c42 -17 70 -74 62 -122 -9 -43 -18 -48 -49 -24 -16 13 -28 17 -32 10
-4 -6 -3 -9 2 -8 4 2 19 -5 33 -14 24 -17 24 -18 5 -33 -33 -25 -80 -29 -119
-10 -20 10 -36 20 -36 24 1 13 49 41 55 31 3 -5 16 -9 28 -9 20 1 21 2 2 6
-43 11 -61 53 -33 81 28 28 70 10 81 -33 4 -19 5 -19 6 2 0 12 -10 30 -24 41
-15 12 -25 30 -25 46 0 30 0 30 44 12z"/>
<path d="M5395 5166 c-17 -7 -45 -29 -62 -49 -57 -65 -56 -142 4 -208 65 -71
153 -76 224 -12 70 63 76 151 16 220 -52 59 -118 77 -182 49z m55 -9 c0 -8
-18 -21 -39 -29 -51 -21 -77 -60 -73 -115 4 -73 7 -91 14 -87 4 3 24 -5 45
-16 21 -11 47 -20 58 -20 11 0 37 9 58 20 21 11 43 18 50 14 9 -5 9 -4 1 5 -9
10 -8 20 3 43 28 56 -9 137 -72 158 -32 10 -50 40 -25 40 26 0 78 -30 103 -59
53 -63 45 -154 -18 -210 -139 -122 -337 68 -218 210 39 46 113 76 113 46z m0
-53 c0 -16 -10 -34 -26 -46 -19 -15 -24 -28 -22 -50 2 -23 -3 -34 -19 -45 -21
-14 -23 -14 -33 12 -13 35 -13 49 5 91 9 22 26 40 47 49 45 19 48 19 48 -11z
m54 12 c42 -17 70 -74 62 -122 -9 -43 -18 -48 -49 -24 -16 13 -28 17 -32 10
-4 -6 -3 -9 2 -8 4 2 19 -5 33 -14 24 -17 24 -18 5 -33 -33 -25 -80 -29 -119
-10 -20 10 -36 20 -36 24 1 13 49 41 55 31 3 -5 16 -9 28 -9 20 1 21 2 2 6
-43 11 -61 53 -33 81 28 28 70 10 81 -33 4 -19 5 -19 6 2 0 12 -10 30 -24 41
-15 12 -25 30 -25 46 0 30 0 30 44 12z"/>
<path d="M1008 5110 c24 -20 82 -40 117 -40 35 0 93 20 117 40 20 18 17 17
-17 -2 -29 -17 -56 -23 -100 -23 -44 0 -71 6 -100 23 -34 19 -37 20 -17 2z"/>
<path d="M2403 5015 c0 -27 2 -38 4 -22 2 15 2 37 0 50 -2 12 -4 0 -4 -28z"/>
<path d="M2903 5015 c0 -27 2 -38 4 -22 2 15 2 37 0 50 -2 12 -4 0 -4 -28z"/>
<path d="M5203 5015 c0 -27 2 -38 4 -22 2 15 2 37 0 50 -2 12 -4 0 -4 -28z"/>
<path d="M5703 5015 c0 -27 2 -38 4 -22 2 15 2 37 0 50 -2 12 -4 0 -4 -28z"/>
<path d="M1035 5038 c11 -7 51 -13 90 -13 39 0 79 6 90 13 18 11 17 11 -10 5
-16 -5 -52 -8 -80 -8 -27 0 -63 3 -80 8 -27 6 -28 6 -10 -5z"/>
<path d="M2410 4952 c0 -58 124 -183 182 -182 7 0 -7 10 -32 21 -60 27 -98 64
-126 124 -13 28 -24 44 -24 37z"/>
<path d="M2881 4925 c-19 -53 -69 -105 -126 -131 -27 -13 -44 -24 -37 -24 22
0 75 31 110 64 35 33 75 101 70 117 -2 6 -9 -6 -17 -26z"/>
<path d="M5210 4952 c0 -58 124 -183 182 -182 7 0 -7 10 -32 21 -60 27 -98 64
-126 124 -13 28 -24 44 -24 37z"/>
<path d="M5681 4925 c-19 -53 -69 -105 -126 -131 -27 -13 -44 -24 -37 -24 22
0 75 31 110 64 35 33 75 101 70 117 -2 6 -9 -6 -17 -26z"/>
<path d="M2633 4763 c15 -2 37 -2 50 0 12 2 0 4 -28 4 -27 0 -38 -2 -22 -4z"/>
<path d="M5433 4763 c15 -2 37 -2 50 0 12 2 0 4 -28 4 -27 0 -38 -2 -22 -4z"/>
<path d="M2850 3872 c-80 -135 -143 -317 -170 -494 -16 -100 -7 -368 15 -468
33 -149 130 -382 186 -450 14 -17 13 -11 -6 20 -41 70 -100 197 -128 280 -50
146 -62 230 -62 430 0 200 12 284 62 430 29 86 89 215 128 278 14 23 24 42 21
42 -3 0 -23 -31 -46 -68z"/>
<path d="M5175 3900 c41 -70 100 -197 128 -280 50 -146 62 -230 62 -430 0
-200 -12 -284 -62 -430 -28 -83 -87 -210 -128 -280 -19 -31 -20 -37 -6 -20 30
36 115 212 144 300 50 147 62 231 62 430 0 199 -12 283 -62 430 -29 88 -114
264 -144 300 -14 17 -13 11 6 -20z"/>
<path d="M7932 2805 c-58 -43 -119 -109 -155 -166 -16 -24 -16 -26 6 -46 12
-12 58 -69 102 -127 77 -101 106 -126 143 -126 45 0 242 202 242 248 0 40 -17
59 -133 148 -61 47 -116 92 -120 100 -12 21 -20 18 -85 -31z m78 23 c-1 -7
-24 -29 -51 -48 -51 -35 -159 -155 -158 -174 0 -6 8 0 17 14 56 83 190 198
215 184 6 -5 53 -39 102 -77 164 -127 164 -130 21 -273 -140 -140 -142 -140
-267 24 -45 59 -89 113 -98 120 -14 11 -13 16 3 47 21 38 112 132 166 169 40
29 50 31 50 14z"/>
<path d="M2932 2383 c52 -73 205 -225 294 -290 270 -199 631 -294 955 -252
321 41 589 174 814 403 77 79 165 186 152 186 -2 0 -32 -36 -66 -80 -284 -360
-763 -557 -1212 -499 -363 47 -683 225 -900 499 -70 89 -88 105 -37 33z"/>
<path d="M7985 2039 c-11 -6 -56 -58 -100 -115 -44 -58 -89 -114 -100 -125
-19 -19 -19 -20 -1 -53 29 -53 100 -129 161 -172 49 -33 58 -37 68 -24 7 9 63
55 124 103 117 91 133 109 133 149 0 30 -77 124 -160 194 -64 54 -87 62 -125
43z m170 -103 c145 -143 144 -146 -20 -273 -118 -91 -110 -87 -148 -64 -35 21
-141 128 -169 171 -9 14 -17 20 -17 14 -1 -19 107 -139 158 -174 27 -19 50
-41 51 -47 0 -18 -6 -16 -53 16 -54 37 -111 94 -148 148 -33 47 -34 52 -16 67
8 6 51 59 96 118 125 164 125 164 266 24z"/>
<path d="M5615 1640 c39 -4 79 -10 90 -14 11 -3 7 0 -10 8 -17 9 -55 15 -90
14 l-60 -1 70 -7z"/>
<path d="M5490 1630 c-18 -12 -2 -12 25 0 13 6 15 9 5 9 -8 0 -22 -4 -30 -9z"/>
<path d="M6600 1626 c-19 -8 -63 -26 -98 -41 -34 -14 -95 -35 -135 -45 -40
-10 -62 -19 -50 -19 30 -1 178 46 236 75 67 35 124 40 188 19 30 -10 65 -25
79 -33 27 -16 220 -203 220 -212 0 -3 -214 -217 -476 -475 l-476 -468 -375
374 c-416 414 -416 415 -416 534 -1 95 28 159 102 227 43 40 48 47 22 32 -44
-26 -79 -68 -110 -134 -33 -71 -34 -173 -4 -240 16 -34 128 -152 447 -470
l426 -425 158 158 158 158 71 -56 c73 -56 115 -69 142 -43 11 11 12 0 6 -60
-4 -39 -4 -72 0 -72 37 0 285 249 285 285 0 4 -23 5 -50 2 -67 -8 -81 -2 -74
32 5 22 -5 41 -50 101 -31 40 -56 76 -56 79 0 4 83 89 185 191 l185 185 -143
143 c-153 154 -179 175 -253 197 -60 18 -98 18 -144 1z m490 -301 c18 -19 30
-38 27 -42 -8 -7 -77 55 -77 69 0 16 17 7 50 -27z m-20 -20 c18 -19 30 -38 27
-42 -8 -7 -77 55 -77 69 0 16 17 7 50 -27z m-27 -97 l-37 -38 -38 37 -38 37
37 38 37 38 38 -37 38 -37 -37 -38z m-83 -13 c18 -19 30 -38 27 -42 -8 -7 -77
55 -77 69 0 16 17 7 50 -27z m-20 -20 c18 -19 30 -38 27 -42 -8 -7 -77 55 -77
69 0 16 17 7 50 -27z m-20 -20 c18 -19 30 -38 27 -42 -8 -7 -77 55 -77 69 0
16 17 7 50 -27z m-20 -20 c18 -19 30 -38 27 -42 -8 -7 -77 55 -77 69 0 16 17
7 50 -27z m-27 -97 l-37 -38 -38 37 -38 37 37 38 37 38 38 -37 38 -37 -37 -38z
m-83 -13 c18 -19 31 -37 29 -40 -3 -2 -23 13 -44 35 -22 22 -35 40 -29 40 6 0
25 -16 44 -35z m-20 -20 c18 -19 30 -38 27 -42 -8 -7 -77 55 -77 69 0 16 17 7
50 -27z m-20 -20 c18 -19 30 -38 27 -42 -8 -7 -77 55 -77 69 0 16 17 7 50 -27z
m-20 -20 c18 -19 30 -38 27 -42 -8 -7 -77 55 -77 69 0 16 17 7 50 -27z m5 -64
c-7 -6 -75 60 -75 73 0 6 18 -7 40 -29 22 -21 37 -41 35 -44z m-22 -24 c-3 -5
-24 8 -47 30 l-41 38 38 -41 c49 -52 35 -66 -17 -17 l-41 38 38 -41 c48 -52
36 -66 -15 -17 l-38 37 27 28 27 28 38 -37 c20 -20 35 -40 31 -46z m101 -49
c31 -39 56 -75 56 -80 0 -24 -35 -70 -103 -135 -92 -90 -104 -91 -192 -22 -36
28 -65 54 -65 57 0 6 241 252 247 252 1 0 27 -32 57 -72z m-194 27 c18 -19 31
-37 29 -40 -3 -2 -23 13 -44 35 -22 22 -35 40 -29 40 6 0 25 -16 44 -35z m-20
-20 c18 -19 30 -38 27 -42 -8 -7 -77 55 -77 69 0 16 17 7 50 -27z m-20 -20
c18 -19 30 -38 27 -42 -8 -7 -77 55 -77 69 0 16 17 7 50 -27z m-20 -20 c18
-19 30 -38 27 -42 -8 -7 -77 55 -77 69 0 16 17 7 50 -27z m5 -64 c-7 -6 -75
60 -75 73 0 6 18 -7 40 -29 22 -21 37 -41 35 -44z m-42 -43 l-27 -28 -38 37
-38 37 27 28 27 28 38 -37 38 -37 -27 -28z m-73 -3 c18 -19 31 -37 29 -40 -3
-2 -23 13 -44 35 -22 22 -35 40 -29 40 6 0 25 -16 44 -35z m-20 -20 c18 -19
30 -38 27 -42 -8 -7 -77 55 -77 69 0 16 17 7 50 -27z m467 19 c22 -6 22 -7 5
-30 -20 -27 -31 -29 -57 -10 -16 12 -17 16 -6 30 15 17 24 19 58 10z m83 0 c0
-29 -225 -254 -254 -254 -23 0 9 43 107 143 96 98 147 136 147 111z m-570 -39
c18 -19 30 -38 27 -42 -8 -7 -77 55 -77 69 0 16 17 7 50 -27z m-20 -20 c18
-19 30 -38 27 -42 -8 -7 -77 55 -77 69 0 16 17 7 50 -27z m-20 -20 c18 -19 30
-38 27 -42 -8 -7 -77 55 -77 69 0 16 17 7 50 -27z m482 21 c16 -12 15 -15 -16
-45 -33 -32 -34 -33 -45 -13 -28 53 14 94 61 58z m-509 -118 l-37 -38 -38 37
-38 37 37 38 37 38 38 -37 38 -37 -37 -38z m439 56 c11 -23 9 -28 -12 -45
l-25 -18 -9 29 c-6 21 -5 34 4 45 18 21 29 19 42 -11z m-522 -69 c18 -19 30
-38 27 -42 -8 -7 -77 55 -77 69 0 16 17 7 50 -27z m-20 -20 c18 -19 30 -38 27
-42 -8 -7 -77 55 -77 69 0 16 17 7 50 -27z m-20 -20 c18 -19 30 -38 27 -42 -8
-7 -77 55 -77 69 0 16 17 7 50 -27z m-20 -20 c18 -19 30 -38 27 -42 -8 -7 -77
55 -77 69 0 16 17 7 50 -27z m-7 -77 c-16 -18 -18 -17 -50 14 -36 34 -40 47
-21 66 9 9 20 4 50 -25 36 -35 37 -38 21 -55z"/>
<path d="M7020 1265 c19 -19 36 -35 39 -35 3 0 -10 16 -29 35 -19 19 -36 35
-39 35 -3 0 10 -16 29 -35z"/>
<path d="M7000 1245 c19 -19 36 -35 39 -35 3 0 -10 16 -29 35 -19 19 -36 35
-39 35 -3 0 10 -16 29 -35z"/>
<path d="M6980 1225 c19 -19 36 -35 39 -35 3 0 -10 16 -29 35 -19 19 -36 35
-39 35 -3 0 10 -16 29 -35z"/>
<path d="M6850 1095 c19 -19 36 -35 39 -35 3 0 -10 16 -29 35 -19 19 -36 35
-39 35 -3 0 10 -16 29 -35z"/>
<path d="M6830 1075 c19 -19 36 -35 39 -35 3 0 -10 16 -29 35 -19 19 -36 35
-39 35 -3 0 10 -16 29 -35z"/>
<path d="M6810 1055 c19 -19 36 -35 39 -35 3 0 -10 16 -29 35 -19 19 -36 35
-39 35 -3 0 10 -16 29 -35z"/>
<path d="M6490 735 c19 -19 36 -35 39 -35 3 0 -10 16 -29 35 -19 19 -36 35
-39 35 -3 0 10 -16 29 -35z"/>
<path d="M6470 715 c19 -19 36 -35 39 -35 3 0 -10 16 -29 35 -19 19 -36 35
-39 35 -3 0 10 -16 29 -35z"/>
<path d="M6320 565 c19 -19 36 -35 39 -35 3 0 -10 16 -29 35 -19 19 -36 35
-39 35 -3 0 10 -16 29 -35z"/>
<path d="M6300 545 c19 -19 36 -35 39 -35 3 0 -10 16 -29 35 -19 19 -36 35
-39 35 -3 0 10 -16 29 -35z"/>
<path d="M6280 525 c19 -19 36 -35 39 -35 3 0 -10 16 -29 35 -19 19 -36 35
-39 35 -3 0 10 -16 29 -35z"/>
<path d="M6150 395 c19 -19 36 -35 39 -35 3 0 -10 16 -29 35 -19 19 -36 35
-39 35 -3 0 10 -16 29 -35z"/>
<path d="M5736 1611 c16 -16 165 -72 177 -67 8 3 6 5 -3 5 -8 1 -53 17 -99 36
-47 19 -81 31 -75 26z"/>
<path d="M5975 1526 c28 -8 70 -14 95 -14 45 1 45 1 -10 8 -30 4 -73 10 -95
13 -35 5 -33 4 10 -7z"/>
<path d="M6228 1513 c12 -2 32 -2 45 0 12 2 2 4 -23 4 -25 0 -35 -2 -22 -4z"/>
<path d="M6138 1503 c12 -2 32 -2 45 0 12 2 2 4 -23 4 -25 0 -35 -2 -22 -4z"/>
<path d="M1332 918 c-9 -9 -12 -110 -12 -394 0 -211 3 -385 8 -387 4 -3 7 171
7 386 l0 392 65 0 65 0 0 -391 c0 -254 4 -391 10 -391 6 0 10 29 10 66 l0 66
590 0 590 0 0 -66 c0 -37 4 -66 10 -66 6 0 10 137 10 391 l0 391 65 0 65 0 0
-392 c0 -215 3 -389 8 -386 4 2 7 176 7 387 0 284 -3 385 -12 394 -15 15 -120
16 -135 1 -8 -8 -13 -8 -17 0 -10 15 -568 15 -583 0 -8 -8 -13 -8 -17 0 -10
15 -568 15 -583 0 -8 -8 -13 -8 -17 0 -10 15 -119 14 -134 -1z m733 -318 l0
-315 -292 -5 -292 -5 -1 316 c0 173 3 318 7 322 3 4 135 6 292 5 l286 -3 0
-315z m602 -8 c1 -177 -1 -320 -6 -318 -5 3 -138 6 -297 6 l-289 1 3 307 c1
169 4 313 7 320 3 10 67 12 292 10 l288 -3 2 -323z"/>
<path d="M2942 918 c-9 -9 -12 -110 -12 -394 0 -211 3 -385 8 -387 4 -3 7 171
7 386 l0 392 65 0 65 0 0 -391 c0 -254 4 -391 10 -391 6 0 10 29 10 66 l0 66
290 0 290 0 0 -66 c0 -37 4 -66 10 -66 6 0 10 137 10 391 l0 391 65 0 65 0 0
-392 c0 -215 3 -389 8 -386 4 2 7 176 7 387 0 284 -3 385 -12 394 -15 15 -120
16 -135 1 -8 -8 -13 -8 -17 0 -10 15 -568 15 -583 0 -8 -8 -13 -8 -17 0 -10
15 -119 14 -134 -1z m735 -323 l2 -320 -294 0 -294 0 -1 316 c0 173 3 318 7
322 3 4 135 6 292 5 l286 -3 2 -320z"/>
<path d="M630 723 l-55 -58 58 55 c53 50 62 60 54 60 -1 0 -27 -26 -57 -57z"/>
<path d="M4200 735 c-6 -8 -10 -22 -7 -32 4 -14 5 -13 6 5 1 31 27 38 54 16
l22 -19 -19 23 c-22 26 -39 28 -56 7z"/>
<path d="M4800 735 c-6 -8 -10 -22 -7 -32 4 -14 5 -13 6 5 1 31 27 38 54 16
l22 -19 -19 23 c-22 26 -39 28 -56 7z"/>
<path d="M4274 687 c3 -10 6 -21 6 -23 0 -2 8 -4 18 -4 10 0 13 -3 6 -8 -18
-12 -54 -89 -54 -117 0 -14 -7 -28 -15 -31 -20 -8 -110 21 -160 52 l-40 25 30
-25 c17 -14 33 -26 38 -26 4 0 12 -12 17 -26 9 -23 6 -31 -25 -66 -26 -28 -35
-47 -33 -66 4 -37 37 -40 94 -8 30 17 46 21 48 13 2 -7 9 -31 15 -53 6 -23 19
-45 28 -48 15 -6 15 -4 -2 13 -10 12 -20 42 -23 71 -4 43 -1 55 19 78 13 15 3
8 -21 -14 -50 -46 -98 -74 -130 -74 -35 0 -25 45 20 94 24 26 36 46 29 48 -7
2 -10 10 -8 17 4 11 7 11 19 0 8 -8 35 -16 60 -17 25 -2 46 -8 48 -12 2 -5 9
-7 16 -4 39 15 47 -144 10 -188 l-19 -23 23 19 c12 11 25 36 28 57 8 48 34 59
70 30 15 -12 31 -21 36 -21 6 0 -11 15 -37 33 -25 17 -55 47 -67 65 l-20 32
21 0 c11 0 39 7 61 16 l41 17 34 -33 c42 -40 63 -94 45 -115 -6 -8 -24 -16
-38 -18 l-27 -4 26 -2 c14 0 34 8 43 18 24 26 8 75 -39 121 -27 26 -32 37 -23
47 6 7 -14 2 -43 -12 -30 -14 -65 -25 -78 -25 -24 0 -24 0 -5 23 19 22 19 22
-2 5 -11 -10 -28 -18 -37 -18 -41 0 -4 117 50 160 l28 22 -29 -8 c-22 -5 -33
-3 -44 12 -14 18 -14 18 -8 1z m66 -288 c0 -5 -4 -9 -10 -9 -5 0 -10 7 -10 16
0 8 5 12 10 9 6 -3 10 -10 10 -16z"/>
<path d="M4874 687 c3 -10 6 -21 6 -23 0 -2 8 -4 18 -4 10 0 13 -3 6 -8 -18
-12 -54 -89 -54 -117 0 -14 -7 -28 -15 -31 -20 -8 -110 21 -160 52 l-40 25 30
-25 c17 -14 33 -26 38 -26 4 0 12 -12 17 -26 9 -23 6 -31 -25 -66 -26 -28 -35
-47 -33 -66 4 -37 37 -40 94 -8 30 17 46 21 48 13 2 -7 9 -31 15 -53 6 -23 19
-45 28 -48 15 -6 15 -4 -2 13 -10 12 -20 42 -23 71 -4 43 -1 55 19 78 13 15 3
8 -21 -14 -50 -46 -98 -74 -130 -74 -35 0 -25 45 20 94 24 26 36 46 29 48 -7
2 -10 10 -8 17 4 11 7 11 19 0 8 -8 35 -16 60 -17 25 -2 46 -8 48 -12 2 -5 9
-7 16 -4 39 15 47 -144 10 -188 l-19 -23 23 19 c12 11 25 36 28 57 8 48 34 59
70 30 15 -12 31 -21 36 -21 6 0 -11 15 -37 33 -25 17 -55 47 -67 65 l-20 32
21 0 c11 0 39 7 61 16 l41 17 34 -33 c42 -40 63 -94 45 -115 -6 -8 -24 -16
-38 -18 l-27 -4 26 -2 c14 0 34 8 43 18 24 26 8 75 -39 121 -27 26 -32 37 -23
47 6 7 -14 2 -43 -12 -30 -14 -65 -25 -78 -25 -24 0 -24 0 -5 23 19 22 19 22
-2 5 -11 -10 -28 -18 -37 -18 -41 0 -4 117 50 160 l28 22 -29 -8 c-22 -5 -33
-3 -44 12 -14 18 -14 18 -8 1z m66 -288 c0 -5 -4 -9 -10 -9 -5 0 -10 7 -10 16
0 8 5 12 10 9 6 -3 10 -10 10 -16z"/>
<path d="M4023 672 c-7 -4 5 -7 25 -7 62 0 132 -33 148 -69 l14 -31 -6 45 c-4
25 -11 52 -16 60 -8 12 -9 12 -4 -2 8 -27 -5 -28 -64 -8 -60 21 -79 23 -97 12z"/>
<path d="M4367 656 c3 -13 -4 -45 -16 -70 -11 -26 -16 -44 -12 -42 5 3 14 19
21 35 15 36 96 75 146 69 18 -2 30 0 28 4 -8 13 -62 9 -101 -7 -46 -19 -53
-19 -53 4 0 11 -4 22 -9 25 -4 3 -6 -5 -4 -18z"/>
<path d="M4623 672 c-7 -4 5 -7 25 -7 62 0 132 -33 148 -69 l14 -31 -6 45 c-4
25 -11 52 -16 60 -8 12 -9 12 -4 -2 8 -27 -5 -28 -64 -8 -60 21 -79 23 -97 12z"/>
<path d="M4967 656 c3 -13 -4 -45 -16 -70 -11 -26 -16 -44 -12 -42 5 3 14 19
21 35 15 36 96 75 146 69 18 -2 30 0 28 4 -8 13 -62 9 -101 -7 -46 -19 -53
-19 -53 4 0 11 -4 22 -9 25 -4 3 -6 -5 -4 -18z"/>
<path d="M3991 647 c0 -11 8 -30 19 -44 11 -14 20 -21 20 -16 0 6 -6 16 -14
23 -8 6 -17 21 -19 33 -3 17 -5 18 -6 4z"/>
<path d="M4591 647 c0 -11 8 -30 19 -44 11 -14 20 -21 20 -16 0 6 -6 16 -14
23 -8 6 -17 21 -19 33 -3 17 -5 18 -6 4z"/>
<path d="M4496 581 l-40 -46 44 42 c24 23 42 44 40 46 -3 2 -23 -17 -44 -42z"/>
<path d="M5096 581 l-40 -46 44 42 c24 23 42 44 40 46 -3 2 -23 -17 -44 -42z"/>
<path d="M4210 551 c0 -6 4 -13 10 -16 6 -3 7 1 4 9 -7 18 -14 21 -14 7z"/>
<path d="M4810 551 c0 -6 4 -13 10 -16 6 -3 7 1 4 9 -7 18 -14 21 -14 7z"/>
<path d="M6950 5085 l-125 -125 145 -145 145 -145 127 127 128 128 -142 142
c-79 79 -145 143 -148 143 -3 0 -61 -56 -130 -125z m128 100 c-2 -3 53 -62
124 -132 l128 -127 -35 -36 -35 -35 -120 120 c-66 66 -120 126 -120 133 0 7
-5 10 -10 7 -8 -5 -7 -12 2 -23 12 -15 11 -16 -5 -3 -17 13 -15 17 25 58 23
23 44 43 47 43 2 0 2 -2 -1 -5z m42 -230 l135 -135 -70 -70 -69 -70 -53 52
c-51 50 -51 52 -35 74 l17 23 50 -50 c28 -27 54 -49 57 -49 4 0 -14 20 -40 44
-26 25 -43 48 -39 53 5 4 28 -13 52 -38 24 -26 46 -45 48 -43 2 2 -55 62 -127
134 l-131 129 23 23 23 23 129 -131 c72 -72 132 -128 135 -125 3 3 -54 65
-127 138 -73 73 -126 133 -118 133 13 0 13 1 0 10 -8 5 -10 10 -5 10 6 0 71
-61 145 -135z m185 -65 c25 24 45 40 45 34 0 -5 -19 -29 -43 -52 l-43 -42
-124 128 -125 127 122 -120 123 -119 45 44z m-352 72 c21 -21 34 -41 30 -45
-7 -8 -83 61 -83 75 0 17 17 7 53 -30z m-17 -23 l53 -52 -22 -18 c-22 -17 -23
-17 -74 34 -49 48 -52 52 -36 69 9 10 19 18 22 18 3 0 29 -23 57 -51z m104
-64 c18 -19 30 -38 27 -42 -8 -7 -77 55 -77 69 0 16 17 7 50 -27z m-15 -54
c-13 -13 -17 -12 -40 9 -24 23 -25 25 -9 37 15 11 21 10 41 -9 21 -19 22 -24
8 -37z"/>
<path d="M7039 5143 l-24 -28 28 24 c15 14 27 26 27 28 0 8 -8 1 -31 -24z"/>
<path d="M7110 4945 c69 -71 127 -129 130 -127 2 1 -54 60 -125 130 l-130 127
125 -130z"/>
<path d="M7070 4915 c68 -68 121 -128 117 -132 -4 -4 -65 49 -135 117 l-127
125 129 -132 c103 -105 133 -130 144 -121 11 9 -12 36 -115 140 -70 70 -130
128 -133 128 -2 0 51 -56 120 -125z"/>
<path d="M7005 4850 c10 -11 20 -20 23 -20 3 0 -3 9 -13 20 -10 11 -20 20 -23
20 -3 0 3 -9 13 -20z"/>
<path d="M393 5334 c-5 -12 -16 -15 -52 -11 l-46 5 48 -11 c34 -7 47 -15 47
-28 0 -14 -12 -17 -85 -20 -77 -4 -87 -7 -112 -32 l-28 -27 0 -598 c0 -551 1
-600 18 -632 9 -19 15 -26 12 -15 -23 76 -25 159 -23 677 l3 567 23 23 c19 20
35 24 107 27 l85 3 0 -40 c0 -23 3 -43 8 -45 4 -3 7 35 7 84 0 49 -1 89 -3 89
-1 0 -5 -7 -9 -16z"/>
<path d="M425 5261 c0 -49 3 -87 8 -84 4 2 7 22 7 45 l0 40 85 -3 c72 -3 88
-7 107 -27 l23 -23 3 -567 c2 -518 0 -601 -23 -677 -3 -11 3 -4 12 15 17 32
18 81 18 632 l0 598 -28 27 c-25 25 -35 28 -112 32 -73 3 -85 6 -85 20 0 13
13 21 48 29 l47 11 -43 -6 c-33 -4 -46 -1 -55 11 -10 13 -12 -2 -12 -73z"/>
<path d="M382 5133 c-12 -23 -5 -40 19 -53 27 -15 64 22 49 50 -13 25 -56 26
-68 3z"/>
<path d="M218 3905 c6 -11 23 -31 39 -45 l28 -25 -30 35 c-47 55 -48 56 -37
35z"/>
<path d="M581 3877 c-29 -35 -30 -38 -7 -17 24 22 52 60 44 60 -2 0 -18 -19
-37 -43z"/>
<path d="M298 3828 c9 -9 44 -13 117 -13 73 0 108 4 117 13 11 11 8 11 -15 3
-16 -6 -61 -11 -102 -11 -41 0 -86 5 -102 11 -23 8 -26 8 -15 -3z"/>
<path d="M475 3262 c-16 -11 -37 -27 -45 -38 -12 -16 -10 -15 10 2 40 35 66
44 120 44 54 0 79 -9 120 -44 l25 -21 -20 24 c-11 12 -32 29 -47 37 -39 20
-127 18 -163 -4z"/>
<path d="M440 3201 c-8 -6 -18 -7 -22 -5 -4 3 -8 -12 -8 -34 0 -23 5 -39 13
-40 6 -1 27 -5 45 -8 38 -8 82 17 82 46 0 38 -72 64 -110 41z"/>
<path d="M703 3160 c0 -25 2 -35 4 -22 2 12 2 32 0 45 -2 12 -4 2 -4 -23z"/>
<path d="M435 3091 c30 -35 69 -51 125 -51 56 0 95 16 125 51 l20 24 -25 -21
c-41 -35 -66 -44 -120 -44 -54 0 -79 9 -120 44 l-25 21 20 -24z"/>
</g>
</svg>
