<?xml version="1.0" standalone="no"?>
<!DOCTYPE svg PUBLIC "-//W3C//DTD SVG 20010904//EN"
 "http://www.w3.org/TR/2001/REC-SVG-20010904/DTD/svg10.dtd">
<svg version="1.0" xmlns="http://www.w3.org/2000/svg"
 width="1100.000000pt" height="850.000000pt" viewBox="0 0 1100.000000 850.000000"
 preserveAspectRatio="xMidYMid meet">

<g transform="translate(0.000000,850.000000) scale(0.100000,-0.100000)"
fill="#000000" stroke="none">
<path d="M0 5330 l0 -3170 2598 0 2599 0 7 -366 c4 -201 4 -687 0 -1080 l-7
-714 2901 0 2902 0 0 4250 0 4250 -5500 0 -5500 0 0 -3170z m2580 2765 l0
-295 -920 0 -920 0 0 -300 0 -300 -325 0 -325 0 0 595 0 595 1245 0 1245 0 0
-295z m229 278 c-11 -15 -11 -16 1 -5 10 9 71 12 230 12 159 0 220 -3 230 -12
12 -11 12 -10 1 5 -13 16 52 17 1318 17 l1331 0 2 -412 3 -413 635 0 635 0 3
413 2 412 1845 0 1845 0 0 -2919 0 -2918 -522 1 c-288 0 -1093 0 -1790 -1
l-1268 -3 0 -1225 0 -1225 -1000 0 -1000 0 0 395 0 395 376 0 377 0 -6 87 c-4
58 -16 118 -35 175 -30 89 -97 213 -129 239 -9 8 -6 -2 9 -21 79 -107 136
-258 145 -387 l6 -83 -392 0 -391 0 0 396 0 397 78 -6 c125 -10 277 -68 382
-145 19 -15 29 -18 21 -9 -46 58 -260 149 -379 163 l-62 7 0 283 0 284 -1063
0 -1064 0 -6 974 c-3 536 -3 1157 0 1380 l6 406 -1536 0 -1537 0 0 670 0 670
287 0 c252 0 289 2 305 17 21 18 24 59 6 66 -10 3 -10 9 0 26 16 27 16 58 0
64 -10 3 -10 9 0 26 16 27 16 58 0 64 -10 3 -10 9 0 26 6 11 12 29 12 40 0 11
-6 21 -12 24 -10 3 -10 9 0 26 6 11 12 29 12 40 0 11 -6 21 -12 24 -10 3 -10
9 0 26 6 11 12 29 12 40 0 11 -6 21 -12 24 -10 3 -10 9 0 26 6 11 12 29 12 40
0 11 -6 21 -12 24 -10 3 -10 9 0 26 14 25 16 61 2 61 -5 0 -10 11 -10 25 l0
25 -295 0 -295 0 0 30 0 30 320 0 320 0 0 300 0 300 918 2 917 3 3 298 2 297
116 0 c109 0 116 -1 103 -17z m3251 -3 c0 -18 -7 -20 -65 -20 -58 0 -65 2 -65
20 0 18 7 20 65 20 58 0 65 -2 65 -20z m318 -125 c2 -49 -1 -55 -144 -275 -80
-124 -150 -229 -155 -234 -5 -6 -9 120 -9 321 l0 331 153 -47 152 -47 3 -49z
m631 141 c-2 -1 -65 -22 -140 -45 l-137 -41 -172 0 -172 0 -137 41 c-75 23
-138 44 -140 45 -2 2 200 4 449 4 249 0 451 -2 449 -4z m39 -493 l-3 -168
-153 235 c-150 231 -152 236 -150 285 l3 49 150 46 150 46 3 -163 c1 -90 1
-238 0 -330z m142 477 c0 -18 -7 -20 -65 -20 -58 0 -65 2 -65 20 0 18 7 20 65
20 58 0 65 -2 65 -20z m-1130 -50 c0 -18 -7 -20 -65 -20 -58 0 -65 2 -65 20 0
18 7 20 65 20 58 0 65 -2 65 -20z m1130 0 c0 -18 -7 -20 -65 -20 -58 0 -65 2
-65 20 0 18 7 20 65 20 58 0 65 -2 65 -20z m-1130 -50 c0 -18 -7 -20 -65 -20
-58 0 -65 2 -65 20 0 18 7 20 65 20 58 0 65 -2 65 -20z m670 -25 l0 -45 -170
0 -170 0 0 45 0 45 170 0 170 0 0 -45z m460 25 c0 -18 -7 -20 -65 -20 -58 0
-65 2 -65 20 0 18 7 20 65 20 58 0 65 -2 65 -20z m-1130 -50 c0 -18 -7 -20
-65 -20 -58 0 -65 2 -65 20 0 18 7 20 65 20 58 0 65 -2 65 -20z m1130 0 c0
-18 -7 -20 -65 -20 -58 0 -65 2 -65 20 0 18 7 20 65 20 58 0 65 -2 65 -20z
m-1130 -50 c0 -18 -7 -20 -65 -20 -58 0 -65 2 -65 20 0 18 7 20 65 20 58 0 65
-2 65 -20z m832 -223 l157 -242 -245 -3 c-134 -1 -354 -1 -488 0 l-244 3 156
242 157 243 175 -1 175 0 157 -242z m298 223 c0 -18 -7 -20 -65 -20 -58 0 -65
2 -65 20 0 18 7 20 65 20 58 0 65 -2 65 -20z m-1130 -50 c0 -18 -7 -20 -65
-20 -58 0 -65 2 -65 20 0 18 7 20 65 20 58 0 65 -2 65 -20z m1130 0 c0 -18 -7
-20 -65 -20 -58 0 -65 2 -65 20 0 18 7 20 65 20 58 0 65 -2 65 -20z m-1130
-50 c0 -18 -7 -20 -65 -20 -58 0 -65 2 -65 20 0 18 7 20 65 20 58 0 65 -2 65
-20z m1130 0 c0 -18 -7 -20 -65 -20 -58 0 -65 2 -65 20 0 18 7 20 65 20 58 0
65 -2 65 -20z m-1130 -50 c0 -18 -7 -20 -65 -20 -58 0 -65 2 -65 20 0 18 7 20
65 20 58 0 65 -2 65 -20z m1130 0 c0 -18 -7 -20 -65 -20 -58 0 -65 2 -65 20 0
18 7 20 65 20 58 0 65 -2 65 -20z m-1130 -50 c0 -18 -7 -20 -65 -20 -58 0 -65
2 -65 20 0 18 7 20 65 20 58 0 65 -2 65 -20z m1130 0 c0 -18 -7 -20 -65 -20
-58 0 -65 2 -65 20 0 18 7 20 65 20 58 0 65 -2 65 -20z m-1130 -50 c0 -18 -7
-20 -65 -20 -58 0 -65 2 -65 20 0 18 7 20 65 20 58 0 65 -2 65 -20z m1130 0
c0 -18 -7 -20 -65 -20 -58 0 -65 2 -65 20 0 18 7 20 65 20 58 0 65 -2 65 -20z
m-1130 -50 c0 -18 -7 -20 -65 -20 -58 0 -65 2 -65 20 0 18 7 20 65 20 58 0 65
-2 65 -20z m1128 3 c-3 -15 -16 -19 -66 -21 -57 -3 -62 -1 -62 18 0 18 6 20
66 20 57 0 65 -2 62 -17z m-1128 -53 c0 -18 -7 -20 -65 -20 -58 0 -65 2 -65
20 0 18 7 20 65 20 58 0 65 -2 65 -20z m1128 3 c-3 -15 -16 -19 -66 -21 -57
-3 -62 -1 -62 18 0 18 6 20 66 20 57 0 65 -2 62 -17z m-1128 -53 c0 -19 -5
-21 -62 -18 -50 2 -63 6 -66 21 -3 15 5 17 62 17 60 0 66 -2 66 -20z m1128 3
c-3 -15 -16 -19 -66 -21 -57 -3 -62 -1 -62 18 0 18 6 20 66 20 57 0 65 -2 62
-17z m-1128 -53 c0 -19 -5 -21 -62 -18 -50 2 -63 6 -66 21 -3 15 5 17 62 17
60 0 66 -2 66 -20z m1128 3 c-3 -15 -16 -19 -66 -21 -57 -3 -62 -1 -62 18 0
18 6 20 66 20 57 0 65 -2 62 -17z m-1128 -93 l0 -60 -65 0 -65 0 0 60 0 60 65
0 65 0 0 -60z m50 0 c0 -53 -2 -60 -20 -60 -18 0 -20 7 -20 60 0 53 2 60 20
60 18 0 20 -7 20 -60z m50 0 c0 -53 -2 -60 -20 -60 -18 0 -20 7 -20 60 0 53 2
60 20 60 18 0 20 -7 20 -60z m50 0 c0 -53 -2 -60 -20 -60 -18 0 -20 7 -20 60
0 53 2 60 20 60 18 0 20 -7 20 -60z m50 0 c0 -53 -2 -60 -20 -60 -18 0 -20 7
-20 60 0 53 2 60 20 60 18 0 20 -7 20 -60z m50 0 c0 -53 -2 -60 -20 -60 -18 0
-20 7 -20 60 0 53 2 60 20 60 18 0 20 -7 20 -60z m50 0 c0 -53 -2 -60 -20 -60
-18 0 -20 7 -20 60 0 53 2 60 20 60 18 0 20 -7 20 -60z m50 0 c0 -53 -2 -60
-20 -60 -18 0 -20 7 -20 60 0 53 2 60 20 60 18 0 20 -7 20 -60z m50 0 c0 -53
-2 -60 -20 -60 -18 0 -20 7 -20 60 0 53 2 60 20 60 18 0 20 -7 20 -60z m50 0
c0 -53 -2 -60 -20 -60 -18 0 -20 7 -20 60 0 53 2 60 20 60 18 0 20 -7 20 -60z
m50 0 c0 -53 -2 -60 -20 -60 -18 0 -20 7 -20 60 0 53 2 60 20 60 18 0 20 -7
20 -60z m40 0 c0 -47 -3 -60 -15 -60 -12 0 -15 13 -15 60 0 47 3 60 15 60 12
0 15 -13 15 -60z m50 0 c0 -53 -2 -60 -20 -60 -18 0 -20 7 -20 60 0 53 2 60
20 60 18 0 20 -7 20 -60z m50 0 c0 -53 -2 -60 -20 -60 -18 0 -20 7 -20 60 0
53 2 60 20 60 18 0 20 -7 20 -60z m50 0 c0 -53 -2 -60 -20 -60 -18 0 -20 7
-20 60 0 53 2 60 20 60 18 0 20 -7 20 -60z m50 0 c0 -53 -2 -60 -20 -60 -18 0
-20 7 -20 60 0 53 2 60 20 60 18 0 20 -7 20 -60z m50 0 c0 -53 -2 -60 -20 -60
-18 0 -20 7 -20 60 0 53 2 60 20 60 18 0 20 -7 20 -60z m50 0 c0 -53 -2 -60
-20 -60 -18 0 -20 7 -20 60 0 53 2 60 20 60 18 0 20 -7 20 -60z m50 0 c0 -53
-2 -60 -20 -60 -18 0 -20 7 -20 60 0 53 2 60 20 60 18 0 20 -7 20 -60z m50 0
c0 -53 -2 -60 -20 -60 -18 0 -20 7 -20 60 0 53 2 60 20 60 18 0 20 -7 20 -60z
m50 0 c0 -53 -2 -60 -20 -60 -18 0 -20 7 -20 60 0 53 2 60 20 60 18 0 20 -7
20 -60z m140 0 l0 -60 -65 0 -65 0 0 60 0 60 65 0 65 0 0 -60z m-6505 -877
l-1 -368 -292 -3 -292 -2 0 370 0 370 293 0 292 0 0 -367z m22 295 c-3 -8 -6
-5 -6 6 -1 11 2 17 5 13 3 -3 4 -12 1 -19z m0 -90 c-3 -8 -6 -5 -6 6 -1 11 2
17 5 13 3 -3 4 -12 1 -19z m0 -90 c-3 -8 -6 -5 -6 6 -1 11 2 17 5 13 3 -3 4
-12 1 -19z m0 -90 c-3 -8 -6 -5 -6 6 -1 11 2 17 5 13 3 -3 4 -12 1 -19z m0
-90 c-3 -8 -6 -5 -6 6 -1 11 2 17 5 13 3 -3 4 -12 1 -19z m0 -90 c-3 -8 -6 -5
-6 6 -1 11 2 17 5 13 3 -3 4 -12 1 -19z m0 -90 c-3 -8 -6 -5 -6 6 -1 11 2 17
5 13 3 -3 4 -12 1 -19z m0 -90 c-3 -8 -6 -5 -6 6 -1 11 2 17 5 13 3 -3 4 -12
1 -19z m2363 -1728 l0 -230 -381 0 -382 0 7 -72 c18 -192 109 -383 242 -508
47 -44 47 -43 -7 15 -133 144 -206 304 -225 488 l-7 67 397 0 396 0 0 -395 0
-395 -37 -1 c-21 -1 -29 -4 -18 -6 20 -4 20 -11 17 -693 l-2 -690 -1480 0
-1480 0 0 1325 0 1325 1480 0 1480 0 0 -230z m90 -635 c0 -388 0 -395 -20
-395 -20 0 -20 7 -20 395 0 388 0 395 20 395 20 0 20 -7 20 -395z m7480 -1525
c0 -20 -7 -20 -395 -20 -388 0 -395 0 -395 20 0 20 7 20 395 20 388 0 395 0
395 -20z m-4 -97 c-39 -385 -334 -680 -718 -719 l-68 -7 0 397 0 396 396 0
397 0 -7 -67z m-796 -364 l0 -372 72 7 c302 28 561 219 676 499 26 62 36 98
58 215 4 21 8 22 124 22 l120 0 0 -1170 0 -1170 -1735 0 -1735 0 0 1170 0
1170 1210 0 1210 0 0 -371z m-4582 -771 c-3 -365 -4 -393 -20 -396 -17 -3 -18
21 -18 392 0 390 0 396 20 396 20 0 20 -5 18 -392z"/>
<path d="M2764 8340 l-29 -5 -3 -238 -2 -237 310 0 310 0 0 235 c0 184 -3 237
-13 241 -18 6 -536 10 -573 4z m574 -242 l2 -228 -295 0 -295 0 0 230 0 230
293 -2 292 -3 3 -227z"/>
<path d="M5393 8243 c-7 -2 -13 -9 -13 -15 0 -6 6 -5 15 2 22 18 52 -12 68
-67 l13 -44 24 26 c32 34 50 32 50 -7 0 -88 -108 -200 -111 -115 l0 22 -9 -22
c-7 -16 -18 -23 -37 -23 -43 0 -145 53 -181 94 -17 20 -32 33 -32 28 0 -11 68
-74 103 -95 33 -21 36 -56 6 -83 -11 -10 -25 -27 -31 -37 -5 -10 13 4 39 32
45 47 53 51 96 51 25 0 49 -4 52 -10 9 -15 -71 -96 -118 -119 -23 -12 -35 -21
-27 -21 8 0 29 9 45 20 36 24 45 25 45 5 0 -28 32 -93 48 -100 21 -8 62 37 62
67 0 12 7 30 16 40 16 17 18 17 53 -3 l36 -21 -30 23 c-36 28 -85 78 -85 88 0
3 27 16 60 28 l59 21 35 -39 c62 -68 59 -126 -5 -122 l-34 2 28 -11 c23 -8 32
-7 48 8 33 30 22 72 -34 131 l-31 33 40 36 39 35 -40 -30 c-44 -33 -134 -71
-167 -71 -20 0 -19 1 5 20 14 11 35 40 47 65 18 37 29 47 73 64 29 11 46 20
39 20 -7 1 -29 -6 -49 -14 -45 -19 -43 -20 -43 10 0 29 -24 43 -44 26 -14 -12
-46 -5 -46 9 0 11 -50 70 -58 69 -4 0 -13 -3 -19 -6z m-43 -248 c0 -2 -7 -5
-15 -9 -9 -3 -15 0 -15 9 0 9 6 12 15 9 8 -4 15 -7 15 -9z m137 -52 c18 -67
-5 -173 -37 -173 -16 0 -42 48 -47 89 -5 34 -1 46 23 75 35 42 51 45 61 9z
m37 -55 c-4 -6 -10 -5 -15 3 -14 22 -10 33 6 19 8 -7 12 -17 9 -22z"/>
<path d="M7503 8243 c-7 -2 -13 -9 -13 -15 0 -6 6 -5 15 2 22 18 52 -12 68
-67 l13 -44 24 26 c32 34 50 32 50 -7 0 -88 -108 -200 -111 -115 l0 22 -9 -22
c-7 -16 -18 -23 -37 -23 -43 0 -145 53 -181 94 -17 20 -32 33 -32 28 0 -11 68
-74 103 -95 33 -21 36 -56 6 -83 -11 -10 -25 -27 -31 -37 -5 -10 13 4 39 32
45 47 53 51 96 51 25 0 49 -4 52 -10 9 -15 -71 -96 -118 -119 -23 -12 -35 -21
-27 -21 8 0 29 9 45 20 36 24 45 25 45 5 0 -28 32 -93 48 -100 21 -8 62 37 62
67 0 12 7 30 16 40 16 17 18 17 53 -3 l36 -21 -30 23 c-36 28 -85 78 -85 88 0
3 27 16 60 28 l59 21 35 -39 c62 -68 59 -126 -5 -122 l-34 2 28 -11 c23 -8 32
-7 48 8 33 30 22 72 -34 131 l-31 33 40 36 39 35 -40 -30 c-44 -33 -134 -71
-167 -71 -20 0 -19 1 5 20 14 11 35 40 47 65 18 37 29 47 73 64 29 11 46 20
39 20 -7 1 -29 -6 -49 -14 -45 -19 -43 -20 -43 10 0 29 -24 43 -44 26 -14 -12
-46 -5 -46 9 0 11 -50 70 -58 69 -4 0 -13 -3 -19 -6z m-43 -248 c0 -2 -7 -5
-15 -9 -9 -3 -15 0 -15 9 0 9 6 12 15 9 8 -4 15 -7 15 -9z m137 -52 c18 -67
-5 -173 -37 -173 -16 0 -42 48 -47 89 -5 34 -1 46 23 75 35 42 51 45 61 9z
m37 -55 c-4 -6 -10 -5 -15 3 -14 22 -10 33 6 19 8 -7 12 -17 9 -22z"/>
<path d="M5370 8177 c0 -42 -2 -43 -60 -22 -63 22 -130 18 -130 -8 0 -7 4 -7
12 1 30 30 163 -4 185 -47 9 -20 10 -14 6 40 -6 72 -13 91 -13 36z"/>
<path d="M7480 8177 c0 -42 -2 -43 -60 -22 -63 22 -130 18 -130 -8 0 -7 4 -7
12 1 30 30 163 -4 185 -47 9 -20 10 -14 6 40 -6 72 -13 91 -13 36z"/>
<path d="M5685 8153 c11 -3 26 -12 33 -21 6 -9 12 -11 12 -6 0 17 -23 34 -44
33 -21 -1 -21 -1 -1 -6z"/>
<path d="M7795 8153 c11 -3 26 -12 33 -21 6 -9 12 -11 12 -6 0 17 -23 34 -44
33 -21 -1 -21 -1 -1 -6z"/>
<path d="M5450 8089 c-6 -11 -10 -25 -8 -30 2 -5 8 4 15 21 13 34 9 40 -7 9z"/>
<path d="M7560 8089 c-6 -11 -10 -25 -8 -30 2 -5 8 4 15 21 13 34 9 40 -7 9z"/>
<path d="M5391 8065 c0 -5 6 -21 14 -35 8 -14 14 -20 14 -15 0 6 -6 21 -14 35
-8 14 -14 21 -14 15z"/>
<path d="M7501 8065 c0 -5 6 -21 14 -35 8 -14 14 -20 14 -15 0 6 -6 21 -14 35
-8 14 -14 21 -14 15z"/>
<path d="M5241 7869 c-1 -19 26 -45 36 -35 3 3 1 6 -6 6 -6 0 -16 10 -21 23
-6 15 -9 17 -9 6z"/>
<path d="M7351 7869 c-1 -19 26 -45 36 -35 3 3 1 6 -6 6 -6 0 -16 10 -21 23
-6 15 -9 17 -9 6z"/>
<path d="M2740 7843 c0 -5 137 -8 304 -8 167 0 302 3 299 8 -2 4 -139 7 -304
7 -164 0 -299 -3 -299 -7z"/>
<path d="M2740 7815 c-1 -31 26 -35 232 -35 132 0 208 -4 208 -10 0 -5 18 -10
40 -10 22 0 40 5 40 10 0 6 13 10 28 10 29 0 52 16 52 35 0 5 -5 2 -11 -7 -9
-17 -34 -18 -289 -18 -255 0 -280 1 -289 18 -6 9 -11 12 -11 7z m498 -42 c-10
-2 -26 -2 -35 0 -10 3 -2 5 17 5 19 0 27 -2 18 -5z"/>
<path d="M9460 6135 l0 -1505 505 0 505 0 0 1505 0 1505 -505 0 -505 0 0
-1505z m484 1489 c13 -5 16 -25 16 -120 l0 -114 -232 1 -233 0 225 114 c124
63 222 114 217 114 -4 1 -111 -51 -237 -114 l-230 -115 0 120 0 120 229 0
c126 0 236 -3 245 -6z m516 -114 l0 -120 -230 115 c-126 63 -233 115 -237 114
-5 0 93 -51 217 -114 l225 -114 -232 0 -233 -1 0 114 c0 82 4 116 13 119 6 3
117 6 245 6 l232 1 0 -120z m-500 -250 l0 -120 -245 0 -245 0 0 120 0 120 245
0 245 0 0 -120z m500 0 l0 -120 -245 0 -245 0 0 120 0 120 245 0 245 0 0 -120z
m-500 -250 l0 -120 -245 0 -245 0 0 120 0 120 245 0 245 0 0 -120z m500 0 l0
-120 -245 0 -245 0 0 120 0 120 245 0 245 0 0 -120z m-500 -250 l0 -120 -245
0 -245 0 0 120 0 120 245 0 245 0 0 -120z m500 0 l0 -120 -245 0 -245 0 0 120
0 120 245 0 245 0 0 -120z m-500 -250 l0 -120 -245 0 -245 0 0 120 0 120 245
0 245 0 0 -120z m500 0 l0 -120 -245 0 -245 0 0 120 0 120 245 0 245 0 0 -120z
m-500 -250 l0 -120 -245 0 -245 0 0 120 0 120 245 0 245 0 0 -120z m500 0 l0
-120 -245 0 -245 0 0 120 0 120 245 0 245 0 0 -120z m-500 -250 l0 -120 -245
0 -245 0 0 120 0 120 245 0 245 0 0 -120z m500 0 l0 -120 -245 0 -245 0 0 120
0 120 245 0 245 0 0 -120z m-500 -250 l0 -120 -245 0 -245 0 0 120 0 120 245
0 245 0 0 -120z m500 0 l0 -120 -245 0 -245 0 0 120 0 120 245 0 245 0 0 -120z
m-500 -250 l0 -120 -245 0 -245 0 0 120 0 120 245 0 245 0 0 -120z m500 0 l0
-120 -245 0 -245 0 0 120 0 120 245 0 245 0 0 -120z m-500 -250 l0 -120 -245
0 -245 0 0 120 0 120 245 0 245 0 0 -120z m500 0 l0 -120 -245 0 -245 0 0 120
0 120 245 0 245 0 0 -120z m-500 -250 l0 -120 -245 0 -245 0 0 120 0 120 245
0 245 0 0 -120z m500 0 l0 -120 -245 0 -245 0 0 120 0 120 245 0 245 0 0 -120z
m-500 -250 l0 -120 -245 0 -245 0 0 120 0 120 245 0 245 0 0 -120z m500 0 l0
-120 -245 0 -245 0 0 120 0 120 245 0 245 0 0 -120z"/>
<path d="M1885 7283 c-49 -8 -49 -18 4 -62 l51 -43 -30 -25 c-17 -13 -30 -31
-30 -39 0 -11 -31 -14 -175 -14 l-175 0 0 -165 c0 -91 -1 -241 -1 -335 0 -93
1 -246 1 -340 l0 -170 170 0 c135 0 170 -3 170 -13 0 -16 42 -57 58 -57 7 0
12 -4 12 -8 0 -12 -34 -42 -47 -42 -5 0 -20 -11 -33 -25 -22 -23 -22 -25 -4
-32 31 -13 361 -10 374 3 8 8 -2 22 -39 53 l-51 43 30 25 c17 13 30 31 30 39
0 11 25 14 135 14 105 0 135 -3 135 -13 0 -16 42 -57 58 -57 7 0 12 -4 12 -8
0 -12 -34 -42 -47 -42 -5 0 -20 -11 -33 -25 -22 -23 -22 -25 -4 -32 31 -13
361 -10 374 3 8 8 -2 22 -39 53 l-51 43 30 25 c17 13 30 31 30 39 0 11 31 14
175 14 l175 0 0 165 c0 91 1 242 1 335 0 94 -1 247 -1 340 l0 170 -170 0
c-135 0 -170 3 -170 13 0 16 -42 57 -58 57 -7 0 -12 4 -12 8 0 12 34 42 47 42
5 0 20 11 33 25 22 23 22 25 4 32 -31 13 -361 10 -374 -3 -8 -8 2 -22 39 -53
l51 -43 -30 -25 c-17 -13 -30 -31 -30 -39 0 -11 -25 -14 -135 -14 -105 0 -135
3 -135 13 0 16 -42 57 -58 57 -7 0 -12 4 -12 8 0 12 34 42 47 42 5 0 20 11 32
24 17 18 19 26 10 32 -14 8 -298 15 -344 7z m332 -16 c4 -4 0 -13 -8 -21 -10
-9 -35 -11 -91 -7 -43 3 -113 3 -155 0 -62 -4 -82 -2 -97 10 -17 15 -17 16 15
23 44 8 326 4 336 -5z m600 0 c4 -4 0 -13 -8 -21 -10 -9 -35 -11 -91 -7 -43 3
-113 3 -155 0 -62 -4 -82 -2 -97 10 -17 15 -17 16 15 23 44 8 326 4 336 -5z
m-739 -42 c1 -1 -2 -14 -7 -29 -14 -36 -58 -36 -71 0 -6 14 -10 27 -10 29 0
11 74 11 88 0z m600 0 c1 -1 -2 -14 -7 -29 -14 -36 -58 -36 -71 0 -6 14 -10
27 -10 29 0 11 74 11 88 0z m-694 -11 c18 -47 -11 -60 -51 -22 -31 29 -29 38
11 38 22 0 36 -6 40 -16z m176 9 c0 -15 -45 -53 -62 -53 -18 0 -23 16 -12 44
6 16 74 24 74 9z m424 -9 c18 -47 -11 -60 -51 -22 -31 29 -29 38 11 38 22 0
36 -6 40 -16z m176 9 c0 -15 -45 -53 -62 -53 -18 0 -23 16 -12 44 6 16 74 24
74 9z m-578 -80 c42 -38 26 -43 -137 -43 -162 0 -173 3 -138 42 14 15 33 18
136 18 98 0 124 -3 139 -17z m600 0 c42 -38 26 -43 -137 -43 -162 0 -173 3
-138 42 14 15 33 18 136 18 98 0 124 -3 139 -17z m358 -548 l0 -495 -795 0
-795 0 0 495 0 495 795 0 795 0 0 -495z m-950 -517 c0 -6 -7 -20 -17 -30 -14
-15 -33 -18 -136 -18 -98 0 -124 3 -139 17 -42 38 -26 43 137 43 112 0 155 -3
155 -12z m600 0 c0 -6 -7 -20 -17 -30 -14 -15 -33 -18 -136 -18 -98 0 -124 3
-139 17 -42 38 -26 43 137 43 112 0 155 -3 155 -12z m-790 -72 c0 -33 -13 -46
-46 -46 -40 0 -42 6 -12 37 24 26 58 31 58 9z m80 -12 c13 -33 13 -32 -12 -37
-13 -3 12 -5 54 -4 60 1 82 -2 94 -15 15 -15 10 -17 -62 -23 -82 -8 -281 -2
-292 9 -3 4 1 12 9 20 10 9 35 11 91 7 42 -3 74 -3 71 2 -2 4 -11 7 -19 7 -17
0 -17 1 -4 34 7 19 17 26 35 26 18 0 28 -7 35 -26z m67 4 c31 -29 29 -38 -11
-38 -33 0 -46 13 -46 46 0 21 31 17 57 -8z m453 8 c0 -33 -13 -46 -46 -46 -40
0 -42 6 -12 37 24 26 58 31 58 9z m80 -12 c13 -33 13 -32 -12 -37 -13 -3 12
-5 54 -4 60 1 82 -2 94 -15 15 -15 10 -17 -62 -23 -82 -8 -281 -2 -292 9 -3 4
1 12 9 20 10 9 35 11 91 7 42 -3 74 -3 71 2 -2 4 -11 7 -19 7 -17 0 -17 1 -4
34 7 19 17 26 35 26 18 0 28 -7 35 -26z m67 4 c31 -29 29 -38 -11 -38 -33 0
-46 13 -46 46 0 21 31 17 57 -8z"/>
<path d="M1353 6743 c-10 -72 -10 -242 1 -308 l8 -50 48 55 47 54 28 -29 27
-30 -21 29 c-18 25 -21 43 -21 133 0 57 5 114 11 126 10 21 10 21 -5 3 -9 -11
-16 -24 -16 -30 0 -5 -11 1 -25 14 -14 13 -25 29 -25 35 0 6 -11 22 -24 34
l-24 23 -9 -59z m42 -147 c-1 -111 -5 -170 -12 -177 -19 -19 -27 32 -28 166 0
137 10 202 28 187 8 -7 12 -60 12 -176z m65 57 c0 -21 -4 -23 -22 -18 -35 11
-41 20 -33 55 l7 32 24 -23 c13 -12 24 -33 24 -46z m0 -63 c0 -27 -15 -40 -46
-40 -10 0 -14 13 -14 44 l0 45 30 -10 c24 -9 30 -17 30 -39z m0 -63 c0 -13
-11 -34 -25 -47 -14 -13 -25 -19 -25 -13 0 6 -3 24 -6 41 -6 31 -7 31 49 41 4
0 7 -9 7 -22z"/>
<path d="M3269 6749 l-46 -53 -28 29 -27 30 21 -29 c18 -25 21 -43 21 -133 0
-57 -5 -114 -11 -126 -10 -21 -10 -21 5 -3 9 11 16 24 16 30 0 5 11 -1 25 -14
14 -13 25 -29 25 -35 0 -14 38 -50 45 -43 3 2 10 40 16 84 11 76 6 210 -9 283
l-7 33 -46 -53z m55 -139 c1 -141 -8 -207 -27 -192 -14 12 -16 329 -2 351 17
28 28 -32 29 -159z m-51 50 c-4 -4 -18 -11 -30 -15 -19 -5 -23 -3 -23 16 0 13
10 33 22 46 l23 24 8 -32 c5 -17 5 -35 0 -39z m7 -64 l0 -45 -30 10 c-24 9
-30 17 -30 39 0 28 10 38 43 39 14 1 17 -7 17 -43z m-6 -56 c4 -4 5 -22 1 -40
l-7 -32 -24 23 c-13 12 -24 33 -24 46 0 21 4 23 23 18 12 -4 26 -11 31 -15z"/>
<path d="M5042 6708 c-15 -15 -16 -124 -1 -134 8 -4 8 -9 0 -17 -7 -7 -11
-103 -11 -292 0 -189 4 -285 11 -292 8 -8 8 -13 0 -17 -15 -10 -14 -119 1
-134 17 -17 769 -17 786 0 15 15 16 124 1 134 -8 4 -8 9 0 17 7 7 11 103 11
292 0 189 -4 285 -11 292 -8 8 -8 13 0 17 15 10 14 119 -1 134 -9 9 -110 12
-393 12 -283 0 -384 -3 -393 -12z m783 -68 l0 -65 -390 0 -390 0 -3 54 c-2 29
-1 60 2 67 5 12 71 14 393 12 l388 -3 0 -65z m-645 -375 l5 -290 5 290 5 290
315 0 315 0 0 -290 0 -290 -390 0 -390 0 -3 280 c-1 154 0 286 3 293 3 9 23
12 67 10 l63 -3 5 -290z m645 -375 l0 -65 -390 0 -390 0 -3 54 c-2 29 -1 60 2
67 5 12 71 14 393 12 l388 -3 0 -65z"/>
<path d="M7292 6708 c-15 -15 -16 -124 -1 -134 8 -4 8 -9 0 -17 -7 -7 -11
-103 -11 -292 0 -189 4 -285 11 -292 8 -8 8 -13 0 -17 -15 -10 -14 -119 1
-134 17 -17 769 -17 786 0 15 15 16 124 1 134 -8 4 -8 9 0 17 7 7 11 103 11
292 0 189 -4 285 -11 292 -8 8 -8 13 0 17 15 10 14 119 -1 134 -9 9 -110 12
-393 12 -283 0 -384 -3 -393 -12z m783 -68 l0 -65 -390 0 -390 0 -3 54 c-2 29
-1 60 2 67 5 12 71 14 393 12 l388 -3 0 -65z m-145 -375 l5 -290 5 290 5 290
65 0 65 0 0 -290 0 -290 -390 0 -390 0 -3 280 c-1 154 0 285 3 293 3 10 71 12
317 10 l313 -3 5 -290z m145 -375 l0 -65 -390 0 -390 0 -3 54 c-2 29 -1 60 2
67 5 12 71 14 393 12 l388 -3 0 -65z"/>
<path d="M6106 6418 l1 -253 454 0 454 0 3 253 2 252 -457 0 -458 0 1 -252z
m102 215 c-3 -25 -7 -28 -45 -31 -42 -3 -43 -2 -43 27 0 30 1 31 46 31 44 0
45 -1 42 -27z m702 -8 l0 -35 50 0 50 0 -2 -172 -3 -173 -47 -3 c-45 -3 -47
-5 -50 -35 l-3 -32 -342 -3 -342 -2 -3 32 c-3 32 -5 33 -50 36 l-48 3 0 174 0
174 48 3 c45 3 47 4 50 36 l3 32 345 0 344 0 0 -35z m90 5 c0 -28 -2 -30 -40
-30 -38 0 -40 2 -40 30 0 28 2 30 40 30 38 0 40 -2 40 -30z m-792 -427 c-3
-25 -7 -28 -45 -31 -42 -3 -43 -2 -43 27 0 30 1 31 46 31 44 0 45 -1 42 -27z
m792 -3 c0 -28 -2 -30 -40 -30 -38 0 -40 2 -40 30 0 28 2 30 40 30 38 0 40 -2
40 -30z"/>
<path d="M352 6128 c-5 -7 -12 -29 -15 -48 -6 -34 -6 -34 7 5 18 57 44 54 75
-9 23 -46 23 -49 8 -76 -9 -15 -20 -45 -25 -66 -10 -48 -35 -54 -113 -25 -30
11 -46 14 -37 7 10 -7 19 -25 20 -39 2 -25 4 -26 25 -12 12 8 43 15 69 15 43
0 46 -2 41 -22 -6 -21 -5 -22 8 -5 12 17 14 17 29 -5 33 -47 9 -194 -31 -186
-41 8 -58 113 -25 152 9 11 -1 5 -22 -13 -47 -40 -125 -77 -136 -64 -4 4 -10
17 -13 28 -4 16 -5 14 -6 -6 -2 -39 25 -44 84 -14 29 14 54 25 57 25 3 0 8
-19 11 -41 7 -52 39 -89 65 -73 9 6 24 32 33 58 21 63 34 70 78 40 20 -13 42
-24 51 -24 8 0 -4 10 -28 21 -23 12 -58 40 -78 63 l-35 41 39 12 c22 6 50 16
62 23 19 10 26 8 54 -16 l31 -29 -27 29 -26 29 21 18 c12 10 -3 6 -33 -10 -30
-16 -73 -33 -95 -36 l-40 -8 30 34 30 34 -31 -27 c-40 -37 -54 -35 -54 4 0 41
36 115 66 134 43 29 57 -5 29 -74 -13 -33 -13 -35 0 -18 8 11 15 23 15 28 0
12 71 45 113 53 33 6 38 4 46 -16 10 -24 10 -24 10 -2 1 40 -45 39 -141 -2
-14 -5 -18 -2 -18 13 0 31 -24 46 -51 31 -24 -12 -24 -13 -72 56 -20 27 -39
32 -55 13z m-50 -243 c0 -5 -5 -11 -11 -13 -6 -2 -11 4 -11 13 0 9 5 15 11 13
6 -2 11 -8 11 -13z m187 -89 c9 -10 8 -15 -4 -20 -10 -4 -15 1 -15 14 0 24 4
25 19 6z"/>
<path d="M153 6049 c-7 -7 -13 -19 -13 -25 0 -17 47 -72 73 -86 11 -6 1 8 -22
30 -58 55 -53 77 15 77 76 -1 129 -28 142 -74 6 -20 18 -45 27 -56 10 -13 8
-5 -5 25 -11 25 -20 58 -20 75 0 22 -3 26 -11 18 -9 -9 -19 -8 -42 3 -41 22
-129 29 -144 13z"/>
<path d="M649 5963 l-24 -28 28 24 c25 23 32 31 24 31 -2 0 -14 -12 -28 -27z"/>
<path d="M235 5814 c-9 -15 -12 -23 -6 -20 11 7 35 46 28 46 -3 0 -12 -12 -22
-26z"/>
<path d="M641 5820 c14 -31 19 -36 19 -24 0 6 -7 19 -16 30 -14 18 -14 18 -3
-6z"/>
<path d="M630 5735 c-14 -8 -20 -14 -14 -15 5 0 19 7 30 15 24 18 16 19 -16 0z"/>
<path d="M5823 5633 c-7 -3 -13 -10 -13 -16 0 -8 4 -7 12 1 7 7 35 12 63 12
28 0 56 -5 63 -12 9 -9 12 -108 12 -383 0 -275 -3 -374 -12 -383 -16 -16 -110
-15 -127 1 -11 10 -13 9 -9 -3 4 -13 96 -15 748 -15 652 0 744 2 748 15 4 13
3 13 -11 2 -9 -8 -35 -12 -69 -10 l-53 3 0 390 0 390 53 3 c31 2 60 -2 68 -9
8 -7 14 -7 14 -1 0 5 -7 12 -15 15 -17 7 -1455 7 -1472 0z m725 -15 c19 -19
17 -601 -2 -617 -9 -8 -95 -11 -292 -9 l-279 3 -3 305 c-1 168 0 310 3 317 6
18 555 19 573 1z m600 0 c19 -19 17 -601 -2 -617 -9 -8 -95 -11 -292 -9 l-279
3 -3 305 c-1 168 0 310 3 317 6 18 555 19 573 1z m0 -650 c17 -17 15 -103 -2
-117 -9 -8 -173 -10 -592 -9 l-579 3 -3 54 c-2 29 -1 60 2 67 7 19 1155 21
1174 2z"/>
<path d="M5815 5235 c0 -203 1 -285 2 -182 2 104 2 270 0 370 -1 100 -2 16 -2
-188z"/>
<path d="M7315 5235 c0 -203 1 -285 2 -182 2 104 2 270 0 370 -1 100 -2 16 -2
-188z"/>
<path d="M4382 4718 c-5 -7 -12 -29 -15 -48 -6 -34 -6 -34 7 5 18 57 44 54 75
-9 23 -46 23 -49 8 -76 -9 -15 -20 -45 -25 -66 -10 -48 -35 -54 -113 -25 -30
11 -46 14 -37 7 10 -7 19 -25 20 -39 2 -25 4 -26 25 -12 12 8 43 15 69 15 43
0 46 -2 41 -22 -6 -21 -5 -22 8 -5 12 17 14 17 29 -5 33 -47 9 -194 -31 -186
-41 8 -58 113 -25 152 9 11 -1 5 -22 -13 -47 -40 -125 -77 -136 -64 -4 4 -10
17 -13 28 -4 16 -5 14 -6 -6 -2 -39 25 -44 84 -14 29 14 54 25 57 25 3 0 8
-19 11 -41 7 -52 39 -89 65 -73 9 6 24 32 33 58 21 63 34 70 78 40 20 -13 42
-24 51 -24 8 0 -4 10 -28 21 -23 12 -58 40 -78 63 l-35 41 39 12 c22 6 50 16
62 23 19 10 26 8 54 -16 l31 -29 -27 29 -26 29 21 18 c12 10 -3 6 -33 -10 -30
-16 -73 -33 -95 -36 l-40 -8 30 34 30 34 -31 -27 c-40 -37 -54 -35 -54 4 0 41
36 115 66 134 43 29 57 -5 29 -74 -13 -33 -13 -35 0 -18 8 11 15 23 15 28 0
12 71 45 113 53 33 6 38 4 46 -16 10 -24 10 -24 10 -2 1 40 -45 39 -141 -2
-14 -5 -18 -2 -18 13 0 31 -24 46 -51 31 -24 -12 -24 -13 -72 56 -20 27 -39
32 -55 13z m-50 -243 c0 -5 -5 -11 -11 -13 -6 -2 -11 4 -11 13 0 9 5 15 11 13
6 -2 11 -8 11 -13z m187 -89 c9 -10 8 -15 -4 -20 -10 -4 -15 1 -15 14 0 24 4
25 19 6z"/>
<path d="M8582 4718 c-5 -7 -12 -29 -15 -48 -6 -34 -6 -34 7 5 18 57 44 54 75
-9 23 -46 23 -49 8 -76 -9 -15 -20 -45 -25 -66 -10 -48 -35 -54 -113 -25 -30
11 -46 14 -37 7 10 -7 19 -25 20 -39 2 -25 4 -26 25 -12 12 8 43 15 69 15 43
0 46 -2 41 -22 -6 -21 -5 -22 8 -5 12 17 14 17 29 -5 33 -47 9 -194 -31 -186
-41 8 -58 113 -25 152 9 11 -1 5 -22 -13 -47 -40 -125 -77 -136 -64 -4 4 -10
17 -13 28 -4 16 -5 14 -6 -6 -2 -39 25 -44 84 -14 29 14 54 25 57 25 3 0 8
-19 11 -41 7 -52 39 -89 65 -73 9 6 24 32 33 58 21 63 34 70 78 40 20 -13 42
-24 51 -24 8 0 -4 10 -28 21 -23 12 -58 40 -78 63 l-35 41 39 12 c22 6 50 16
62 23 19 10 26 8 54 -16 l31 -29 -27 29 -26 29 21 18 c12 10 -3 6 -33 -10 -30
-16 -73 -33 -95 -36 l-40 -8 30 34 30 34 -31 -27 c-40 -37 -54 -35 -54 4 0 41
36 115 66 134 43 29 57 -5 29 -74 -13 -33 -13 -35 0 -18 8 11 15 23 15 28 0
12 71 45 113 53 33 6 38 4 46 -16 10 -24 10 -24 10 -2 1 40 -45 39 -141 -2
-14 -5 -18 -2 -18 13 0 31 -24 46 -51 31 -24 -12 -24 -13 -72 56 -20 27 -39
32 -55 13z m-50 -243 c0 -5 -5 -11 -11 -13 -6 -2 -11 4 -11 13 0 9 5 15 11 13
6 -2 11 -8 11 -13z m187 -89 c9 -10 8 -15 -4 -20 -10 -4 -15 1 -15 14 0 24 4
25 19 6z"/>
<path d="M4183 4639 c-7 -7 -13 -19 -13 -25 0 -17 47 -72 73 -86 11 -6 1 8
-22 30 -58 55 -53 77 15 77 76 -1 129 -28 142 -74 6 -20 18 -45 27 -56 10 -13
8 -5 -5 25 -11 25 -20 58 -20 75 0 22 -3 26 -11 18 -9 -9 -19 -8 -42 3 -41 22
-129 29 -144 13z"/>
<path d="M8383 4639 c-7 -7 -13 -19 -13 -25 0 -17 47 -72 73 -86 11 -6 1 8
-22 30 -58 55 -53 77 15 77 76 -1 129 -28 142 -74 6 -20 18 -45 27 -56 10 -13
8 -5 -5 25 -11 25 -20 58 -20 75 0 22 -3 26 -11 18 -9 -9 -19 -8 -42 3 -41 22
-129 29 -144 13z"/>
<path d="M4679 4553 l-24 -28 28 24 c25 23 32 31 24 31 -2 0 -14 -12 -28 -27z"/>
<path d="M8879 4553 l-24 -28 28 24 c15 14 27 26 27 28 0 8 -8 1 -31 -24z"/>
<path d="M4750 4395 l0 -155 1810 0 1810 0 0 155 0 155 -1810 0 -1810 0 0
-155z m1199 42 c-1 -109 -1 -109 -39 21 -12 41 -23 72 -25 70 -2 -2 7 -41 21
-88 13 -46 24 -89 24 -95 0 -9 -90 -45 -113 -45 -9 0 -59 170 -54 184 3 6 28
18 56 25 29 7 50 15 48 18 -11 10 -117 -29 -117 -43 0 -8 12 -56 27 -105 30
-102 21 -97 126 -65 l47 15 0 -39 0 -40 -590 0 -590 0 0 38 0 39 473 0 472 -1
1 85 0 84 -3 -77 -4 -78 -29 0 -28 0 -4 81 c-2 64 0 83 12 90 9 5 10 9 3 9 -6
0 -15 -5 -19 -11 -4 -8 -9 -8 -17 0 -6 6 -16 11 -22 11 -5 0 -2 -5 8 -11 14
-8 17 -24 17 -89 l0 -80 -29 0 -29 0 -4 81 c-2 64 0 83 12 90 9 5 10 9 3 9 -6
0 -15 -5 -19 -11 -4 -8 -9 -8 -17 0 -6 6 -16 11 -21 11 -6 0 -3 -5 7 -11 14
-8 17 -24 17 -89 l0 -80 -29 0 -29 0 -4 81 c-2 64 0 83 12 90 9 5 10 9 3 9 -6
0 -15 -5 -19 -11 -4 -8 -9 -8 -17 0 -6 6 -16 11 -21 11 -6 0 -3 -5 7 -11 14
-8 17 -24 17 -89 l0 -80 -29 0 -29 0 -4 81 c-2 64 0 83 12 90 9 5 10 9 3 9 -6
0 -15 -5 -19 -11 -4 -8 -9 -8 -17 0 -6 6 -16 11 -21 11 -6 0 -3 -5 7 -11 14
-8 17 -24 17 -89 l0 -80 -29 0 -29 0 -4 81 c-2 64 0 83 12 90 9 5 10 9 3 9 -6
0 -15 -5 -19 -11 -4 -8 -9 -8 -17 0 -6 6 -16 11 -21 11 -6 0 -3 -5 7 -11 14
-8 17 -24 17 -89 l0 -80 -29 0 -29 0 -4 81 c-2 64 0 83 12 90 9 5 10 9 3 9 -6
0 -15 -5 -19 -11 -4 -8 -9 -8 -17 0 -6 6 -16 11 -21 11 -6 0 -3 -5 7 -11 14
-8 17 -24 17 -89 l0 -80 -29 0 -29 0 -4 81 c-2 64 0 83 12 90 9 5 10 9 3 9 -6
0 -15 -5 -19 -11 -4 -8 -9 -8 -17 0 -6 6 -16 11 -21 11 -6 0 -3 -5 7 -11 14
-8 17 -24 17 -89 l0 -80 -29 0 -29 0 -4 81 c-2 64 0 83 12 90 9 5 10 9 3 9 -6
0 -15 -5 -19 -11 -4 -8 -9 -8 -17 0 -6 6 -16 11 -21 11 -6 0 -3 -5 7 -11 14
-8 17 -24 17 -89 l0 -80 -29 0 -29 0 -4 81 c-2 64 0 83 12 90 9 5 10 9 3 9 -6
0 -15 -5 -19 -11 -4 -8 -9 -8 -17 0 -6 6 -16 11 -21 11 -6 0 -3 -5 7 -11 14
-8 17 -24 17 -89 l0 -80 -29 0 -29 0 -4 81 c-2 64 0 83 12 90 9 5 10 9 3 9 -6
0 -15 -5 -19 -11 -4 -8 -9 -8 -17 0 -6 6 -16 11 -21 11 -6 0 -3 -5 7 -11 14
-8 17 -24 17 -89 l0 -80 -29 0 -29 0 -4 81 c-2 64 0 83 12 90 8 4 10 9 5 9 -6
0 -16 -5 -22 -11 -8 -8 -13 -8 -17 0 -4 6 -13 11 -19 11 -7 0 -4 -5 6 -11 14
-8 17 -24 17 -89 l0 -80 -30 0 -30 0 0 85 c0 61 4 85 13 86 10 0 10 2 0 6 -50
20 40 23 577 23 l590 -1 -1 -102z m1201 63 l0 -39 -47 15 c-105 32 -96 37
-126 -65 -15 -49 -27 -97 -27 -105 0 -14 106 -53 117 -43 2 3 -19 11 -48 18
-28 7 -53 19 -56 25 -5 14 45 184 54 184 23 0 113 -36 113 -45 0 -6 -11 -49
-24 -95 -14 -47 -23 -86 -21 -88 2 -2 13 29 25 70 38 130 38 130 39 21 l1
-102 -590 -1 c-392 0 -590 3 -590 10 0 5 6 10 13 11 10 0 10 2 0 6 -9 3 -13
31 -13 89 l0 84 30 0 30 0 0 -80 c0 -65 -3 -81 -17 -89 -10 -6 -13 -11 -6 -11
6 0 15 5 19 11 4 8 9 8 17 0 6 -6 16 -11 22 -11 5 0 3 5 -5 9 -12 7 -14 26
-12 90 l4 81 29 0 29 0 0 -80 c0 -65 -3 -81 -17 -89 -10 -6 -13 -11 -6 -11 6
0 15 5 19 11 4 8 9 8 17 0 6 -6 16 -11 22 -11 5 0 3 5 -5 9 -12 7 -14 26 -12
90 l4 81 29 0 29 0 0 -80 c0 -65 -3 -81 -17 -89 -10 -6 -13 -11 -6 -11 6 0 15
5 19 11 4 8 9 8 17 0 6 -6 16 -11 22 -11 5 0 3 5 -5 9 -12 7 -14 26 -12 90 l4
81 29 0 29 0 0 -80 c0 -65 -3 -81 -17 -89 -10 -6 -13 -11 -6 -11 6 0 15 5 19
11 4 8 9 8 17 0 6 -6 16 -11 22 -11 5 0 3 5 -5 9 -12 7 -14 26 -12 90 l4 81
29 0 29 0 0 -80 c0 -65 -3 -81 -17 -89 -10 -6 -13 -11 -6 -11 6 0 15 5 19 11
4 8 9 8 17 0 6 -6 16 -11 22 -11 5 0 3 5 -5 9 -12 7 -14 26 -12 90 l4 81 29 0
29 0 0 -80 c0 -65 -3 -81 -17 -89 -10 -6 -13 -11 -6 -11 6 0 15 5 19 11 4 8 9
8 17 0 6 -6 16 -11 21 -11 6 0 4 5 -4 9 -12 7 -14 26 -12 90 l4 81 29 0 29 0
0 -80 c0 -65 -3 -81 -17 -89 -10 -6 -13 -11 -6 -11 6 0 15 5 19 11 4 8 9 8 17
0 6 -6 16 -11 21 -11 6 0 4 5 -4 9 -12 7 -14 26 -12 90 l4 81 29 0 29 0 0 -80
c0 -65 -3 -81 -17 -89 -10 -6 -13 -11 -6 -11 6 0 15 5 19 11 4 8 9 8 17 0 6
-6 16 -11 21 -11 6 0 4 5 -4 9 -12 7 -14 26 -12 90 l4 81 29 0 29 0 0 -80 c0
-65 -3 -81 -17 -89 -10 -6 -13 -11 -6 -11 6 0 15 5 19 11 4 8 9 8 17 0 6 -6
16 -11 21 -11 6 0 4 5 -4 9 -12 7 -14 26 -12 90 l4 81 29 0 29 0 0 -80 c0 -65
-3 -81 -17 -89 -10 -6 -13 -11 -6 -11 6 0 15 5 19 11 4 8 9 8 17 0 6 -6 16
-11 21 -11 6 0 4 5 -4 9 -12 7 -14 26 -12 90 l4 81 29 0 29 0 0 -80 c0 -65 -3
-81 -17 -89 -10 -6 -13 -11 -6 -11 6 0 15 5 19 11 4 8 9 8 17 0 6 -6 16 -11
22 -11 5 0 3 5 -5 9 -12 7 -14 26 -12 90 l4 81 28 0 29 0 4 -77 3 -78 0 84 -1
85 -472 -1 -473 0 0 39 0 38 590 0 590 0 0 -40z m1210 -105 l0 -144 -595 -1
c-395 0 -595 3 -595 10 0 5 6 10 13 11 10 0 10 2 0 6 -9 3 -13 31 -13 89 l0
84 30 0 30 0 0 -80 c0 -65 -3 -81 -17 -89 -10 -6 -13 -11 -6 -11 6 0 15 5 19
11 4 8 9 8 17 0 6 -6 16 -11 22 -11 5 0 3 5 -5 9 -12 7 -14 26 -12 90 l4 81
29 0 29 0 0 -80 c0 -65 -3 -81 -17 -89 -10 -6 -13 -11 -6 -11 6 0 15 5 19 11
4 8 9 8 17 0 6 -6 16 -11 22 -11 5 0 3 5 -5 9 -12 7 -14 26 -12 90 l4 81 29 0
29 0 0 -80 c0 -65 -3 -81 -17 -89 -10 -6 -13 -11 -6 -11 6 0 15 5 19 11 4 8 9
8 17 0 6 -6 16 -11 22 -11 5 0 3 5 -5 9 -12 7 -14 26 -12 90 l4 81 29 0 29 0
0 -80 c0 -65 -3 -81 -17 -89 -10 -6 -13 -11 -6 -11 6 0 15 5 19 11 4 8 9 8 17
0 6 -6 16 -11 22 -11 5 0 3 5 -5 9 -12 7 -14 26 -12 90 l4 81 29 0 29 0 0 -80
c0 -65 -3 -81 -17 -89 -10 -6 -13 -11 -6 -11 6 0 15 5 19 11 4 8 9 8 17 0 6
-6 16 -11 22 -11 5 0 3 5 -5 9 -12 7 -14 26 -12 90 l4 81 29 0 29 0 0 -80 c0
-65 -3 -81 -17 -89 -10 -6 -13 -11 -6 -11 6 0 15 5 19 11 4 8 9 8 17 0 6 -6
16 -11 21 -11 6 0 4 5 -4 9 -12 7 -14 26 -12 90 l4 81 29 0 29 0 0 -80 c0 -65
-3 -81 -17 -89 -10 -6 -13 -11 -6 -11 6 0 15 5 19 11 4 8 9 8 17 0 6 -6 16
-11 21 -11 6 0 4 5 -4 9 -12 7 -14 26 -12 90 l4 81 29 0 29 0 0 -80 c0 -65 -3
-81 -17 -89 -10 -6 -13 -11 -6 -11 6 0 15 5 19 11 4 8 9 8 17 0 6 -6 16 -11
21 -11 6 0 4 5 -4 9 -12 7 -14 26 -12 90 l4 81 29 0 29 0 0 -80 c0 -65 -3 -81
-17 -89 -10 -6 -13 -11 -6 -11 6 0 15 5 19 11 4 8 9 8 17 0 6 -6 16 -11 21
-11 6 0 4 5 -4 9 -12 7 -14 26 -12 90 l4 81 29 0 29 0 0 -80 c0 -65 -3 -81
-17 -89 -10 -6 -13 -11 -6 -11 6 0 15 5 19 11 4 8 9 8 17 0 6 -6 16 -11 21
-11 6 0 4 5 -4 9 -12 7 -14 26 -12 90 l4 81 29 0 29 0 0 -80 c0 -65 -3 -81
-17 -89 -10 -6 -13 -11 -6 -11 6 0 15 5 19 11 4 8 9 8 17 0 6 -6 16 -11 22
-11 5 0 3 5 -5 9 -12 7 -14 26 -12 90 l4 81 28 0 29 0 4 -77 3 -78 0 84 -1 85
-472 -1 -473 0 0 39 0 38 595 0 595 0 0 -145z"/>
<path d="M5680 4516 c0 -2 7 -7 16 -10 8 -3 12 -2 9 4 -6 10 -25 14 -25 6z"/>
<path d="M6890 4280 c-9 -6 -10 -10 -3 -10 6 0 15 5 18 10 8 12 4 12 -15 0z"/>
<path d="M8177 4411 c-15 -50 -27 -97 -27 -105 0 -14 106 -53 117 -43 2 3 -19
11 -48 18 -28 7 -53 19 -56 25 -5 14 45 184 54 184 23 0 113 -36 113 -45 0 -6
-11 -49 -24 -95 -14 -47 -23 -86 -21 -88 2 -2 13 29 25 70 12 40 25 86 30 101
7 20 6 29 -3 32 -7 2 -34 10 -61 19 -27 9 -55 16 -61 16 -6 0 -23 -40 -38 -89z"/>
<path d="M8090 4280 c-9 -6 -10 -10 -3 -10 6 0 15 5 18 10 8 12 4 12 -15 0z"/>
<path d="M4265 4404 c-9 -15 -12 -23 -6 -20 11 7 35 46 28 46 -3 0 -12 -12
-22 -26z"/>
<path d="M4671 4410 c14 -31 19 -36 19 -24 0 6 -7 19 -16 30 -14 18 -14 18 -3
-6z"/>
<path d="M8465 4404 c-9 -15 -12 -23 -6 -20 11 7 35 46 28 46 -3 0 -12 -12
-22 -26z"/>
<path d="M8871 4410 c14 -31 19 -36 19 -24 0 6 -7 19 -16 30 -14 18 -14 18 -3
-6z"/>
<path d="M4660 4325 c-14 -8 -20 -14 -14 -15 5 0 19 7 30 15 24 18 16 19 -16
0z"/>
<path d="M8860 4325 c-14 -8 -20 -14 -14 -15 5 0 19 7 30 15 24 18 16 19 -16
0z"/>
<path d="M5820 1465 c30 -30 57 -55 59 -55 3 0 -19 25 -49 55 -30 30 -57 55
-59 55 -3 0 19 -25 49 -55z"/>
<path d="M184 7037 c-1 -18 1 -24 3 -14 6 21 17 22 34 1 9 -11 10 -20 3 -32
-15 -23 -32 -26 -37 -5 -2 10 -4 4 -3 -14 1 -34 10 -33 40 4 14 19 21 21 32
12 20 -16 13 -32 -17 -40 -16 -4 -9 -6 22 -5 29 0 44 5 41 11 -4 6 -6 19 -5
30 1 17 1 17 -4 2 -5 -18 -6 -18 -24 -1 -18 16 -18 18 -2 36 17 19 18 19 25 1
7 -16 7 -16 6 2 -2 11 1 25 5 32 5 7 1 9 -13 6 -11 -3 -20 -11 -20 -18 0 -7
-6 -18 -14 -24 -11 -9 -18 -7 -32 12 -30 37 -39 38 -40 4z"/>
<path d="M228 7063 c6 -2 18 -2 25 0 6 3 1 5 -13 5 -14 0 -19 -2 -12 -5z"/>
<path d="M493 7032 c-1 -16 2 -20 7 -12 9 15 30 5 30 -15 0 -20 -21 -30 -30
-15 -5 8 -8 4 -7 -12 2 -22 6 -24 54 -24 30 1 48 5 43 10 -4 4 -6 16 -3 25 4
12 3 13 -4 3 -8 -11 -12 -10 -22 1 -9 11 -8 17 3 26 8 7 16 8 18 4 3 -4 4 -3
2 3 -1 6 2 16 6 20 5 5 -13 9 -43 10 -48 0 -52 -2 -54 -24z m70 11 c4 -3 2
-12 -4 -20 -9 -10 -15 -10 -25 -2 -8 6 -14 15 -14 20 0 10 34 12 43 2z m1 -74
c-7 -11 -44 -12 -44 -1 0 4 5 13 12 20 13 13 42 -4 32 -19z"/>
<path d="M153 6853 c-7 -2 -13 -10 -13 -16 0 -8 4 -7 12 1 9 9 76 12 238 12
162 0 229 -3 238 -12 8 -8 12 -8 12 -1 0 6 -7 14 -16 17 -19 7 -453 7 -471 -1z"/>
<path d="M143 6755 c0 -38 2 -53 4 -32 2 20 2 52 0 70 -2 17 -4 1 -4 -38z"/>
<path d="M643 6755 c0 -38 2 -53 4 -32 2 20 2 52 0 70 -2 17 -4 1 -4 -38z"/>
<path d="M142 6670 c4 -13 40 -15 248 -15 208 0 244 2 248 15 4 12 2 13 -9 3
-10 -10 -72 -13 -239 -13 -167 0 -229 3 -239 13 -11 10 -13 9 -9 -3z"/>
<path d="M500 6528 c0 -11 5 -15 15 -12 10 4 15 0 15 -11 0 -11 -5 -15 -15
-11 -10 3 -15 -1 -15 -13 0 -15 8 -18 44 -17 36 0 42 3 38 18 -2 9 -8 16 -12
15 -4 -1 -7 3 -6 8 0 6 4 9 7 8 4 -1 9 5 11 15 4 14 -3 17 -39 17 -34 0 -43
-3 -43 -17z m51 -1 c-1 -12 -15 -9 -19 4 -3 6 1 10 8 8 6 -3 11 -8 11 -12z m9
-48 c0 -5 -10 -9 -21 -9 -18 0 -19 2 -9 15 12 15 30 12 30 -6z"/>
<path d="M210 6522 c0 -12 2 -12 17 -1 13 11 17 11 20 2 6 -17 20 -16 26 1 4
10 -4 13 -29 13 -22 -1 -34 -6 -34 -15z"/>
<path d="M230 6504 c0 -8 5 -12 10 -9 6 3 10 1 10 -4 0 -14 -13 -14 -28 1 -9
9 -12 8 -12 -5 0 -13 9 -17 35 -17 38 0 40 16 5 38 -17 10 -20 10 -20 -4z"/>
<path d="M140 4595 l0 -305 905 0 905 0 0 305 0 305 -905 0 -905 0 0 -305z
m1800 0 l0 -295 -895 0 -895 0 0 70 c0 57 4 74 20 90 11 11 20 33 20 49 0 42
10 61 31 61 17 0 19 -8 19 -81 0 -79 1 -82 34 -115 l34 -34 574 2 573 3 -578
5 -579 5 -24 28 c-21 25 -24 38 -24 107 l0 79 43 3 c34 2 42 7 42 23 0 16 -8
21 -42 23 l-43 3 -2 82 -2 82 -3 -82 c-3 -73 -6 -83 -22 -83 -22 0 -31 19 -31
61 0 16 -9 38 -20 49 -16 16 -20 33 -20 90 l0 70 895 0 895 0 0 -295z m-1766
113 c13 -65 13 -83 0 -93 -10 -7 10 -9 71 -7 74 3 85 1 85 -13 0 -14 -11 -16
-85 -13 -61 2 -81 0 -71 -7 13 -10 13 -28 0 -92 -2 -13 -9 -23 -14 -23 -5 0
-9 57 -9 135 0 78 4 135 9 135 5 0 12 -10 14 -22z"/>
<path d="M278 4819 l-33 -31 33 26 34 26 563 0 c360 0 582 -4 613 -11 78 -16
153 -66 180 -119 31 -62 31 -168 0 -230 -26 -51 -102 -103 -172 -119 -28 -6
-33 -9 -16 -10 14 0 45 9 70 20 111 50 150 108 150 224 0 117 -39 173 -156
227 l-49 23 -592 3 -592 3 -33 -32z"/>
<path d="M356 4612 c-9 -26 2 -49 24 -55 28 -7 52 15 48 44 -4 32 -63 41 -72
11z"/>
<path d="M2640 3810 c72 -65 287 -151 370 -149 14 0 -13 9 -60 18 -95 20 -215
72 -294 126 -48 34 -49 34 -16 5z"/>
<path d="M197 2833 c-4 -3 -7 -113 -7 -244 0 -271 -4 -260 87 -257 46 1 46 2
8 5 -22 2 -50 6 -62 8 l-23 5 0 240 0 239 63 4 62 3 -61 2 c-33 1 -64 -1 -67
-5z"/>
<path d="M335 2590 c0 -137 3 -250 8 -250 4 0 7 18 7 40 l0 40 64 0 c35 0 80
-7 99 -15 20 -8 51 -14 69 -14 28 1 27 2 -13 9 -96 16 -169 74 -189 150 -28
105 56 207 189 230 38 6 41 8 14 9 -18 0 -56 -8 -84 -19 -33 -13 -69 -20 -98
-18 l-46 3 -3 43 c-2 23 -6 42 -10 42 -4 0 -7 -112 -7 -250z m76 115 c-61 -70
-61 -160 -1 -229 17 -18 30 -37 30 -40 0 -4 -19 -6 -42 -4 l-43 3 -3 153 -3
152 47 0 46 0 -31 -35z"/>
<path d="M660 2780 c55 -10 93 -24 134 -51 l31 -21 -30 26 c-36 31 -106 56
-149 55 -25 -1 -22 -3 14 -9z"/>
<path d="M2703 2778 c-13 -6 -23 -15 -23 -21 0 -5 6 -4 14 2 8 7 27 16 43 21
19 6 22 8 8 8 -11 1 -30 -4 -42 -10z"/>
<path d="M2863 2783 l97 -4 -2 -192 -3 -192 -95 -6 -95 -6 100 1 100 1 3 203
2 202 -102 -2 -103 -2 98 -3z"/>
<path d="M2650 2730 c-6 -11 -8 -20 -6 -20 3 0 10 9 16 20 6 11 8 20 6 20 -3
0 -10 -9 -16 -20z"/>
<path d="M2708 2713 c-38 -42 -48 -66 -48 -123 0 -28 5 -61 11 -73 18 -34 61
-77 78 -77 10 0 6 5 -9 13 -13 7 -35 28 -47 46 -48 70 -22 193 47 228 15 8 19
13 9 13 -8 0 -27 -12 -41 -27z"/>
<path d="M2787 2730 c25 -10 63 -65 63 -92 0 -12 -10 -18 -37 -20 -30 -2 -38
-7 -38 -23 0 -16 8 -21 38 -23 30 -3 37 -7 37 -25 0 -31 -36 -86 -63 -97 -14
-5 -16 -9 -6 -9 28 -2 79 68 79 108 0 16 8 20 38 23 29 2 37 7 37 23 0 16 -8
21 -36 23 -31 3 -38 7 -42 31 -7 36 -54 91 -75 90 -12 0 -10 -3 5 -9z m33
-135 c0 -8 -9 -15 -20 -15 -11 0 -20 7 -20 15 0 8 9 15 20 15 11 0 20 -7 20
-15z m105 0 c0 -5 -21 -11 -47 -13 -39 -3 -48 0 -48 13 0 13 9 16 48 13 26 -2
47 -7 47 -13z"/>
<path d="M555 2691 c-50 -30 -68 -57 -68 -101 0 -29 7 -48 24 -66 30 -33 71
-54 101 -53 25 1 19 4 -24 13 -27 6 -88 51 -88 66 0 5 13 3 28 -2 36 -14 78
-4 92 22 24 45 -34 84 -92 62 -15 -5 -28 -7 -28 -2 0 15 61 60 88 66 44 9 48
12 22 13 -14 1 -38 -7 -55 -18z"/>
<path d="M670 2701 c46 -9 84 -35 98 -67 32 -70 -11 -138 -98 -155 -33 -6 -33
-7 -6 -8 57 -2 126 63 126 119 0 56 -69 121 -126 119 -27 -1 -27 -2 6 -8z"/>
<path d="M840 2668 c12 -20 20 -51 20 -78 0 -27 -8 -58 -20 -77 -11 -18 -17
-33 -15 -33 16 0 45 71 45 110 0 39 -29 110 -45 110 -2 0 4 -15 15 -32z"/>
<path d="M2621 2669 c-15 -44 -13 -128 5 -164 8 -16 11 -21 8 -10 -13 40 -16
135 -5 166 6 18 9 34 7 36 -2 2 -9 -10 -15 -28z"/>
<path d="M2650 2450 c6 -11 13 -20 16 -20 2 0 0 9 -6 20 -6 11 -13 20 -16 20
-2 0 0 -9 6 -20z"/>
<path d="M747 2428 c-20 -11 -58 -23 -85 -28 -36 -6 -40 -8 -16 -9 38 -1 119
25 135 45 14 17 14 17 -34 -8z"/>
<path d="M2680 2422 c0 -13 56 -35 72 -29 7 3 4 6 -7 6 -11 1 -31 8 -43 17
-12 8 -22 11 -22 6z"/>
<path d="M7975 2236 c-70 -47 -174 -145 -214 -201 l-34 -47 72 7 c47 5 71 4
71 -3 0 -6 -4 -14 -10 -17 -27 -17 -7 -65 76 -178 88 -120 108 -136 159 -123
33 8 214 182 221 213 10 40 -9 67 -122 163 -97 83 -111 91 -142 88 l-34 -4 7
68 c4 37 5 68 3 68 -2 0 -26 -15 -53 -34z m14 -45 c-19 -14 -72 -62 -117 -108
-48 -48 -92 -83 -103 -83 -19 0 -19 1 -4 23 31 44 150 160 200 193 43 30 51
32 54 17 2 -11 -9 -27 -30 -42z m10 -77 c-16 -19 -22 -18 -38 8 -12 20 -11 24
15 45 l29 23 3 -31 c2 -17 -2 -37 -9 -45z m-41 -5 c11 -18 11 -24 -4 -40 -21
-23 -34 -24 -60 -4 -19 15 -18 16 9 40 34 30 39 31 55 4z m222 -59 c112 -94
130 -115 130 -144 0 -48 -191 -226 -242 -226 -14 0 -35 12 -49 28 -51 55 -159
212 -159 230 0 27 31 63 111 132 41 35 79 60 92 60 13 0 61 -33 117 -80z
m-271 -26 c-6 -8 -29 -14 -51 -14 l-39 0 21 30 c21 29 22 30 51 14 25 -12 28
-18 18 -30z"/>
<path d="M8412 1667 c-259 -259 -472 -477 -472 -482 0 -6 192 -202 428 -437
337 -336 435 -428 465 -438 21 -7 40 -10 43 -8 2 3 -13 10 -33 16 -30 9 -118
91 -423 397 l-385 385 473 473 472 472 109 -110 c90 -91 112 -120 130 -168 29
-81 27 -114 -18 -220 -116 -269 -115 -512 1 -770 67 -149 61 -261 -20 -364
-53 -66 -122 -102 -219 -113 l-78 -9 76 4 c91 4 157 33 212 94 64 71 81 115
82 211 0 78 -3 92 -38 168 -75 163 -105 326 -87 483 13 111 31 178 80 292 22
52 40 110 40 128 0 42 -23 118 -46 156 -22 36 -295 313 -309 313 -6 0 -223
-213 -483 -473z m555 377 c-10 -10 -77 56 -77 75 0 10 16 0 42 -26 23 -23 39
-46 35 -49z m-20 -21 c-4 -3 -26 11 -50 33 l-42 39 39 -42 c51 -54 39 -69 -14
-18 -38 37 -39 40 -23 57 16 18 18 17 57 -21 22 -22 37 -44 33 -48z m-67 2
c18 -19 30 -38 26 -42 -3 -4 -26 12 -49 35 -26 26 -36 42 -26 42 8 0 30 -16
49 -35z m-25 -25 c21 -22 35 -40 29 -40 -5 0 -28 18 -49 40 -21 22 -35 40 -29
40 5 0 28 -18 49 -40z m-20 -20 c22 -22 33 -40 25 -40 -15 0 -80 58 -80 72 0
17 17 7 55 -32z m-22 -18 c21 -21 34 -41 30 -45 -7 -8 -83 61 -83 75 0 17 17
7 53 -30z m-26 -14 c18 -18 33 -39 33 -47 0 -9 -15 0 -40 24 -38 37 -49 55
-33 55 4 0 22 -14 40 -32z m13 -72 c0 -6 -18 8 -40 29 -22 21 -40 44 -40 49 0
6 18 -8 40 -29 22 -21 40 -44 40 -49z m-23 -22 c-10 -10 -77 56 -77 75 0 10
16 0 42 -26 23 -23 39 -46 35 -49z m-20 -21 c-10 -9 -88 68 -80 80 3 5 24 -9
46 -32 23 -22 38 -44 34 -48z m-47 22 c18 -19 30 -38 26 -42 -3 -4 -26 12 -49
35 -26 26 -36 42 -26 42 8 0 30 -16 49 -35z m-25 -25 c21 -22 35 -40 29 -40
-5 0 -28 18 -49 40 -21 22 -35 40 -29 40 5 0 28 -18 49 -40z m-20 -20 c22 -22
33 -40 25 -40 -15 0 -80 58 -80 72 0 17 17 7 55 -32z m-22 -18 c21 -21 34 -41
30 -45 -7 -8 -83 61 -83 75 0 17 17 7 53 -30z m-26 -14 c18 -18 33 -39 33 -47
0 -9 -15 0 -40 24 -38 37 -49 55 -33 55 4 0 22 -14 40 -32z m13 -72 c0 -6 -18
8 -40 29 -22 21 -40 44 -40 49 0 6 18 -8 40 -29 22 -21 40 -44 40 -49z m-23
-22 c-10 -10 -77 56 -77 75 0 10 16 0 42 -26 23 -23 39 -46 35 -49z m-20 -21
c-10 -9 -88 68 -80 80 3 5 24 -9 46 -32 23 -22 38 -44 34 -48z m-47 22 c18
-19 30 -38 26 -42 -3 -4 -26 12 -49 35 -26 26 -36 42 -26 42 8 0 30 -16 49
-35z m-25 -25 c21 -22 35 -40 29 -40 -5 0 -28 18 -49 40 -21 22 -35 40 -29 40
5 0 28 -18 49 -40z m-20 -20 c22 -22 33 -40 25 -40 -15 0 -80 58 -80 72 0 17
17 7 55 -32z m-22 -18 c21 -21 34 -41 30 -45 -7 -8 -83 61 -83 75 0 17 17 7
53 -30z m-26 -14 c18 -18 33 -39 33 -47 0 -9 -15 0 -40 24 -38 37 -49 55 -33
55 4 0 22 -14 40 -32z m13 -72 c0 -6 -18 8 -40 29 -22 21 -40 44 -40 49 0 6
18 -8 40 -29 22 -21 40 -44 40 -49z m-23 -22 c-10 -10 -77 56 -77 75 0 10 16
0 42 -26 23 -23 39 -46 35 -49z m-20 -21 c-4 -3 -26 11 -50 33 l-42 39 39 -42
c51 -54 39 -69 -14 -18 -38 37 -39 40 -23 57 16 18 18 17 57 -21 22 -22 37
-44 33 -48z m-67 2 c18 -19 30 -38 26 -42 -3 -4 -26 12 -49 35 -26 26 -36 42
-26 42 8 0 30 -16 49 -35z m-25 -25 c22 -22 33 -40 25 -40 -15 0 -80 58 -80
72 0 17 17 7 55 -32z m-22 -18 c36 -37 37 -39 19 -55 -17 -16 -20 -14 -57 23
-51 53 -36 65 18 14 l42 -39 -37 40 c-21 23 -38 44 -38 48 0 16 18 5 53 -31z
m-46 -34 c18 -18 33 -39 33 -47 0 -9 -15 0 -40 24 -38 37 -49 55 -33 55 4 0
22 -14 40 -32z m10 -74 c-10 -10 -77 56 -77 75 0 10 16 0 42 -26 23 -23 39
-46 35 -49z m-20 -21 c-4 -3 -26 11 -50 33 l-42 39 39 -42 c51 -54 39 -69 -14
-18 -38 37 -39 40 -23 57 16 18 18 17 57 -21 22 -22 37 -44 33 -48z m-67 2
c18 -19 30 -38 26 -42 -3 -4 -26 12 -49 35 -26 26 -36 42 -26 42 8 0 30 -16
49 -35z m-25 -25 c22 -22 33 -40 25 -40 -15 0 -80 58 -80 72 0 17 17 7 55 -32z
m-20 -20 c22 -22 33 -40 25 -40 -15 0 -80 58 -80 72 0 17 17 7 55 -32z m-22
-18 c21 -21 34 -41 30 -45 -7 -8 -83 61 -83 75 0 17 17 7 53 -30z m-26 -14
c18 -18 33 -39 33 -47 0 -9 -15 0 -40 24 -38 37 -49 55 -33 55 4 0 22 -14 40
-32z m13 -72 c0 -6 -18 8 -40 29 -22 21 -40 44 -40 49 0 6 18 -8 40 -29 22
-21 40 -44 40 -49z m-23 -22 c-10 -10 -77 56 -77 75 0 10 16 0 42 -26 23 -23
39 -46 35 -49z m-20 -21 c-10 -9 -88 68 -80 80 3 5 24 -9 46 -32 23 -22 38
-44 34 -48z m-47 22 c18 -19 30 -38 26 -42 -3 -4 -26 12 -49 35 -26 26 -36 42
-26 42 8 0 30 -16 49 -35z"/>
</g>
</svg>
