<?xml version="1.0" standalone="no"?>
<!DOCTYPE svg PUBLIC "-//W3C//DTD SVG 20010904//EN"
 "http://www.w3.org/TR/2001/REC-SVG-20010904/DTD/svg10.dtd">
<svg version="1.0" xmlns="http://www.w3.org/2000/svg"
 width="653.000000pt" height="411.000000pt" viewBox="0 0 653.000000 411.000000"
 preserveAspectRatio="xMidYMid meet">

<g transform="translate(0.000000,411.000000) scale(0.100000,-0.100000)"
fill="#000000" stroke="none">
<path d="M10 2085 l0 -2015 3260 1 3260 0 0 2014 0 2015 -3260 0 -3260 0 0
-2015z m1390 1985 c0 -20 -7 -20 -310 -20 -303 0 -310 0 -310 20 0 20 7 20
310 20 303 0 310 0 310 -20z m0 -50 c0 -20 -7 -20 -310 -20 -303 0 -310 0
-310 20 0 20 7 20 310 20 303 0 310 0 310 -20z m5020 -190 l0 -170 -75 0 -75
0 0 85 0 85 -215 0 -215 0 0 85 0 85 290 0 290 0 0 -170z m-4270 -365 l0 -525
-85 0 -85 0 0 -123 c0 -123 0 -123 -29 -151 -26 -25 -31 -26 -50 -14 -20 12
-26 9 -68 -35 -42 -45 -44 -49 -29 -66 15 -16 14 -19 -7 -39 -21 -20 -34 -22
-145 -22 l-122 0 0 -80 0 -80 -705 0 -705 0 0 830 0 830 1015 0 1015 0 0 -525z
m1320 480 c0 -44 -1 -45 -31 -45 -23 0 -32 -5 -36 -21 -5 -19 -10 -21 -52 -14
-99 17 -148 1 -171 -55 -10 -24 -10 -36 0 -60 7 -17 15 -29 17 -27 2 3 -2 16
-8 30 -15 34 2 79 38 98 38 20 100 15 136 -12 19 -13 26 -16 18 -6 -11 14 -11
17 1 17 11 0 14 -16 14 -70 0 -54 -3 -70 -14 -70 -12 0 -12 3 -1 17 8 10 0 7
-18 -7 -37 -27 -110 -32 -140 -10 -17 13 -17 13 -2 -4 18 -19 61 -23 130 -11
42 7 47 5 52 -14 4 -16 13 -21 36 -21 l31 0 0 -60 0 -60 -360 0 -360 0 0 -150
0 -150 -245 0 -245 0 0 25 0 25 140 0 140 0 -1 28 c-1 15 -5 38 -9 52 -6 17
-7 10 -3 -22 l5 -48 -161 0 -161 0 0 161 0 161 48 -5 c26 -3 37 -3 24 1 -13 4
-23 10 -23 15 1 4 1 43 1 87 l0 80 220 0 220 0 0 95 0 95 385 0 385 0 0 -45z
m1882 -37 l3 -83 230 0 230 0 5 85 4 85 6 -85 5 -85 213 -3 212 -2 0 -85 0
-85 80 0 c47 0 80 -4 80 -10 0 -6 -58 -10 -155 -10 -152 0 -155 0 -160 -22 -3
-13 -4 -99 -3 -193 l3 -170 73 -3 72 -3 0 -89 0 -90 -215 0 -215 0 0 -90 0
-90 -415 0 -415 0 0 -335 0 -335 715 0 c470 0 715 -3 715 -10 0 -7 -245 -10
-715 -10 l-715 0 0 -115 0 -115 715 0 715 0 0 -890 0 -890 -1082 2 -1082 3 -8
25 c-4 14 -5 5 -1 -22 l5 -48 -161 0 -161 0 0 161 0 161 48 -5 c32 -4 39 -3
22 3 -14 4 -37 8 -52 9 l-28 1 0 -145 0 -145 -155 0 -155 0 0 755 0 755 -1385
0 -1385 0 0 265 0 265 708 2 707 3 3 173 2 172 170 0 170 0 0 -175 0 -175 490
0 490 0 0 885 0 885 885 0 884 0 3 -82z m218 70 c0 -10 -26 -13 -97 -13 l-98
0 -3 -48 c-4 -69 6 -77 97 -77 82 0 101 9 101 46 0 12 3 30 6 39 9 22 24 0 24
-36 0 -40 17 -49 101 -49 91 0 101 8 97 77 l-3 48 -98 0 c-71 0 -97 3 -97 13
0 9 28 12 105 12 l106 0 -3 -77 -3 -78 -220 0 -220 0 -3 78 -3 77 106 0 c77 0
105 -3 105 -12z m17 -20 c-3 -7 -5 -2 -5 12 0 14 2 19 5 13 2 -7 2 -19 0 -25z
m-3237 -31 c0 -45 4 -58 26 -78 21 -20 36 -24 84 -24 48 0 63 4 84 24 22 20
26 33 26 78 l0 53 60 0 60 0 0 -85 0 -85 -215 0 -215 0 0 85 0 85 45 0 45 0 0
-53z m98 23 c-7 -11 -19 -21 -28 -24 -9 -2 -6 -4 8 -5 12 -1 22 -7 22 -16 0
-19 16 -20 27 -1 4 7 15 16 23 19 13 4 12 6 -1 6 -9 1 -19 10 -22 21 -5 18 0
20 39 20 l44 0 0 -48 c0 -67 -23 -87 -100 -87 -77 0 -100 20 -100 87 l0 48 50
0 c47 0 49 -1 38 -20z m3110 -42 l-3 -53 -85 0 -85 0 -3 53 -3 52 91 0 91 0
-3 -52z m230 0 l-3 -53 -85 0 -85 0 -3 53 -3 52 91 0 91 0 -3 -52z m-3321 20
c-3 -8 -6 -5 -6 6 -1 11 2 17 5 13 3 -3 4 -12 1 -19z m1003 -148 l0 -110 -30
0 -30 0 0 110 0 110 30 0 30 0 0 -110z m-1270 -320 c0 -153 -1 -160 -20 -160
-19 0 -20 7 -20 160 0 153 1 160 20 160 19 0 20 -7 20 -160z m4208 -22 l-3
-183 -142 -3 -143 -3 0 186 0 185 145 0 145 0 -2 -182z m-2938 -53 l0 -145
-355 0 -354 0 1 68 c1 43 4 58 8 42 l7 -25 5 25 c4 19 6 16 7 -13 1 -42 16
-77 32 -77 6 0 3 7 -5 16 -9 9 -16 32 -16 55 0 40 6 44 53 40 10 -2 17 5 17
14 0 9 -7 16 -17 14 -47 -4 -53 0 -53 40 0 23 7 46 16 55 8 9 11 16 5 16 -16
0 -31 -35 -32 -77 -1 -33 -2 -35 -8 -13 l-8 25 -4 -25 c-3 -14 -6 5 -7 43 l-1
67 354 0 355 0 0 -145z m-652 -2 c-10 -2 -26 -2 -35 0 -10 3 -2 5 17 5 19 0
27 -2 18 -5z m3592 -323 l0 -170 -290 0 -290 0 0 80 0 80 213 2 212 3 3 88 3
87 74 0 75 0 0 -170z m-2940 60 c0 -5 -14 -10 -31 -10 -23 0 -32 -5 -36 -21
-5 -19 -10 -21 -52 -14 -99 17 -148 1 -171 -55 -10 -24 -10 -36 0 -60 7 -17
15 -29 17 -27 2 3 -2 16 -8 30 -15 34 2 79 38 98 38 20 100 15 136 -12 19 -13
26 -16 18 -6 -11 14 -11 17 1 17 11 0 14 -16 14 -70 0 -54 -3 -70 -14 -70 -12
0 -12 3 -1 17 8 10 0 7 -18 -7 -37 -27 -110 -32 -140 -10 -17 13 -17 13 -2 -4
18 -19 61 -23 130 -11 42 7 47 5 52 -14 4 -16 13 -21 36 -21 30 0 31 -1 31
-45 l0 -45 -90 0 -90 0 0 -225 0 -225 -64 0 c-53 0 -65 3 -69 18 -2 9 -2 -2 1
-25 l4 -43 -161 0 -161 0 0 161 0 161 48 -5 c32 -4 39 -3 22 3 -14 4 -37 8
-52 9 l-28 1 0 -140 0 -140 -60 0 -60 0 -2 173 -3 172 -222 3 -223 2 0 225 0
225 605 0 c397 0 605 -3 605 -10z m0 -130 l0 -110 -30 0 -30 0 0 110 0 110 30
0 30 0 0 -110z m-1330 -360 l0 -300 -300 0 -300 0 0 75 0 75 117 0 118 0 107
107 108 108 0 117 0 118 75 0 75 0 0 -300z m1330 80 l0 -60 -53 0 c-45 0 -58
-4 -78 -26 -20 -21 -24 -36 -24 -84 0 -48 4 -63 24 -84 20 -22 33 -26 78 -26
l53 0 0 -45 0 -45 -85 0 -85 0 0 215 0 215 85 0 85 0 0 -60z m1990 -165 l0
-225 -180 0 -180 0 0 25 0 25 140 0 140 0 -1 28 c-1 15 -5 38 -9 52 -6 17 -7
10 -3 -22 l5 -48 -161 0 -161 0 0 161 0 161 43 -4 c23 -3 34 -3 25 -1 -13 3
-18 14 -18 39 l0 34 180 0 180 0 0 -225z m250 110 l0 -105 -120 0 -120 0 0
105 0 105 120 0 120 0 0 -105z m250 0 l0 -105 -120 0 -120 0 0 105 0 105 120
0 120 0 0 -105z m230 0 l0 -105 -110 0 -110 0 0 105 0 105 110 0 110 0 0 -105z
m218 -3 l3 -103 -103 3 -103 3 -3 103 -3 103 103 -3 103 -3 3 -103z m-1368
-112 c0 -153 -1 -160 -20 -160 -19 0 -20 7 -20 160 0 153 1 160 20 160 19 0
20 -7 20 -160z m-3166 99 c-4 -8 0 -9 15 -4 32 10 25 -7 -23 -54 -52 -51 -68
-41 -24 15 l30 39 -31 -33 c-17 -18 -31 -29 -31 -25 0 7 61 73 68 73 2 0 0 -5
-4 -11z m1586 -49 c0 -47 -1 -49 -20 -38 -11 7 -21 19 -24 28 -2 9 -4 6 -5 -7
-1 -13 -7 -23 -16 -23 -19 0 -20 -16 -1 -27 7 -4 16 -15 19 -23 4 -13 6 -12 6
1 1 9 10 19 21 22 18 5 20 0 20 -39 l0 -44 -48 0 c-67 0 -87 23 -87 100 0 77
20 100 87 100 l48 0 0 -50z m3000 -70 c0 -113 -1 -120 -20 -120 -19 0 -20 7
-20 120 0 113 1 120 20 120 19 0 20 -7 20 -120z m50 0 c0 -113 -1 -120 -20
-120 -19 0 -20 7 -20 120 0 113 1 120 20 120 19 0 20 -7 20 -120z m-3073 14
c-3 -3 -12 -4 -19 -1 -8 3 -5 6 6 6 11 1 17 -2 13 -5z m2273 -109 l0 -105
-120 0 -120 0 0 105 0 105 120 0 120 0 0 -105z m250 0 l0 -105 -120 0 -120 0
0 105 0 105 120 0 120 0 0 -105z m230 0 l0 -105 -110 0 -110 0 0 105 0 105
110 0 110 0 0 -105z m218 3 l-3 -103 -102 -3 -103 -3 0 99 c0 54 3 102 7 105
3 4 51 7 105 7 l99 0 -3 -102z m-3248 -178 c0 -19 -7 -20 -160 -20 -153 0
-160 1 -160 20 0 19 7 20 160 20 153 0 160 -1 160 -20z m-2430 -84 c0 -44 -3
-55 -17 -59 -10 -2 1 -2 25 1 l42 4 0 -161 0 -161 -161 0 -161 0 5 48 c4 32 3
39 -3 22 -4 -14 -8 -37 -9 -52 l-1 -28 140 0 140 0 0 -45 0 -45 -305 0 -305 0
0 265 0 265 305 0 305 0 0 -54z m5680 -91 l0 -105 -705 0 -705 0 0 105 0 105
705 0 705 0 0 -105z m-5580 -125 c0 -153 -1 -160 -20 -160 -19 0 -20 7 -20
160 0 153 1 160 20 160 19 0 20 -7 20 -160z m780 -290 c0 -19 -7 -20 -160 -20
-153 0 -160 1 -160 20 0 19 7 20 160 20 153 0 160 -1 160 -20z m760 0 c0 -19
-7 -20 -160 -20 -153 0 -160 1 -160 20 0 19 7 20 160 20 153 0 160 -1 160 -20z
m-760 -191 l0 -161 -47 5 c-33 4 -40 3 -23 -3 14 -4 37 -8 53 -9 l27 -1 0 140
0 140 80 0 80 0 0 -700 c0 -385 -3 -700 -7 -700 -5 0 -7 161 -5 359 l2 358
-37 7 c-49 8 -117 8 -137 0 -14 -5 -16 -47 -16 -365 l0 -359 -730 0 -730 0 0
700 0 700 584 0 c549 0 585 -1 589 -17 2 -10 2 1 -1 25 l-4 42 161 0 161 0 0
-161z m758 119 c-3 -24 -3 -35 -1 -25 4 15 22 17 199 17 l194 0 0 -90 0 -90
360 0 360 0 0 90 c0 53 4 90 10 90 7 0 10 -240 10 -700 l0 -700 -805 0 -805 0
0 700 0 700 75 0 75 0 0 -140 0 -140 28 1 c15 1 38 5 52 9 17 6 10 7 -22 3
l-48 -5 0 161 0 161 161 0 161 0 -4 -42z m1102 -29 c0 -17 -4 -20 -22 -15 -71
19 -66 22 -82 -35 -9 -29 -16 -58 -16 -65 0 -14 38 -30 47 -20 4 3 -1 6 -10 6
-9 0 -18 4 -22 9 -7 12 14 99 26 106 4 3 24 -1 44 -9 34 -15 35 -17 35 -70 l0
-54 -349 -1 -349 -2 0 86 -1 85 350 0 c349 0 349 0 349 -21z m-1770 -685 c0
-13 -9 -15 -50 -12 -28 1 -50 0 -50 -4 0 -5 23 -8 50 -8 38 0 50 -4 50 -15 0
-11 -12 -15 -50 -15 -27 0 -50 -4 -50 -10 0 -5 23 -10 50 -10 38 0 50 -4 50
-15 0 -11 -12 -15 -50 -15 -27 0 -50 -4 -50 -10 0 -5 23 -10 50 -10 38 0 50
-4 50 -15 0 -11 -12 -15 -50 -15 -27 0 -50 -3 -50 -7 0 -5 22 -6 50 -5 46 4
50 2 50 -18 0 -20 -4 -22 -50 -18 -28 1 -50 0 -50 -4 0 -5 23 -8 50 -8 38 0
50 -4 50 -15 0 -11 -12 -15 -50 -15 -27 0 -50 -4 -50 -10 0 -5 23 -10 50 -10
38 0 50 -4 50 -15 0 -11 -12 -15 -50 -15 -27 0 -50 -4 -50 -10 0 -5 23 -10 50
-10 38 0 50 -4 50 -15 0 -11 -12 -15 -50 -15 -27 0 -50 -3 -50 -7 0 -5 22 -6
50 -5 46 4 50 2 50 -18 0 -20 -4 -22 -50 -18 -28 1 -50 0 -50 -4 0 -5 23 -8
50 -8 38 0 50 -4 50 -15 0 -11 -12 -15 -50 -15 -27 0 -50 -4 -50 -10 0 -5 23
-10 50 -10 38 0 50 -4 50 -15 0 -11 -12 -15 -50 -15 -27 0 -50 -4 -50 -10 0
-5 23 -10 50 -10 39 0 50 -3 50 -16 0 -13 -9 -15 -50 -12 -28 1 -50 0 -50 -4
0 -5 25 -8 55 -8 l55 0 1 48 c0 26 1 152 1 280 l0 232 24 0 24 0 -2 -347 -3
-348 -22 -3 c-27 -4 -27 -6 -8 47 11 32 12 43 2 46 -47 18 -112 33 -119 29 -4
-3 -7 -13 -7 -22 1 -15 2 -14 6 1 3 10 11 16 18 13 8 -3 33 -10 55 -16 40 -11
42 -13 36 -42 -3 -18 -8 -33 -10 -36 -2 -2 -26 2 -52 10 -37 10 -49 19 -54 38
-5 20 -6 591 -1 623 0 4 24 7 51 7 39 0 50 -3 50 -16z m-47 -661 c47 -10 40
-23 -12 -23 -45 0 -51 2 -51 21 0 16 4 20 18 14 9 -3 29 -9 45 -12z m-433 -63
c0 -20 -7 -20 -310 -20 -303 0 -310 0 -310 20 0 20 7 20 310 20 303 0 310 0
310 -20z m1840 0 c0 -20 -7 -20 -310 -20 -303 0 -310 0 -310 20 0 20 7 20 310
20 303 0 310 0 310 -20z m2600 0 c0 -20 -7 -20 -310 -20 -303 0 -310 0 -310
20 0 20 7 20 310 20 303 0 310 0 310 -20z m-1410 -40 c0 -19 -7 -20 -160 -20
-153 0 -160 1 -160 20 0 19 7 20 160 20 153 0 160 -1 160 -20z m-3030 -10 c0
-20 -7 -20 -310 -20 -303 0 -310 0 -310 20 0 20 7 20 310 20 303 0 310 0 310
-20z m1840 0 c0 -20 -7 -20 -310 -20 -303 0 -310 0 -310 20 0 20 7 20 310 20
303 0 310 0 310 -20z m2600 0 c0 -20 -7 -20 -310 -20 -303 0 -310 0 -310 20 0
20 7 20 310 20 303 0 310 0 310 -20z"/>
<path d="M170 3625 l0 -325 285 0 285 0 0 325 0 325 -285 0 -285 0 0 -325z
m560 265 c0 -61 -18 -67 -22 -7 l-3 42 -110 0 -110 0 -3 -42 c-3 -38 -6 -43
-27 -43 -21 0 -24 5 -27 43 l-3 42 -110 0 -110 0 -3 -42 c-4 -60 -22 -54 -22
7 l0 50 275 0 275 0 0 -50z m-310 -10 l0 -40 -105 0 -105 0 0 40 0 40 105 0
105 0 0 -40z m280 0 l0 -40 -105 0 -105 0 0 40 0 40 105 0 105 0 0 -40z m30
-90 l0 -40 -275 0 -275 0 0 40 0 40 275 0 275 0 0 -40z m0 -265 l0 -215 -275
0 -275 0 0 215 0 215 275 0 275 0 0 -215z"/>
<path d="M3232 3824 c-48 -33 -14 -105 48 -103 23 1 22 2 -6 8 -46 11 -54 19
-54 51 0 32 8 40 54 51 28 6 29 7 6 8 -14 1 -36 -6 -48 -15z"/>
<path d="M3318 3818 c11 -14 10 -17 -10 -20 -13 -2 -23 -10 -23 -18 0 -8 10
-16 23 -18 20 -3 21 -6 10 -20 -9 -12 -6 -12 10 2 12 11 22 27 22 36 0 9 -10
25 -22 36 -16 14 -19 14 -10 2z"/>
<path d="M2311 3607 c17 -14 98 -54 94 -46 -7 10 -79 49 -91 49 -4 0 -5 -1 -3
-3z"/>
<path d="M2426 3536 c3 -8 13 -17 22 -21 13 -5 13 -2 -3 15 -21 24 -26 25 -19
6z"/>
<path d="M2489 3451 c14 -27 27 -48 29 -46 5 5 -36 83 -47 89 -5 3 3 -16 18
-43z"/>
<path d="M5470 3130 c-24 -6 -25 -8 -28 -108 -3 -96 -2 -102 17 -102 11 0 23
-4 26 -10 4 -6 62 -10 140 -10 78 0 136 4 140 10 3 6 15 10 26 10 18 0 19 8
19 100 0 72 -4 102 -12 105 -22 7 -302 11 -328 5z m242 -17 c-51 -2 -132 -2
-180 0 -48 1 -6 3 93 3 99 0 138 -2 87 -3z m88 -103 l0 -80 -175 0 -175 0 0
80 0 80 175 0 175 0 0 -80z m-108 -97 c-40 -2 -103 -2 -140 0 -37 2 -4 3 73 3
77 0 107 -2 67 -3z"/>
<path d="M2390 2466 c0 -23 -2 -24 -35 -13 -41 12 -69 -3 -46 -25 10 -11 11
-10 6 5 -14 35 60 15 80 -23 12 -22 13 -20 8 24 -5 44 -4 49 11 43 10 -4 15
-3 11 3 -12 19 -35 10 -35 -14z"/>
<path d="M2426 2424 c-9 -43 -25 -51 -67 -30 -41 20 -50 20 -21 0 26 -18 28
-36 7 -54 -22 -19 -18 -40 8 -39 16 1 18 2 5 6 -10 2 -18 8 -18 12 0 14 46 51
63 51 23 0 21 -9 -5 -38 -13 -14 -17 -22 -10 -18 8 5 12 0 12 -12 0 -11 6 -25
14 -31 14 -12 27 -2 39 31 5 14 10 15 36 5 45 -17 62 3 38 45 -18 31 -18 31 8
58 30 32 21 45 -24 35 -17 -3 -32 -2 -36 4 -3 6 -14 11 -24 11 -14 0 -21 -10
-25 -36z m44 16 c0 -20 -24 -60 -36 -60 -10 0 -11 6 -3 26 5 15 12 31 15 35 7
12 24 11 24 -1z m64 -21 c-17 -19 -65 -49 -79 -49 -3 0 1 13 10 29 14 29 30
37 69 40 19 1 19 1 0 -20z m-4 -95 c0 -19 -25 -18 -55 2 -31 20 -31 28 -2 42
18 8 25 7 40 -10 9 -11 17 -26 17 -34z m-94 -41 c-3 -8 -10 -11 -16 -8 -14 9
-12 59 3 74 10 10 13 6 15 -19 2 -18 1 -39 -2 -47z"/>
<path d="M6290 1655 l0 -285 25 0 c23 0 25 4 25 40 0 23 9 58 20 80 17 33 20
59 20 165 0 106 -3 132 -20 165 -11 22 -20 57 -20 80 0 36 -2 40 -25 40 l-25
0 0 -285z m40 0 c0 -238 -2 -275 -15 -275 -13 0 -15 37 -15 275 0 238 2 275
15 275 13 0 15 -37 15 -275z m40 93 c0 -27 -4 -38 -15 -38 -12 0 -15 13 -15
63 1 59 1 61 15 37 8 -14 14 -42 15 -62z m0 -68 c0 -12 -7 -20 -17 -20 -15 0
-16 2 -3 10 10 6 11 10 3 10 -7 0 -13 5 -13 10 0 6 7 10 15 10 8 0 15 -9 15
-20z m0 -50 c0 -11 -7 -20 -15 -20 -8 0 -15 5 -15 10 0 6 6 10 13 10 8 0 7 4
-3 10 -13 8 -12 10 3 10 10 0 17 -8 17 -20z m0 -67 c-1 -21 -7 -49 -15 -63
-14 -24 -14 -22 -15 38 0 49 3 62 15 62 11 0 15 -11 15 -37z"/>
<path d="M3630 940 l0 -740 115 0 115 0 0 740 0 740 -115 0 -115 0 0 -740z
m220 0 l0 -730 -105 0 -105 0 0 730 0 730 105 0 105 0 0 -730z"/>
<path d="M4965 1662 c-65 -4 -74 -14 -35 -42 30 -22 31 -23 13 -43 -14 -17
-14 -19 -1 -9 11 9 42 12 95 10 71 -3 78 -5 81 -24 3 -20 1 -21 -45 -13 -28 5
-69 5 -96 0 -27 -5 -47 -5 -47 0 0 5 -9 0 -20 -11 -11 -11 -25 -20 -30 -20
-19 0 -111 -93 -131 -132 -12 -24 -26 -38 -39 -38 -10 0 -25 -9 -33 -21 -15
-20 -15 -20 -37 11 -14 20 -26 28 -32 22 -5 -5 -10 -58 -10 -117 0 -59 5 -112
10 -117 6 -6 18 2 32 22 22 30 23 31 43 13 17 -14 19 -14 9 -1 -9 11 -12 42
-10 95 3 71 5 78 24 81 20 3 21 1 13 -45 -5 -28 -5 -69 0 -96 6 -32 5 -48 -3
-51 -7 -3 -7 -5 1 -5 7 -1 21 -18 32 -38 11 -21 39 -56 63 -78 l43 -40 -42 45
c-60 65 -86 129 -86 215 0 270 313 399 513 212 l45 -42 -40 43 c-22 24 -57 52
-77 63 -24 12 -38 27 -38 39 0 10 -9 25 -21 33 -20 15 -20 15 11 37 17 12 28
26 23 30 -10 9 -112 16 -178 12z m128 -12 c20 0 37 -5 37 -11 0 -7 -24 -9 -75
-4 l-76 7 7 -26 c7 -28 -6 -35 -25 -12 -9 11 -9 15 1 19 7 3 1 6 -14 6 -16 1
-28 5 -28 10 0 10 80 20 115 15 11 -2 37 -4 58 -4z m-49 -28 c9 -14 -12 -35
-28 -29 -23 9 -20 37 3 37 11 0 22 -4 25 -8z m46 -17 c-13 -16 -40 -20 -40 -7
0 14 12 22 33 22 16 0 17 -3 7 -15z m-465 -340 l-7 -76 26 7 c28 7 35 -6 12
-25 -11 -9 -15 -9 -19 1 -3 7 -6 1 -6 -14 -2 -49 -19 -30 -23 25 -5 72 2 157
14 157 6 0 7 -29 3 -75z m45 8 c0 -24 -25 -9 -28 17 -3 21 -2 22 12 11 9 -7
16 -20 16 -28z m-2 -42 c-5 -24 -38 -27 -38 -3 0 10 3 21 6 25 11 11 35 -5 32
-22z"/>
<path d="M5302 1355 c29 -68 29 -172 0 -237 -23 -53 -21 -65 3 -18 9 18 23 30
35 30 10 0 25 9 33 21 15 20 15 20 37 -11 12 -17 26 -28 30 -23 10 10 17 113
8 106 -5 -2 -8 -24 -8 -49 0 -24 -4 -44 -8 -44 -5 0 -9 47 -8 105 0 58 4 105
8 105 4 0 8 -20 8 -44 0 -25 3 -47 8 -49 9 -7 2 96 -8 106 -4 5 -18 -6 -30
-23 -22 -30 -23 -31 -43 -13 -17 14 -19 14 -9 1 9 -11 12 -42 10 -95 -3 -71
-5 -78 -24 -81 -20 -3 -21 -1 -13 45 5 28 5 69 0 96 -5 27 -5 47 0 47 5 0 1 8
-8 18 -10 10 -23 27 -30 38 -7 10 -3 -3 9 -31z m108 -65 c0 -11 -7 -20 -15
-20 -18 0 -19 12 -3 28 16 16 18 15 18 -8z m10 -49 c0 -11 -4 -22 -8 -25 -14
-9 -35 12 -29 28 9 23 37 20 37 -3z m-12 -61 c3 -21 2 -22 -12 -11 -19 16 -21
44 -3 39 6 -3 14 -15 15 -28z"/>
<path d="M5235 1018 l-40 -43 43 40 c39 36 47 45 39 45 -2 0 -21 -19 -42 -42z"/>
<path d="M4860 975 c0 -3 14 -11 30 -20 18 -9 30 -23 30 -35 0 -10 9 -25 21
-33 20 -15 20 -15 -11 -37 -17 -12 -28 -26 -23 -30 10 -10 113 -17 106 -7 -2
4 -24 7 -49 7 -24 0 -44 4 -44 8 0 5 47 9 105 8 58 0 105 -4 105 -8 0 -4 -20
-8 -44 -8 -25 0 -47 -3 -49 -7 -7 -10 96 -3 106 7 5 4 -6 18 -23 30 -30 22
-31 23 -13 43 14 17 14 19 1 9 -11 -9 -42 -12 -95 -10 -71 3 -78 5 -81 24 -3
21 -1 21 45 13 27 -5 67 -5 95 0 27 4 48 4 48 0 0 -5 8 -1 18 9 10 9 27 22 38
29 10 7 -3 3 -31 -9 -68 -29 -172 -29 -237 0 -27 11 -48 19 -48 17z m138 -107
c-3 -7 -15 -15 -28 -16 -21 -3 -22 -2 -11 12 16 19 44 21 39 4z m50 -11 c2
-11 -3 -17 -16 -17 -24 0 -32 8 -25 26 7 20 37 13 41 -9z m42 8 c10 -13 9 -15
-9 -15 -12 0 -21 6 -21 15 0 8 4 15 9 15 5 0 14 -7 21 -15z"/>
<path d="M5833 827 c-55 -80 -60 -84 -95 -84 -34 0 -37 2 -32 22 15 62 -36 23
-100 -75 -44 -66 -46 -83 -10 -70 36 14 44 13 44 -9 0 -11 4 -23 10 -26 5 -3
-15 -40 -45 -83 -31 -42 -60 -85 -65 -94 -8 -14 4 -26 68 -70 130 -90 152 -95
228 -47 110 71 185 85 333 61 100 -15 104 -15 139 4 75 40 104 132 64 199 -11
17 -94 83 -193 152 -96 67 -200 140 -231 162 l-57 41 -58 -83z m328 -120 c121
-84 200 -146 207 -162 30 -66 1 -152 -63 -182 -32 -15 -42 -15 -137 0 -146 22
-229 7 -339 -63 -25 -17 -57 -30 -70 -30 -24 0 -130 57 -156 83 -9 9 25 63
143 232 206 294 194 278 207 267 7 -5 100 -70 208 -145z m-493 25 c-14 -15
-35 -44 -48 -65 -24 -40 -40 -45 -19 -5 25 48 83 121 87 109 2 -7 -7 -25 -20
-39z m27 -22 c-6 -9 -9 -9 -16 1 -10 17 0 34 13 21 6 -6 7 -16 3 -22z m59 21
c7 -11 -84 -142 -95 -135 -18 11 -8 38 31 91 40 52 54 62 64 44z m-81 -52
c-17 -17 -37 -1 -22 17 8 10 15 12 23 4 7 -7 7 -13 -1 -21z m-23 -30 c0 -5 -7
-9 -15 -9 -9 0 -12 6 -9 15 6 15 24 11 24 -6z"/>
<path d="M4031 447 c17 -14 98 -54 94 -46 -7 10 -79 49 -91 49 -4 0 -5 -1 -3
-3z"/>
<path d="M4146 376 c3 -8 13 -17 22 -21 13 -5 13 -2 -3 15 -21 24 -26 25 -19
6z"/>
<path d="M4209 291 c14 -27 27 -48 29 -46 5 5 -36 83 -47 89 -5 3 3 -16 18
-43z"/>
<path d="M2384 3905 c-21 -53 90 -87 142 -44 15 12 19 45 6 53 -4 2 -8 -7 -7
-22 0 -21 -6 -28 -32 -35 -21 -6 -45 -6 -65 0 -27 7 -33 14 -33 36 1 30 -3 34
-11 12z"/>
<path d="M5515 3931 c-6 -11 9 -23 19 -14 9 9 7 23 -3 23 -6 0 -12 -4 -16 -9z"/>
<path d="M5632 3931 c4 -13 18 -16 19 -4 0 4 -5 9 -11 12 -7 2 -11 -2 -8 -8z"/>
<path d="M6169 3590 c-7 -5 -10 -12 -6 -17 5 -4 12 -1 17 7 7 10 10 11 10 3 0
-7 5 -13 10 -13 6 0 10 4 10 9 0 14 -25 20 -41 11z"/>
<path d="M6303 3567 c0 -31 3 -34 32 -34 29 0 32 3 32 34 0 30 -3 33 -32 33
-29 0 -32 -3 -32 -33z m55 0 c4 -20 -25 -34 -40 -19 -15 15 -1 44 19 40 10 -2
19 -11 21 -21z"/>
<path d="M6323 3565 c0 -6 6 -12 12 -12 6 0 12 6 12 12 0 6 -6 12 -12 12 -6 0
-12 -6 -12 -12z"/>
<path d="M6173 3563 c-22 -8 -14 -23 12 -23 14 0 25 4 25 9 0 11 -21 19 -37
14z"/>
<path d="M6143 3493 c-20 -7 -17 -99 3 -107 9 -3 60 -6 114 -6 54 0 105 3 114
6 23 9 23 99 0 108 -19 7 -213 7 -231 -1z m232 -53 l0 -45 -115 0 -115 0 -3
33 c-6 62 -4 63 120 60 l113 -3 0 -45z"/>
<path d="M6160 3315 c0 -20 5 -25 25 -25 20 0 25 5 25 25 0 20 -5 25 -25 25
-20 0 -25 -5 -25 -25z m34 -6 c-3 -5 -10 -7 -15 -3 -5 3 -7 10 -3 15 3 5 10 7
15 3 5 -3 7 -10 3 -15z"/>
<path d="M6322 3314 c4 -21 22 -23 26 -1 2 10 -3 17 -13 17 -10 0 -15 -6 -13
-16z"/>
<path d="M2943 3503 c59 -2 154 -2 210 0 56 1 8 3 -108 3 -115 0 -161 -2 -102
-3z"/>
<path d="M3290 3500 c54 -13 80 -51 80 -115 0 -64 -26 -102 -80 -115 -33 -8
-34 -8 -6 -9 19 -1 38 9 62 33 31 31 34 40 34 91 0 51 -3 60 -34 91 -24 24
-43 34 -62 33 -28 -1 -27 -1 6 -9z"/>
<path d="M2943 3253 c59 -2 154 -2 210 0 56 1 8 3 -108 3 -115 0 -161 -2 -102
-3z"/>
<path d="M2270 2905 l0 -205 205 0 205 0 0 205 0 205 -205 0 -205 0 0 -205z
m395 0 l0 -190 -190 0 -190 0 -3 180 c-1 98 0 185 3 192 3 11 45 13 192 11
l188 -3 0 -190z"/>
<path d="M2380 2998 l90 -93 -92 -95 -93 -95 95 92 95 93 95 -93 95 -92 -92
95 -93 95 93 95 92 95 -95 -93 -95 -92 -93 90 -92 90 90 -92z"/>
<path d="M3232 3034 c-48 -33 -14 -105 48 -103 23 1 22 2 -6 8 -46 11 -54 19
-54 51 0 32 8 40 54 51 28 6 29 7 6 8 -14 1 -36 -6 -48 -15z"/>
<path d="M3318 3028 c11 -14 10 -17 -10 -20 -13 -2 -23 -10 -23 -18 0 -8 10
-16 23 -18 20 -3 21 -6 10 -20 -9 -12 -6 -12 10 2 12 11 22 27 22 36 0 9 -10
25 -22 36 -16 14 -19 14 -10 2z"/>
<path d="M2941 2587 c17 -14 98 -54 94 -46 -7 10 -79 49 -91 49 -4 0 -5 -1 -3
-3z"/>
<path d="M3056 2516 c3 -8 13 -17 22 -21 13 -5 13 -2 -3 15 -21 24 -26 25 -19
6z"/>
<path d="M3119 2431 c14 -27 27 -48 29 -46 5 5 -36 83 -47 89 -5 3 3 -16 18
-43z"/>
<path d="M5151 2687 c17 -14 98 -54 94 -46 -7 10 -79 49 -91 49 -4 0 -5 -1 -3
-3z"/>
<path d="M5266 2616 c3 -8 13 -17 22 -21 13 -5 13 -2 -3 15 -21 24 -26 25 -19
6z"/>
<path d="M5329 2531 c14 -27 27 -48 29 -46 5 5 -36 83 -47 89 -5 3 3 -16 18
-43z"/>
<path d="M6300 2653 l-95 -98 98 95 c90 88 102 100 94 100 -1 0 -45 -44 -97
-97z"/>
<path d="M3350 2605 c-18 -22 -22 -87 -8 -115 14 -26 44 -38 59 -23 5 5 -3 9
-18 8 -22 0 -29 6 -36 33 -6 20 -6 44 0 65 7 26 14 32 35 32 15 -1 24 3 22 7
-8 13 -41 9 -54 -7z"/>
<path d="M6300 2425 c52 -52 97 -95 100 -95 2 0 -38 43 -90 95 -52 52 -97 95
-100 95 -2 0 38 -43 90 -95z"/>
<path d="M628 2080 c-20 -11 -39 -24 -43 -29 -4 -8 77 32 94 46 13 10 -19 -1
-51 -17z"/>
<path d="M544 2018 l-19 -23 23 19 c12 11 22 21 22 23 0 8 -8 2 -26 -19z"/>
<path d="M512 1978 c-14 -19 -44 -79 -40 -83 2 -2 15 19 30 46 26 49 29 60 10
37z"/>
<path d="M1300 1526 c0 -12 39 -84 49 -91 6 -3 -2 16 -16 42 -30 55 -33 59
-33 49z"/>
<path d="M1375 1400 c21 -24 26 -25 19 -6 -3 8 -13 17 -22 21 -13 5 -13 2 3
-15z"/>
<path d="M1416 1369 c6 -11 84 -52 89 -47 2 2 -19 15 -46 29 -27 15 -46 23
-43 18z"/>
<path d="M160 545 l0 -335 140 0 140 0 0 335 0 335 -140 0 -140 0 0 -335z
m270 100 l0 -225 -130 0 -130 0 0 225 0 225 130 0 130 0 0 -225z m0 -275 l0
-40 -130 0 -130 0 0 40 0 40 130 0 130 0 0 -40z m-238 -92 l3 -43 105 0 105 0
3 43 c4 59 22 53 22 -8 l0 -50 -130 0 -130 0 0 50 c0 61 18 67 22 8z m208 2
l0 -40 -100 0 -100 0 0 40 0 40 100 0 100 0 0 -40z"/>
<path d="M2329 1479 c-15 -27 -23 -46 -18 -43 11 6 52 84 47 89 -2 2 -15 -19
-29 -46z"/>
<path d="M2276 1404 c-23 -23 -20 -30 4 -9 11 10 20 20 20 22 0 7 -9 2 -24
-13z"/>
<path d="M2195 1349 c-27 -16 -46 -29 -42 -29 13 0 85 39 92 50 8 13 10 13
-50 -21z"/>
<path d="M1940 545 l0 -335 140 0 140 0 0 335 0 335 -140 0 -140 0 0 -335z
m270 100 l0 -225 -130 0 -130 0 0 225 0 225 130 0 130 0 0 -225z m0 -275 l0
-40 -130 0 -130 0 0 40 0 40 130 0 130 0 0 -40z m-238 -92 l3 -43 105 0 105 0
3 43 c4 59 22 53 22 -8 l0 -50 -130 0 -130 0 0 50 c0 61 18 67 22 8z m208 2
l0 -40 -100 0 -100 0 0 40 0 40 100 0 100 0 0 -40z"/>
<path d="M2795 1482 c0 -45 3 -58 15 -58 12 0 15 13 15 58 0 45 -3 58 -15 58
-12 0 -15 -13 -15 -58z"/>
<path d="M2845 1482 l0 -59 35 0 35 0 0 59 0 58 -35 0 -35 0 0 -58z m55 -2 c0
-43 -3 -50 -20 -50 -17 0 -20 7 -20 43 0 46 5 57 27 57 9 0 13 -15 13 -50z"/>
<path d="M2935 1481 c0 -47 3 -59 15 -58 11 1 15 14 15 59 0 45 -3 58 -15 58
-12 0 -15 -13 -15 -59z"/>
<path d="M2985 1482 c0 -44 4 -58 15 -59 12 -1 14 9 12 53 -3 45 -1 54 13 54
14 0 16 -9 13 -53 l-3 -54 35 0 35 0 0 59 0 58 -60 0 -60 0 0 -58z m103 -5 c3
-42 1 -47 -17 -47 -18 0 -21 6 -21 51 0 43 3 50 18 47 13 -2 18 -15 20 -51z"/>
<path d="M3125 1482 c0 -45 3 -58 15 -58 12 0 15 13 15 58 0 45 -3 58 -15 58
-12 0 -15 -13 -15 -58z"/>
<path d="M3175 1482 c0 -44 4 -58 15 -59 12 -1 14 9 12 53 -3 45 -1 54 13 54
14 0 16 -9 13 -53 -2 -32 1 -54 7 -54 6 0 9 22 7 54 -3 42 -1 53 11 53 11 0
16 -14 19 -50 1 -28 -1 -52 -7 -54 -5 -2 -1 -4 10 -3 18 1 20 8 20 59 l0 58
-60 0 -60 0 0 -58z"/>
<path d="M3315 1481 c0 -33 3 -57 8 -54 4 2 7 29 7 59 0 30 -3 54 -7 54 -5 0
-8 -27 -8 -59z"/>
<path d="M3442 1473 c-7 -25 -11 -47 -9 -50 2 -2 10 17 17 42 7 25 11 48 8 50
-2 2 -10 -16 -16 -42z"/>
</g>
</svg>
