<?xml version="1.0" standalone="no"?>
<!DOCTYPE svg PUBLIC "-//W3C//DTD SVG 20010904//EN"
 "http://www.w3.org/TR/2001/REC-SVG-20010904/DTD/svg10.dtd">
<svg version="1.0" xmlns="http://www.w3.org/2000/svg"
 width="1052.000000pt" height="739.000000pt" viewBox="0 0 1052.000000 739.000000"
 preserveAspectRatio="xMidYMid meet">

<g transform="translate(0.000000,739.000000) scale(0.100000,-0.100000)"
fill="#000000" stroke="none">
<path d="M12 3698 l3 -3685 1220 -8 c1730 -11 9268 -3 9277 10 4 6 8 1660 8
3677 0 2811 -3 3669 -12 3674 -6 4 -2371 10 -5255 12 l-5244 5 3 -3685z m9268
3642 c0 -20 -7 -20 -395 -20 -388 0 -395 0 -395 20 0 20 7 20 395 20 388 0
395 0 395 -20z m800 0 c0 -20 -7 -20 -395 -20 -388 0 -395 0 -395 20 0 20 7
20 395 20 388 0 395 0 395 -20z m-804 -97 c-39 -385 -334 -680 -718 -719 l-68
-7 0 397 0 396 396 0 397 0 -7 -67z m804 -329 l0 -397 -67 7 c-241 24 -458
153 -588 349 -21 31 -40 57 -42 57 -13 0 67 -111 122 -169 130 -138 318 -229
513 -247 l72 -7 0 377 0 377 158 -3 157 -3 0 -770 0 -770 -37 -3 -38 -3 0
-2110 0 -2109 40 0 40 0 0 -685 0 -685 -160 0 -160 0 0 370 0 370 -58 0 c-79
0 -200 -32 -297 -79 -78 -37 -207 -130 -213 -154 -2 -8 -1 -9 5 -1 4 6 35 32
68 59 111 90 308 165 432 165 l53 0 0 -390 0 -390 -395 0 -395 0 0 29 c0 16 7
64 15 107 8 43 13 79 11 81 -4 5 -25 -87 -27 -115 0 -9 -9 15 -19 53 -22 86
-25 75 -5 -20 8 -39 15 -85 15 -102 l0 -33 -395 0 -395 0 0 390 0 390 53 0
c130 0 344 -86 450 -180 31 -28 57 -48 56 -43 0 4 -26 30 -57 56 -114 96 -322
177 -454 177 l-58 0 0 -370 0 -370 -235 0 -235 0 0 3575 0 3575 235 0 235 0 0
-381 0 -382 72 7 c347 32 636 283 716 621 l18 75 13 -62 c12 -62 70 -213 77
-205 2 2 -7 29 -20 60 -32 71 -53 154 -62 240 l-7 67 397 0 396 0 0 -396z
m-8830 -3219 l0 -3575 -565 0 -565 0 0 535 0 535 376 0 377 0 -6 87 c-4 58
-16 118 -35 175 -30 89 -97 213 -129 239 -9 8 -6 -2 9 -21 79 -107 136 -258
145 -387 l6 -83 -392 0 -391 0 0 396 0 397 78 -6 c125 -10 277 -68 382 -145
19 -15 29 -18 21 -9 -40 50 -276 157 -346 157 -14 0 -25 5 -25 10 0 6 11 10
25 10 70 0 306 107 346 157 8 9 -2 6 -21 -9 -105 -77 -257 -135 -383 -145
l-77 -6 0 392 0 391 391 0 392 0 -6 -77 c-10 -126 -68 -278 -145 -383 -15 -19
-18 -29 -9 -21 32 26 99 150 129 239 18 54 32 118 35 169 l6 83 -377 0 -376 0
0 2235 0 2235 565 0 565 0 0 -3575z m250 3320 l0 -245 -120 0 -120 0 0 245 0
245 120 0 120 0 0 -245z m250 0 l0 -245 -120 0 -120 0 0 245 0 245 120 0 120
0 0 -245z m250 0 l0 -245 -120 0 -120 0 0 245 0 245 120 0 120 0 0 -245z m250
0 l0 -245 -120 0 -120 0 0 245 0 245 120 0 120 0 0 -245z m250 0 l0 -245 -120
0 -120 0 0 245 0 245 120 0 120 0 0 -245z m250 0 l0 -245 -120 0 -120 0 0 245
0 245 120 0 120 0 0 -245z m250 0 l0 -245 -120 0 -120 0 0 245 0 245 120 0
120 0 0 -245z m250 0 l0 -245 -120 0 -120 0 0 245 0 245 120 0 120 0 0 -245z
m250 0 l0 -245 -120 0 -120 0 0 245 0 245 120 0 120 0 0 -245z m250 0 l0 -245
-120 0 -120 0 0 245 0 245 120 0 120 0 0 -245z m250 0 l0 -245 -120 0 -120 0
0 245 0 245 120 0 120 0 0 -245z m250 0 l0 -245 -120 0 -120 0 0 245 0 245
120 0 120 0 0 -245z m250 0 l0 -245 -120 0 -120 0 0 245 0 245 120 0 120 0 0
-245z m250 0 l0 -245 -120 0 -120 0 0 245 0 245 120 0 120 0 0 -245z m250 0
l0 -245 -120 0 -120 0 0 245 0 245 120 0 120 0 0 -245z m250 0 l0 -245 -120 0
-120 0 0 245 0 245 120 0 120 0 0 -245z m250 0 l0 -245 -120 0 -120 0 0 245 0
245 120 0 120 0 0 -245z m250 0 l0 -245 -120 0 -120 0 0 245 0 245 120 0 120
0 0 -245z m250 0 l0 -245 -120 0 -120 0 0 245 0 245 120 0 120 0 0 -245z m250
0 l0 -245 -120 0 -120 0 0 245 0 245 120 0 120 0 0 -245z m250 0 l0 -245 -120
0 -120 0 0 245 0 245 120 0 120 0 0 -245z m250 0 l0 -245 -120 0 -120 0 0 245
0 245 120 0 120 0 0 -245z m250 0 l0 -245 -120 0 -120 0 0 245 0 245 120 0
120 0 0 -245z m250 0 l0 -245 -120 0 -120 0 0 245 0 245 120 0 120 0 0 -245z
m250 0 l0 -245 -120 0 -120 0 0 245 0 245 120 0 120 0 0 -245z m250 0 l0 -245
-120 0 -120 0 0 245 0 245 120 0 120 0 0 -245z m250 16 c0 -126 -3 -236 -6
-245 -5 -13 -25 -16 -120 -16 l-114 0 0 225 c0 124 2 225 5 225 3 0 54 -98
114 -217 61 -120 110 -215 110 -210 1 4 -48 106 -109 227 -60 121 -110 224
-110 230 0 6 44 10 115 10 l115 0 0 -229z m-6500 -516 l0 -245 -120 0 -120 0
0 245 0 245 120 0 120 0 0 -245z m250 0 l0 -245 -120 0 -120 0 0 245 0 245
120 0 120 0 0 -245z m250 0 l0 -245 -120 0 -120 0 0 245 0 245 120 0 120 0 0
-245z m250 0 l0 -245 -120 0 -120 0 0 245 0 245 120 0 120 0 0 -245z m250 0
l0 -245 -120 0 -120 0 0 245 0 245 120 0 120 0 0 -245z m250 0 l0 -245 -120 0
-120 0 0 245 0 245 120 0 120 0 0 -245z m250 0 l0 -245 -120 0 -120 0 0 245 0
245 120 0 120 0 0 -245z m250 0 l0 -245 -120 0 -120 0 0 245 0 245 120 0 120
0 0 -245z m250 0 l0 -245 -120 0 -120 0 0 245 0 245 120 0 120 0 0 -245z m250
0 l0 -245 -120 0 -120 0 0 245 0 245 120 0 120 0 0 -245z m250 0 l0 -245 -120
0 -120 0 0 245 0 245 120 0 120 0 0 -245z m250 0 l0 -245 -120 0 -120 0 0 245
0 245 120 0 120 0 0 -245z m250 0 l0 -245 -120 0 -120 0 0 245 0 245 120 0
120 0 0 -245z m250 0 l0 -245 -120 0 -120 0 0 245 0 245 120 0 120 0 0 -245z
m250 0 l0 -245 -120 0 -120 0 0 245 0 245 120 0 120 0 0 -245z m250 0 l0 -245
-120 0 -120 0 0 245 0 245 120 0 120 0 0 -245z m250 0 l0 -245 -120 0 -120 0
0 245 0 245 120 0 120 0 0 -245z m250 0 l0 -245 -120 0 -120 0 0 245 0 245
120 0 120 0 0 -245z m250 0 l0 -245 -120 0 -120 0 0 245 0 245 120 0 120 0 0
-245z m250 0 l0 -245 -120 0 -120 0 0 245 0 245 120 0 120 0 0 -245z m250 0
l0 -245 -120 0 -120 0 0 245 0 245 120 0 120 0 0 -245z m250 0 l0 -245 -120 0
-120 0 0 245 0 245 120 0 120 0 0 -245z m250 0 l0 -245 -120 0 -120 0 0 245 0
245 120 0 120 0 0 -245z m250 0 l0 -245 -120 0 -120 0 0 245 0 245 120 0 120
0 0 -245z m250 0 l0 -245 -120 0 -120 0 0 245 0 245 120 0 120 0 0 -245z m250
0 l0 -245 -120 0 -120 0 0 245 0 245 120 0 120 0 0 -245z m240 240 c0 -3 -49
-104 -110 -225 -60 -121 -110 -223 -109 -227 0 -5 49 90 110 210 60 119 111
217 114 217 3 0 5 -103 5 -230 l0 -230 -114 0 c-109 0 -114 1 -120 23 -3 12
-6 122 -6 245 l0 222 115 0 c63 0 115 -2 115 -5z m10 -3065 l0 -2570 -3370 0
-3370 0 0 2570 0 2570 3370 0 3370 0 0 -2570z m2408 -87 l-3 -2098 -32 -3 -33
-3 0 2100 0 2101 35 0 35 0 -2 -2097z m-10338 -1203 c0 -383 0 -390 -20 -390
-20 0 -20 7 -20 390 0 383 0 390 20 390 20 0 20 -7 20 -390z m-2 -802 c-3
-365 -4 -393 -21 -396 -16 -3 -17 21 -17 392 0 390 0 396 20 396 20 0 20 -5
18 -392z m1432 -733 l0 -245 -120 0 -120 0 0 245 0 245 120 0 120 0 0 -245z
m250 0 l0 -245 -120 0 -120 0 0 245 0 245 120 0 120 0 0 -245z m250 0 l0 -245
-120 0 -120 0 0 245 0 245 120 0 120 0 0 -245z m250 0 l0 -245 -120 0 -120 0
0 245 0 245 120 0 120 0 0 -245z m250 0 l0 -245 -120 0 -120 0 0 245 0 245
120 0 120 0 0 -245z m250 0 l0 -245 -120 0 -120 0 0 245 0 245 120 0 120 0 0
-245z m250 0 l0 -245 -120 0 -120 0 0 245 0 245 120 0 120 0 0 -245z m250 0
l0 -245 -120 0 -120 0 0 245 0 245 120 0 120 0 0 -245z m250 0 l0 -245 -120 0
-120 0 0 245 0 245 120 0 120 0 0 -245z m250 0 l0 -245 -120 0 -120 0 0 245 0
245 120 0 120 0 0 -245z m250 0 l0 -245 -120 0 -120 0 0 245 0 245 120 0 120
0 0 -245z m250 0 l0 -245 -120 0 -120 0 0 245 0 245 120 0 120 0 0 -245z m250
0 l0 -245 -120 0 -120 0 0 245 0 245 120 0 120 0 0 -245z m250 0 l0 -245 -120
0 -120 0 0 245 0 245 120 0 120 0 0 -245z m250 0 l0 -245 -120 0 -120 0 0 245
0 245 120 0 120 0 0 -245z m250 0 l0 -245 -120 0 -120 0 0 245 0 245 120 0
120 0 0 -245z m250 0 l0 -245 -120 0 -120 0 0 245 0 245 120 0 120 0 0 -245z
m250 0 l0 -245 -120 0 -120 0 0 245 0 245 120 0 120 0 0 -245z m250 0 l0 -245
-120 0 -120 0 0 245 0 245 120 0 120 0 0 -245z m250 0 l0 -245 -120 0 -120 0
0 245 0 245 120 0 120 0 0 -245z m250 0 l0 -245 -120 0 -120 0 0 245 0 245
120 0 120 0 0 -245z m250 0 l0 -245 -120 0 -120 0 0 245 0 245 120 0 120 0 0
-245z m250 0 l0 -245 -120 0 -120 0 0 245 0 245 120 0 120 0 0 -245z m250 0
l0 -245 -120 0 -120 0 0 245 0 245 120 0 120 0 0 -245z m250 0 l0 -245 -120 0
-120 0 0 245 0 245 120 0 120 0 0 -245z m250 0 l0 -245 -120 0 -120 0 0 245 0
245 120 0 120 0 0 -245z m250 16 c0 -126 -3 -236 -6 -245 -5 -13 -25 -16 -120
-16 l-114 0 0 225 c0 124 2 225 5 225 3 0 54 -98 114 -217 61 -120 110 -215
110 -210 1 4 -48 106 -109 227 -60 121 -110 224 -110 230 0 6 44 10 115 10
l115 0 0 -229z m-6500 -516 l0 -245 -120 0 -120 0 0 245 0 245 120 0 120 0 0
-245z m250 0 l0 -245 -120 0 -120 0 0 245 0 245 120 0 120 0 0 -245z m250 0
l0 -245 -120 0 -120 0 0 245 0 245 120 0 120 0 0 -245z m250 0 l0 -245 -120 0
-120 0 0 245 0 245 120 0 120 0 0 -245z m250 0 l0 -245 -120 0 -120 0 0 245 0
245 120 0 120 0 0 -245z m250 0 l0 -245 -120 0 -120 0 0 245 0 245 120 0 120
0 0 -245z m250 0 l0 -245 -120 0 -120 0 0 245 0 245 120 0 120 0 0 -245z m250
0 l0 -245 -120 0 -120 0 0 245 0 245 120 0 120 0 0 -245z m250 0 l0 -245 -120
0 -120 0 0 245 0 245 120 0 120 0 0 -245z m250 0 l0 -245 -120 0 -120 0 0 245
0 245 120 0 120 0 0 -245z m250 0 l0 -245 -120 0 -120 0 0 245 0 245 120 0
120 0 0 -245z m250 0 l0 -245 -120 0 -120 0 0 245 0 245 120 0 120 0 0 -245z
m250 0 l0 -245 -120 0 -120 0 0 245 0 245 120 0 120 0 0 -245z m250 0 l0 -245
-120 0 -120 0 0 245 0 245 120 0 120 0 0 -245z m250 0 l0 -245 -120 0 -120 0
0 245 0 245 120 0 120 0 0 -245z m250 0 l0 -245 -120 0 -120 0 0 245 0 245
120 0 120 0 0 -245z m250 0 l0 -245 -120 0 -120 0 0 245 0 245 120 0 120 0 0
-245z m250 0 l0 -245 -120 0 -120 0 0 245 0 245 120 0 120 0 0 -245z m250 0
l0 -245 -120 0 -120 0 0 245 0 245 120 0 120 0 0 -245z m250 0 l0 -245 -120 0
-120 0 0 245 0 245 120 0 120 0 0 -245z m250 0 l0 -245 -120 0 -120 0 0 245 0
245 120 0 120 0 0 -245z m250 0 l0 -245 -120 0 -120 0 0 245 0 245 120 0 120
0 0 -245z m250 0 l0 -245 -120 0 -120 0 0 245 0 245 120 0 120 0 0 -245z m250
0 l0 -245 -120 0 -120 0 0 245 0 245 120 0 120 0 0 -245z m250 0 l0 -245 -120
0 -120 0 0 245 0 245 120 0 120 0 0 -245z m250 0 l0 -245 -120 0 -120 0 0 245
0 245 120 0 120 0 0 -245z m240 240 c0 -3 -49 -104 -110 -225 -60 -121 -110
-223 -109 -227 0 -5 49 90 110 210 60 119 111 217 114 217 3 0 5 -103 5 -230
l0 -230 -114 0 c-109 0 -114 1 -120 22 -3 13 -6 123 -6 246 l0 222 115 0 c63
0 115 -2 115 -5z m1290 -565 c0 -20 -7 -20 -395 -20 -388 0 -395 0 -395 20 0
20 7 20 395 20 388 0 395 0 395 -20z m800 0 c0 -20 -7 -20 -395 -20 -388 0
-395 0 -395 20 0 20 7 20 395 20 388 0 395 0 395 -20z"/>
<path d="M9078 5872 c-141 -81 -257 -150 -258 -153 -1 -18 503 -874 514 -873
18 2 515 287 516 296 0 4 -32 61 -70 127 -39 66 -73 126 -76 134 -3 9 21 34
70 70 42 32 80 57 85 57 19 0 17 26 -6 85 -29 74 -79 157 -115 192 -26 25 -28
25 -60 10 -82 -38 -152 -67 -163 -67 -7 0 -48 61 -90 135 -43 74 -80 135 -84
135 -3 0 -122 -67 -263 -148z m517 -302 c174 -301 241 -426 232 -432 -258
-152 -494 -284 -499 -279 -4 3 -118 197 -253 431 -174 301 -241 426 -232 432
258 152 494 284 499 279 4 -3 118 -197 253 -431z m165 193 c47 -63 86 -141 96
-191 11 -53 -12 -36 -35 26 -22 61 -86 167 -114 191 -20 16 -22 31 -4 31 8 0
33 -26 57 -57z m-30 -20 c47 -63 87 -142 95 -189 5 -26 -1 -33 -60 -76 -35
-27 -68 -48 -72 -48 -9 1 -173 284 -173 298 0 9 135 71 156 72 6 0 30 -26 54
-57z"/>
<path d="M9345 5674 c-22 -13 -39 -28 -38 -34 2 -5 -3 -7 -10 -5 -17 6 -212
-110 -212 -126 0 -8 6 -13 13 -11 8 1 11 -2 7 -8 -9 -14 76 -161 88 -153 6 3
7 1 4 -4 -4 -6 14 -47 39 -91 l45 -80 147 85 c81 46 151 88 155 92 6 6 -170
330 -192 352 -3 3 -24 -5 -46 -17z m80 -61 l35 -61 -23 -15 c-23 -15 -24 -14
-56 44 -18 32 -37 62 -43 65 -6 4 3 -19 21 -50 18 -31 31 -59 28 -62 -5 -5
-49 67 -60 98 -4 13 2 22 21 32 15 9 31 14 35 13 4 -1 23 -30 42 -64z m-160
-2 c-3 -5 -1 -12 3 -15 5 -3 46 -71 92 -150 46 -80 86 -144 88 -142 2 2 -35
71 -82 152 -79 139 -87 163 -55 164 9 0 181 -301 176 -307 -5 -4 -65 93 -141
230 -21 37 -40 66 -43 63 -2 -2 34 -71 81 -152 72 -125 83 -150 70 -157 -8 -5
-18 -7 -21 -4 -2 3 -44 74 -93 159 -78 135 -92 168 -74 168 3 0 3 -4 -1 -9z
m69 -169 c47 -81 84 -158 83 -169 -2 -30 -123 -101 -140 -83 -8 9 -8 11 -1 7
14 -8 104 40 104 54 0 6 4 8 9 5 5 -3 12 1 15 9 5 15 -52 130 -61 122 -2 -3
10 -28 27 -56 35 -60 34 -58 16 -58 -8 0 -12 6 -8 15 4 11 1 13 -8 7 -9 -5
-11 -4 -6 3 9 15 -12 54 -24 47 -6 -4 -7 1 -3 11 5 13 3 15 -7 9 -9 -5 -11 -4
-6 3 9 15 -12 54 -24 47 -6 -4 -7 1 -3 11 4 11 3 15 -5 10 -6 -3 -14 -1 -18 5
-5 8 -3 9 6 4 8 -5 11 -3 8 6 -3 8 -10 13 -16 12 -7 -2 -9 4 -5 14 5 12 3 14
-7 8 -9 -5 -11 -4 -6 3 9 15 -12 54 -24 47 -6 -3 -7 0 -5 7 9 23 -36 19 -82
-9 -24 -14 -46 -24 -48 -21 -3 2 20 18 49 35 41 24 57 28 67 19 9 -8 11 -7 6
6 -6 16 10 30 25 22 3 -2 44 -71 92 -152z m-119 88 c4 -11 11 -17 17 -14 6 4
8 2 5 -4 -9 -14 54 -123 66 -115 6 3 7 1 3 -5 -9 -15 24 -73 37 -65 6 3 7 1 3
-5 -4 -7 1 -25 10 -42 10 -16 16 -31 13 -33 -27 -21 -80 -44 -84 -36 -4 5 -11
6 -17 3 -7 -4 -8 -2 -4 4 9 15 -22 75 -34 67 -6 -4 -7 1 -3 11 5 13 3 15 -7 9
-9 -5 -11 -4 -6 3 9 15 -12 54 -24 47 -6 -4 -7 1 -3 11 4 11 2 15 -4 11 -6 -4
-10 1 -9 11 0 9 -4 16 -11 15 -8 -2 -10 4 -6 14 4 11 3 14 -5 9 -8 -5 -10 -1
-5 10 4 11 2 15 -4 11 -6 -4 -10 1 -9 11 0 9 -4 16 -11 15 -22 -5 1 37 32 57
39 24 52 24 60 0z m269 -52 c-10 -15 -24 -8 -39 21 -11 23 -12 30 -2 34 13 4
49 -42 41 -55z m-62 28 c4 3 9 0 14 -7 5 -8 3 -10 -6 -4 -8 5 -11 3 -8 -6 3
-8 10 -13 16 -12 6 2 9 -4 6 -12 -4 -11 0 -13 18 -9 12 3 29 6 36 7 7 1 29
-25 47 -58 l35 -61 -29 -17 c-20 -12 -28 -13 -28 -3 0 21 -67 126 -74 115 -7
-12 -19 2 -43 48 -19 38 -21 55 -2 31 7 -10 15 -15 18 -12z m67 -131 c32 -61
20 -69 -13 -9 -28 51 -30 54 -18 54 4 0 18 -20 31 -45z m1 -80 c0 -2 -10 -9
-22 -15 -22 -11 -22 -10 -4 4 21 17 26 19 26 11z"/>
<path d="M9230 5583 c0 -13 102 -194 107 -189 2 2 -21 48 -51 102 -31 55 -56
94 -56 87z"/>
<path d="M8830 3690 l0 -770 303 2 302 3 0 765 0 765 -302 3 -303 2 0 -770z
m600 0 l0 -760 -295 0 -295 0 0 760 0 760 295 0 295 0 0 -760z"/>
<path d="M8958 3992 l-28 -3 0 -305 c0 -303 0 -304 21 -304 19 0 205 57 315
96 68 24 76 51 72 231 -3 139 -5 154 -24 173 -25 25 -316 116 -356 112z m20
-304 c-3 -270 -4 -293 -20 -296 -17 -3 -18 16 -18 292 0 290 0 296 20 296 20
0 20 -5 18 -292z m59 277 c35 -24 43 -77 43 -275 0 -198 -8 -251 -43 -275 -47
-33 -47 -34 -47 275 0 309 0 308 47 275z m173 -49 c75 -24 98 -36 107 -56 8
-16 13 -75 13 -171 0 -185 0 -185 -140 -228 -55 -17 -106 -34 -114 -37 -12 -5
-12 0 -1 33 19 53 20 413 1 465 l-14 38 27 -7 c14 -3 69 -20 121 -37z"/>
<path d="M9143 3743 c26 -2 67 -2 90 0 23 2 2 3 -48 3 -49 0 -68 -1 -42 -3z"/>
<path d="M9143 3713 c26 -2 67 -2 90 0 23 2 2 3 -48 3 -49 0 -68 -1 -42 -3z"/>
<path d="M9143 3683 c26 -2 67 -2 90 0 23 2 2 3 -48 3 -49 0 -68 -1 -42 -3z"/>
<path d="M9143 3653 c26 -2 67 -2 90 0 23 2 2 3 -48 3 -49 0 -68 -1 -42 -3z"/>
<path d="M9143 3623 c26 -2 67 -2 90 0 23 2 2 3 -48 3 -49 0 -68 -1 -42 -3z"/>
<path d="M9060 613 c1 -5 22 -30 47 -58 50 -54 40 -34 -14 28 -18 20 -33 34
-33 30z"/>
<path d="M9475 582 c-31 -37 -65 -84 -48 -67 31 30 85 96 82 99 -2 1 -17 -13
-34 -32z"/>
<path d="M9182 443 c18 -34 34 -60 36 -58 5 4 -33 76 -52 100 -9 11 -2 -8 16
-42z"/>
<path d="M9384 455 c-29 -51 -67 -145 -60 -152 2 -2 9 13 16 34 7 21 27 66 46
101 39 71 38 84 -2 17z"/>
<path d="M9226 350 c3 -14 11 -32 16 -40 6 -10 7 -7 2 10 -3 14 -11 32 -16 40
-6 10 -7 7 -2 -10z"/>
<path d="M630 2233 l-55 -58 58 55 c53 50 62 60 54 60 -1 0 -27 -26 -57 -57z"/>
<path d="M630 1765 c30 -30 57 -55 59 -55 3 0 -19 25 -49 55 -30 30 -57 55
-59 55 -3 0 19 -25 49 -55z"/>
<path d="M1930 5776 l0 -84 -62 -8 c-35 -4 -72 -8 -83 -8 -29 -1 -47 -96 -40
-203 6 -98 18 -134 42 -131 10 1 46 -1 81 -6 l62 -8 0 -73 0 -73 -62 -8 c-35
-4 -72 -8 -83 -8 -29 -1 -47 -96 -40 -203 6 -98 18 -134 42 -131 10 1 46 -1
81 -6 l62 -8 0 -78 0 -78 -62 -8 c-35 -4 -72 -8 -83 -8 -29 -1 -47 -96 -40
-203 6 -98 18 -134 42 -131 10 1 46 -1 81 -6 l62 -8 0 -73 0 -73 -62 -8 c-35
-4 -72 -8 -83 -8 -29 -1 -47 -96 -40 -203 6 -98 18 -134 42 -131 10 1 46 -1
81 -6 l62 -8 0 -88 0 -88 -62 -8 c-35 -4 -72 -8 -83 -8 -29 -1 -47 -96 -40
-203 6 -98 18 -134 42 -131 10 1 46 -1 81 -6 l62 -8 0 -88 0 -88 -62 -8 c-35
-4 -72 -8 -83 -8 -29 -1 -47 -96 -40 -203 6 -98 18 -134 42 -131 10 1 46 -1
81 -6 l62 -8 0 -78 0 -78 -62 -8 c-35 -4 -72 -8 -83 -8 -29 -1 -47 -96 -40
-203 6 -98 18 -134 42 -131 10 1 46 -1 81 -6 l62 -8 0 -73 0 -73 -62 -8 c-35
-4 -72 -8 -83 -8 -29 -1 -47 -96 -40 -203 6 -98 18 -134 42 -131 10 1 46 -1
81 -6 l62 -8 0 -84 0 -84 255 0 255 0 0 2175 0 2175 -255 0 -255 0 0 -84z
m500 -2091 l0 -2165 -245 0 -245 0 0 2165 0 2165 245 0 245 0 0 -2165z m-500
1824 l0 -171 -57 7 c-32 4 -62 11 -68 16 -11 11 -14 241 -2 281 7 27 20 32
100 36 l27 2 0 -171z m-137 134 c-5 -16 -8 -88 -7 -160 1 -124 -6 -164 -19
-110 -25 99 -12 297 19 297 11 0 12 -7 7 -27z m137 -644 l0 -171 -57 7 c-32 4
-62 11 -68 16 -11 11 -14 241 -2 281 7 27 20 32 100 36 l27 2 0 -171z m-137
134 c-5 -16 -8 -88 -7 -160 1 -124 -6 -164 -19 -110 -25 99 -12 297 19 297 11
0 12 -7 7 -27z m137 -654 l0 -171 -57 7 c-32 4 -62 11 -68 16 -11 11 -14 241
-2 281 7 27 20 32 100 36 l27 2 0 -171z m-137 134 c-5 -16 -8 -88 -7 -160 1
-124 -6 -164 -19 -110 -25 99 -12 297 19 297 11 0 12 -7 7 -27z m137 -644 l0
-171 -57 7 c-32 4 -62 11 -68 16 -11 11 -14 241 -2 281 7 27 20 32 100 36 l27
2 0 -171z m-137 134 c-5 -16 -8 -88 -7 -160 1 -124 -6 -164 -19 -110 -25 99
-12 297 19 297 11 0 12 -7 7 -27z m137 -674 l0 -171 -57 7 c-32 4 -62 11 -68
16 -11 11 -14 241 -2 281 7 27 20 32 100 36 l27 2 0 -171z m-137 134 c-5 -16
-8 -88 -7 -160 1 -124 -6 -164 -19 -110 -25 99 -12 297 19 297 11 0 12 -7 7
-27z m137 -674 l0 -171 -57 7 c-32 4 -62 11 -68 16 -11 11 -14 241 -2 281 7
27 20 32 100 36 l27 2 0 -171z m-137 134 c-5 -16 -8 -88 -7 -160 1 -124 -6
-164 -19 -110 -25 99 -12 297 19 297 11 0 12 -7 7 -27z m137 -654 l0 -171 -57
7 c-32 4 -62 11 -68 16 -11 11 -14 241 -2 281 7 27 20 32 100 36 l27 2 0 -171z
m-137 134 c-5 -16 -8 -88 -7 -160 1 -124 -6 -164 -19 -110 -25 99 -12 297 19
297 11 0 12 -7 7 -27z m137 -644 l0 -171 -57 7 c-32 4 -62 11 -68 16 -11 11
-14 241 -2 281 7 27 20 32 100 36 l27 2 0 -171z m-137 134 c-5 -16 -8 -88 -7
-160 1 -124 -6 -164 -19 -110 -25 99 -12 297 19 297 11 0 12 -7 7 -27z"/>
<path d="M3140 5776 l0 -84 -62 -8 c-35 -4 -72 -8 -83 -8 -29 -1 -47 -96 -40
-203 6 -98 18 -134 42 -131 10 1 46 -1 81 -6 l62 -8 0 -73 0 -73 -62 -8 c-35
-4 -72 -8 -83 -8 -29 -1 -47 -96 -40 -203 6 -98 18 -134 42 -131 10 1 46 -1
81 -6 l62 -8 0 -78 0 -78 -62 -8 c-35 -4 -72 -8 -83 -8 -29 -1 -47 -96 -40
-203 6 -98 18 -134 42 -131 10 1 46 -1 81 -6 l62 -8 0 -73 0 -73 -62 -8 c-35
-4 -72 -8 -83 -8 -29 -1 -47 -96 -40 -203 6 -98 18 -134 42 -131 10 1 46 -1
81 -6 l62 -8 0 -88 0 -88 -62 -8 c-35 -4 -72 -8 -83 -8 -29 -1 -47 -96 -40
-203 6 -98 18 -134 42 -131 10 1 46 -1 81 -6 l62 -8 0 -88 0 -88 -62 -8 c-35
-4 -72 -8 -83 -8 -29 -1 -47 -96 -40 -203 6 -98 18 -134 42 -131 10 1 46 -1
81 -6 l62 -8 0 -78 0 -78 -62 -8 c-35 -4 -72 -8 -83 -8 -29 -1 -47 -96 -40
-203 6 -98 18 -134 42 -131 10 1 46 -1 81 -6 l62 -8 0 -73 0 -73 -62 -8 c-35
-4 -72 -8 -83 -8 -29 -1 -47 -96 -40 -203 6 -98 18 -134 42 -131 10 1 46 -1
81 -6 l62 -8 0 -84 0 -84 255 0 255 0 0 2175 0 2175 -255 0 -255 0 0 -84z
m500 -2091 l0 -2165 -245 0 -245 0 0 2165 0 2165 245 0 245 0 0 -2165z m-500
1824 l0 -171 -57 7 c-32 4 -62 11 -68 16 -11 11 -14 241 -2 281 7 27 20 32
100 36 l27 2 0 -171z m-137 134 c-5 -16 -8 -88 -7 -160 1 -124 -6 -164 -19
-110 -25 99 -12 297 19 297 11 0 12 -7 7 -27z m137 -644 l0 -171 -57 7 c-32 4
-62 11 -68 16 -11 11 -14 241 -2 281 7 27 20 32 100 36 l27 2 0 -171z m-137
134 c-5 -16 -8 -88 -7 -160 1 -124 -6 -164 -19 -110 -25 99 -12 297 19 297 11
0 12 -7 7 -27z m137 -654 l0 -171 -57 7 c-32 4 -62 11 -68 16 -11 11 -14 241
-2 281 7 27 20 32 100 36 l27 2 0 -171z m-137 134 c-5 -16 -8 -88 -7 -160 1
-124 -6 -164 -19 -110 -25 99 -12 297 19 297 11 0 12 -7 7 -27z m137 -644 l0
-171 -57 7 c-32 4 -62 11 -68 16 -11 11 -14 241 -2 281 7 27 20 32 100 36 l27
2 0 -171z m-137 134 c-5 -16 -8 -88 -7 -160 1 -124 -6 -164 -19 -110 -25 99
-12 297 19 297 11 0 12 -7 7 -27z m137 -674 l0 -171 -57 7 c-32 4 -62 11 -68
16 -11 11 -14 241 -2 281 7 27 20 32 100 36 l27 2 0 -171z m-137 134 c-5 -16
-8 -88 -7 -160 1 -124 -6 -164 -19 -110 -25 99 -12 297 19 297 11 0 12 -7 7
-27z m137 -674 l0 -171 -57 7 c-32 4 -62 11 -68 16 -11 11 -14 241 -2 281 7
27 20 32 100 36 l27 2 0 -171z m-137 134 c-5 -16 -8 -88 -7 -160 1 -124 -6
-164 -19 -110 -25 99 -12 297 19 297 11 0 12 -7 7 -27z m137 -654 l0 -171 -57
7 c-32 4 -62 11 -68 16 -11 11 -14 241 -2 281 7 27 20 32 100 36 l27 2 0 -171z
m-137 134 c-5 -16 -8 -88 -7 -160 1 -124 -6 -164 -19 -110 -25 99 -12 297 19
297 11 0 12 -7 7 -27z m137 -644 l0 -171 -57 7 c-32 4 -62 11 -68 16 -11 11
-14 241 -2 281 7 27 20 32 100 36 l27 2 0 -171z m-137 134 c-5 -16 -8 -88 -7
-160 1 -124 -6 -164 -19 -110 -25 99 -12 297 19 297 11 0 12 -7 7 -27z"/>
<path d="M4390 5776 l0 -84 -62 -8 c-35 -4 -72 -8 -83 -8 -29 -1 -47 -96 -40
-203 6 -98 18 -134 42 -131 10 1 46 -1 81 -6 l62 -8 0 -73 0 -73 -62 -8 c-35
-4 -72 -8 -83 -8 -29 -1 -47 -96 -40 -203 6 -98 18 -134 42 -131 10 1 46 -1
81 -6 l62 -8 0 -78 0 -78 -62 -8 c-35 -4 -72 -8 -83 -8 -29 -1 -47 -96 -40
-203 6 -98 18 -134 42 -131 10 1 46 -1 81 -6 l62 -8 0 -73 0 -73 -62 -8 c-35
-4 -72 -8 -83 -8 -29 -1 -47 -96 -40 -203 6 -98 18 -134 42 -131 10 1 46 -1
81 -6 l62 -8 0 -88 0 -88 -62 -8 c-35 -4 -72 -8 -83 -8 -29 -1 -47 -96 -40
-203 6 -98 18 -134 42 -131 10 1 46 -1 81 -6 l62 -8 0 -88 0 -88 -62 -8 c-35
-4 -72 -8 -83 -8 -29 -1 -47 -96 -40 -203 6 -98 18 -134 42 -131 10 1 46 -1
81 -6 l62 -8 0 -78 0 -78 -62 -8 c-35 -4 -72 -8 -83 -8 -29 -1 -47 -96 -40
-203 6 -98 18 -134 42 -131 10 1 46 -1 81 -6 l62 -8 0 -73 0 -73 -62 -8 c-35
-4 -72 -8 -83 -8 -29 -1 -47 -96 -40 -203 6 -98 18 -134 42 -131 10 1 46 -1
81 -6 l62 -8 0 -84 0 -84 255 0 255 0 0 2175 0 2175 -255 0 -255 0 0 -84z
m500 -2091 l0 -2165 -245 0 -245 0 0 2165 0 2165 245 0 245 0 0 -2165z m-500
1824 l0 -171 -57 7 c-32 4 -62 11 -68 16 -11 11 -14 241 -2 281 7 27 20 32
100 36 l27 2 0 -171z m-137 134 c-5 -16 -8 -88 -7 -160 1 -124 -6 -164 -19
-110 -25 99 -12 297 19 297 11 0 12 -7 7 -27z m137 -644 l0 -171 -57 7 c-32 4
-62 11 -68 16 -11 11 -14 241 -2 281 7 27 20 32 100 36 l27 2 0 -171z m-137
134 c-5 -16 -8 -88 -7 -160 1 -124 -6 -164 -19 -110 -25 99 -12 297 19 297 11
0 12 -7 7 -27z m137 -654 l0 -171 -57 7 c-32 4 -62 11 -68 16 -11 11 -14 241
-2 281 7 27 20 32 100 36 l27 2 0 -171z m-137 134 c-5 -16 -8 -88 -7 -160 1
-124 -6 -164 -19 -110 -25 99 -12 297 19 297 11 0 12 -7 7 -27z m137 -644 l0
-171 -57 7 c-32 4 -62 11 -68 16 -11 11 -14 241 -2 281 7 27 20 32 100 36 l27
2 0 -171z m-137 134 c-5 -16 -8 -88 -7 -160 1 -124 -6 -164 -19 -110 -25 99
-12 297 19 297 11 0 12 -7 7 -27z m137 -674 l0 -171 -57 7 c-32 4 -62 11 -68
16 -11 11 -14 241 -2 281 7 27 20 32 100 36 l27 2 0 -171z m-137 134 c-5 -16
-8 -88 -7 -160 1 -124 -6 -164 -19 -110 -25 99 -12 297 19 297 11 0 12 -7 7
-27z m137 -674 l0 -171 -57 7 c-32 4 -62 11 -68 16 -11 11 -14 241 -2 281 7
27 20 32 100 36 l27 2 0 -171z m-137 134 c-5 -16 -8 -88 -7 -160 1 -124 -6
-164 -19 -110 -25 99 -12 297 19 297 11 0 12 -7 7 -27z m137 -654 l0 -171 -57
7 c-32 4 -62 11 -68 16 -11 11 -14 241 -2 281 7 27 20 32 100 36 l27 2 0 -171z
m-137 134 c-5 -16 -8 -88 -7 -160 1 -124 -6 -164 -19 -110 -25 99 -12 297 19
297 11 0 12 -7 7 -27z m137 -644 l0 -171 -57 7 c-32 4 -62 11 -68 16 -11 11
-14 241 -2 281 7 27 20 32 100 36 l27 2 0 -171z m-137 134 c-5 -16 -8 -88 -7
-160 1 -124 -6 -164 -19 -110 -25 99 -12 297 19 297 11 0 12 -7 7 -27z"/>
<path d="M5660 5776 l0 -84 -62 -8 c-35 -4 -72 -8 -83 -8 -29 -1 -47 -96 -40
-203 6 -98 18 -134 42 -131 10 1 46 -1 81 -6 l62 -8 0 -73 0 -73 -62 -8 c-35
-4 -72 -8 -83 -8 -29 -1 -47 -96 -40 -203 6 -98 18 -134 42 -131 10 1 46 -1
81 -6 l62 -8 0 -78 0 -78 -62 -8 c-35 -4 -72 -8 -83 -8 -29 -1 -47 -96 -40
-203 6 -98 18 -134 42 -131 10 1 46 -1 81 -6 l62 -8 0 -73 0 -73 -62 -8 c-35
-4 -72 -8 -83 -8 -29 -1 -47 -96 -40 -203 6 -98 18 -134 42 -131 10 1 46 -1
81 -6 l62 -8 0 -88 0 -88 -62 -8 c-35 -4 -72 -8 -83 -8 -29 -1 -47 -96 -40
-203 6 -98 18 -134 42 -131 10 1 46 -1 81 -6 l62 -8 0 -88 0 -88 -62 -8 c-35
-4 -72 -8 -83 -8 -29 -1 -47 -96 -40 -203 6 -98 18 -134 42 -131 10 1 46 -1
81 -6 l62 -8 0 -78 0 -78 -62 -8 c-35 -4 -72 -8 -83 -8 -29 -1 -47 -96 -40
-203 6 -98 18 -134 42 -131 10 1 46 -1 81 -6 l62 -8 0 -73 0 -73 -62 -8 c-35
-4 -72 -8 -83 -8 -29 -1 -47 -96 -40 -203 6 -98 18 -134 42 -131 10 1 46 -1
81 -6 l62 -8 0 -84 0 -84 255 0 255 0 0 2175 0 2175 -255 0 -255 0 0 -84z
m500 -2091 l0 -2165 -245 0 -245 0 0 2165 0 2165 245 0 245 0 0 -2165z m-500
1824 l0 -171 -57 7 c-32 4 -62 11 -68 16 -11 11 -14 241 -2 281 7 27 20 32
100 36 l27 2 0 -171z m-137 134 c-5 -16 -8 -88 -7 -160 1 -124 -6 -164 -19
-110 -25 99 -12 297 19 297 11 0 12 -7 7 -27z m137 -644 l0 -171 -57 7 c-32 4
-62 11 -68 16 -11 11 -14 241 -2 281 7 27 20 32 100 36 l27 2 0 -171z m-137
134 c-5 -16 -8 -88 -7 -160 1 -124 -6 -164 -19 -110 -25 99 -12 297 19 297 11
0 12 -7 7 -27z m137 -654 l0 -171 -57 7 c-32 4 -62 11 -68 16 -11 11 -14 241
-2 281 7 27 20 32 100 36 l27 2 0 -171z m-137 134 c-5 -16 -8 -88 -7 -160 1
-124 -6 -164 -19 -110 -25 99 -12 297 19 297 11 0 12 -7 7 -27z m137 -644 l0
-171 -57 7 c-32 4 -62 11 -68 16 -11 11 -14 241 -2 281 7 27 20 32 100 36 l27
2 0 -171z m-137 134 c-5 -16 -8 -88 -7 -160 1 -124 -6 -164 -19 -110 -25 99
-12 297 19 297 11 0 12 -7 7 -27z m137 -674 l0 -171 -57 7 c-32 4 -62 11 -68
16 -11 11 -14 241 -2 281 7 27 20 32 100 36 l27 2 0 -171z m-137 134 c-5 -16
-8 -88 -7 -160 1 -124 -6 -164 -19 -110 -25 99 -12 297 19 297 11 0 12 -7 7
-27z m137 -674 l0 -171 -57 7 c-32 4 -62 11 -68 16 -11 11 -14 241 -2 281 7
27 20 32 100 36 l27 2 0 -171z m-137 134 c-5 -16 -8 -88 -7 -160 1 -124 -6
-164 -19 -110 -25 99 -12 297 19 297 11 0 12 -7 7 -27z m137 -654 l0 -171 -57
7 c-32 4 -62 11 -68 16 -11 11 -14 241 -2 281 7 27 20 32 100 36 l27 2 0 -171z
m-137 134 c-5 -16 -8 -88 -7 -160 1 -124 -6 -164 -19 -110 -25 99 -12 297 19
297 11 0 12 -7 7 -27z m137 -644 l0 -171 -57 7 c-32 4 -62 11 -68 16 -11 11
-14 241 -2 281 7 27 20 32 100 36 l27 2 0 -171z m-137 134 c-5 -16 -8 -88 -7
-160 1 -124 -6 -164 -19 -110 -25 99 -12 297 19 297 11 0 12 -7 7 -27z"/>
<path d="M6980 5776 l0 -84 -62 -8 c-35 -4 -72 -8 -83 -8 -29 -1 -47 -96 -40
-203 6 -98 18 -134 42 -131 10 1 46 -1 81 -6 l62 -8 0 -73 0 -73 -62 -8 c-35
-4 -72 -8 -83 -8 -29 -1 -47 -96 -40 -203 6 -98 18 -134 42 -131 10 1 46 -1
81 -6 l62 -8 0 -78 0 -78 -62 -8 c-35 -4 -72 -8 -83 -8 -29 -1 -47 -96 -40
-203 6 -98 18 -134 42 -131 10 1 46 -1 81 -6 l62 -8 0 -73 0 -73 -62 -8 c-35
-4 -72 -8 -83 -8 -29 -1 -47 -96 -40 -203 6 -98 18 -134 42 -131 10 1 46 -1
81 -6 l62 -8 0 -88 0 -88 -62 -8 c-35 -4 -72 -8 -83 -8 -29 -1 -47 -96 -40
-203 6 -98 18 -134 42 -131 10 1 46 -1 81 -6 l62 -8 0 -88 0 -88 -62 -8 c-35
-4 -72 -8 -83 -8 -29 -1 -47 -96 -40 -203 6 -98 18 -134 42 -131 10 1 46 -1
81 -6 l62 -8 0 -78 0 -78 -62 -8 c-35 -4 -72 -8 -83 -8 -29 -1 -47 -96 -40
-203 6 -98 18 -134 42 -131 10 1 46 -1 81 -6 l62 -8 0 -73 0 -73 -62 -8 c-35
-4 -72 -8 -83 -8 -29 -1 -47 -96 -40 -203 6 -98 18 -134 42 -131 10 1 46 -1
81 -6 l62 -8 0 -84 0 -84 255 0 255 0 0 2175 0 2175 -255 0 -255 0 0 -84z
m500 -2091 l0 -2165 -245 0 -245 0 0 2165 0 2165 245 0 245 0 0 -2165z m-500
1824 l0 -171 -57 7 c-32 4 -62 11 -68 16 -11 11 -14 241 -2 281 7 27 20 32
100 36 l27 2 0 -171z m-137 134 c-5 -16 -8 -88 -7 -160 1 -124 -6 -164 -19
-110 -25 99 -12 297 19 297 11 0 12 -7 7 -27z m137 -644 l0 -171 -57 7 c-32 4
-62 11 -68 16 -11 11 -14 241 -2 281 7 27 20 32 100 36 l27 2 0 -171z m-137
134 c-5 -16 -8 -88 -7 -160 1 -124 -6 -164 -19 -110 -25 99 -12 297 19 297 11
0 12 -7 7 -27z m137 -654 l0 -171 -57 7 c-32 4 -62 11 -68 16 -11 11 -14 241
-2 281 7 27 20 32 100 36 l27 2 0 -171z m-137 134 c-5 -16 -8 -88 -7 -160 1
-124 -6 -164 -19 -110 -25 99 -12 297 19 297 11 0 12 -7 7 -27z m137 -644 l0
-171 -57 7 c-32 4 -62 11 -68 16 -11 11 -14 241 -2 281 7 27 20 32 100 36 l27
2 0 -171z m-137 134 c-5 -16 -8 -88 -7 -160 1 -124 -6 -164 -19 -110 -25 99
-12 297 19 297 11 0 12 -7 7 -27z m137 -674 l0 -171 -57 7 c-32 4 -62 11 -68
16 -11 11 -14 241 -2 281 7 27 20 32 100 36 l27 2 0 -171z m-137 134 c-5 -16
-8 -88 -7 -160 1 -124 -6 -164 -19 -110 -25 99 -12 297 19 297 11 0 12 -7 7
-27z m137 -674 l0 -171 -57 7 c-32 4 -62 11 -68 16 -11 11 -14 241 -2 281 7
27 20 32 100 36 l27 2 0 -171z m-137 134 c-5 -16 -8 -88 -7 -160 1 -124 -6
-164 -19 -110 -25 99 -12 297 19 297 11 0 12 -7 7 -27z m137 -654 l0 -171 -57
7 c-32 4 -62 11 -68 16 -11 11 -14 241 -2 281 7 27 20 32 100 36 l27 2 0 -171z
m-137 134 c-5 -16 -8 -88 -7 -160 1 -124 -6 -164 -19 -110 -25 99 -12 297 19
297 11 0 12 -7 7 -27z m137 -644 l0 -171 -57 7 c-32 4 -62 11 -68 16 -11 11
-14 241 -2 281 7 27 20 32 100 36 l27 2 0 -171z m-137 134 c-5 -16 -8 -88 -7
-160 1 -124 -6 -164 -19 -110 -25 99 -12 297 19 297 11 0 12 -7 7 -27z"/>
</g>
</svg>
